{"asset":{"version":"2.0","generator":"Unity 2021.3.22f1 glTFast 4.8.3","lastModified":"06-07-2023 06:15:55","assetVersion":"1.0","expiryToken":1},"nodes":[{"name":"RC_Stable_Big_Flag(Clone)","mesh":0}],"extensionsRequired":["KHR_texture_transform"],"extensionsUsed":["KHR_texture_transform"],"buffers":[{"uri":"RC_Stable_Big_Flag.bin","byteLength":31644}],"bufferViews":[{"buffer":0,"byteLength":4044},{"buffer":0,"byteLength":27600,"byteOffset":4044,"byteStride":48}],"accessors":[{"bufferView":1,"componentType":5126,"count":575,"type":"VEC3","max":[0.0692218,3.45243979,1.6689918],"min":[-0.0692218,0.004728794,-1.6689918]},{"bufferView":1,"componentType":5126,"count":575,"type":"VEC3","byteOffset":12},{"bufferView":1,"componentType":5126,"count":575,"type":"VEC4","byteOffset":24},{"bufferView":1,"componentType":5126,"count":575,"type":"VEC2","byteOffset":40},{"bufferView":0,"componentType":5123,"count":798,"type":"SCALAR"},{"bufferView":0,"componentType":5123,"count":1224,"type":"SCALAR","byteOffset":1596}],"images":[{"name":"RC_Metal_06_Normal.png","uri":"RC_Metal_06_Normal.png","mimeType":"image/png"},{"name":"RC_Metal_06_Base.jpg","uri":"RC_Metal_06_Base.jpg","mimeType":"image/jpeg"},{"name":"Flag_01_Base.jpg","uri":"Flag_01_Base.jpg","mimeType":"image/jpeg"}],"materials":[{"name":"RC_Stable_Big_Flag_mat1","pbrMetallicRoughness":{"baseColorFactor":[0.7264151,0.7264151,0.7264151,1],"metallicFactor":0,"roughnessFactor":0.786,"baseColorTexture":{"index":1,"extensions":{"KHR_texture_transform":{"offset":[0,1],"scale":[1,-1]}}}},"normalTexture":{"index":0,"extensions":{"KHR_texture_transform":{"offset":[0,1],"scale":[1,-1]}}}},{"name":"RC_Stable_Big_Flag_mat","pbrMetallicRoughness":{"baseColorFactor":[0.7353569,0.7353569,0.7353569,1],"metallicFactor":0,"roughnessFactor":0.5,"baseColorTexture":{"index":2,"extensions":{"KHR_texture_transform":{"offset":[0,1],"scale":[1,-1]}}}}}],"meshes":[{"name":"RC_Stable_Big_Flag","primitives":[{"attributes":{"POSITION":0,"NORMAL":1,"TANGENT":2,"TEXCOORD_0":3},"indices":4,"material":0},{"attributes":{"POSITION":0,"NORMAL":1,"TANGENT":2,"TEXCOORD_0":3},"indices":5,"material":1}]}],"scene":0,"scenes":[{"name":"RC_Stable_Big_Flag(Clone)","nodes":[0]}],"textures":[{"source":0},{"source":1},{"source":2}]}