{"asset":{"version":"2.0","generator":"Unity 2021.3.22f1 glTFast 4.8.3","lastModified":"13-10-2023 05:33:53","assetVersion":"1.0","expiryToken":1},"nodes":[{"name":"MV_Rock_01(Clone)","mesh":0}],"buffers":[{"uri":"MV_Rock_01.bin","byteLength":12456}],"bufferViews":[{"buffer":0,"byteLength":1992},{"buffer":0,"byteLength":10464,"byteOffset":1992,"byteStride":48}],"accessors":[{"bufferView":1,"componentType":5126,"count":218,"type":"VEC3","max":[0.346051961,0.555309236,0.457341343],"min":[-0.3725221,0,-0.473428577]},{"bufferView":1,"componentType":5126,"count":218,"type":"VEC3","byteOffset":12},{"bufferView":1,"componentType":5126,"count":218,"type":"VEC4","byteOffset":24},{"bufferView":1,"componentType":5126,"count":218,"type":"VEC2","byteOffset":40},{"bufferView":0,"componentType":5123,"count":996,"type":"SCALAR"}],"materials":[{"name":"MV_Rock_01_mat","pbrMetallicRoughness":{"baseColorFactor":[0.246660918,0.246660918,0.246660918,1],"metallicFactor":0,"roughnessFactor":0.5}}],"meshes":[{"name":"MV_Rock_01","primitives":[{"attributes":{"POSITION":0,"NORMAL":1,"TANGENT":2,"TEXCOORD_0":3},"indices":4,"material":0}]}],"scene":0,"scenes":[{"name":"MV_Rock_01(Clone)","nodes":[0]}]}