{"asset":{"version":"2.0","generator":"Unity 2021.3.22f1 glTFast 4.8.3","lastModified":"26-05-2023 08:10:55","assetVersion":"1.0","expiryToken":1},"nodes":[{"name":"Mountain_01(Clone)","mesh":0}],"extensionsRequired":["KHR_texture_transform"],"extensionsUsed":["KHR_texture_transform"],"buffers":[{"uri":"Mountain_01.bin","byteLength":154628}],"bufferViews":[{"buffer":0,"byteLength":16362},{"buffer":0,"byteLength":138264,"byteOffset":16364,"byteStride":56}],"accessors":[{"bufferView":1,"componentType":5126,"count":2469,"type":"VEC3","max":[49.07797,16.92265,41.3269653],"min":[-49.07797,-0.0132408142,-41.3269653]},{"bufferView":1,"componentType":5126,"count":2469,"type":"VEC3","byteOffset":12},{"bufferView":1,"componentType":5126,"count":2469,"type":"VEC4","byteOffset":24},{"bufferView":1,"componentType":5126,"count":2469,"type":"VEC2","byteOffset":40},{"bufferView":1,"componentType":5126,"count":2469,"type":"VEC2","byteOffset":48},{"bufferView":0,"componentType":5123,"count":8181,"type":"SCALAR"}],"images":[{"name":"Mountains_n.png","uri":"Mountains_n.png","mimeType":"image/png"},{"name":"Mountains_d.jpg","uri":"Mountains_d.jpg","mimeType":"image/jpeg"},{"name":"Mountains_ao.jpg","uri":"Mountains_ao.jpg","mimeType":"image/jpeg"}],"materials":[{"name":"Mountains_mtl","pbrMetallicRoughness":{"baseColorFactor":[0.9485294,0.7483931,0.564932942,1],"metallicFactor":0,"baseColorTexture":{"index":1,"extensions":{"KHR_texture_transform":{"offset":[0,1],"scale":[1,-1]}}}},"normalTexture":{"index":0,"extensions":{"KHR_texture_transform":{"offset":[0,1],"scale":[1,-1]}}},"occlusionTexture":{"index":2,"extensions":{"KHR_texture_transform":{"offset":[0,1],"scale":[1,-1]}}},"doubleSided":true}],"meshes":[{"name":"Mountain01","primitives":[{"attributes":{"POSITION":0,"NORMAL":1,"TANGENT":2,"TEXCOORD_0":3,"TEXCOORD_1":4},"indices":5,"material":0}]}],"scene":0,"scenes":[{"name":"Mountain_01(Clone)","nodes":[0]}],"textures":[{"source":0},{"source":1},{"source":2}]}