{"asset":{"version":"2.0","generator":"Unity 2021.3.22f1 glTFast 4.8.3","lastModified":"06-07-2023 06:26:51","assetVersion":"1.0","expiryToken":1},"nodes":[{"name":"RC_Market_Tent_01(Clone)","mesh":0}],"extensionsRequired":["KHR_texture_transform"],"extensionsUsed":["KHR_texture_transform"],"buffers":[{"uri":"RC_Market_Tent_01.bin","byteLength":102600}],"bufferViews":[{"buffer":0,"byteLength":8568},{"buffer":0,"byteLength":94032,"byteOffset":8568,"byteStride":48}],"accessors":[{"bufferView":1,"componentType":5126,"count":1959,"type":"VEC3","max":[2.348479,4.131196,2.42306948],"min":[-2.43187165,-0.0425758362,-1.73718548]},{"bufferView":1,"componentType":5126,"count":1959,"type":"VEC3","byteOffset":12},{"bufferView":1,"componentType":5126,"count":1959,"type":"VEC4","byteOffset":24},{"bufferView":1,"componentType":5126,"count":1959,"type":"VEC2","byteOffset":40},{"bufferView":0,"componentType":5123,"count":2112,"type":"SCALAR"},{"bufferView":0,"componentType":5123,"count":2172,"type":"SCALAR","byteOffset":4224}],"images":[{"name":"RC_Wood_04_Normal.png","uri":"RC_Wood_04_Normal.png","mimeType":"image/png"},{"name":"RC_Wood_04_Base.jpg","uri":"RC_Wood_04_Base.jpg","mimeType":"image/jpeg"},{"name":"RC_Fabric_003_Normal.png","uri":"RC_Fabric_003_Normal.png","mimeType":"image/png"},{"name":"RC_Fabric_003_Base.jpg","uri":"RC_Fabric_003_Base.jpg","mimeType":"image/jpeg"},{"name":"RC_Fabric_003_AO.jpg","uri":"RC_Fabric_003_AO.jpg","mimeType":"image/jpeg"}],"materials":[{"name":"RC_Market_Tent_01_mat1","pbrMetallicRoughness":{"baseColorFactor":[1,0.9497742,0.7783019,1],"metallicFactor":0,"roughnessFactor":0.774,"baseColorTexture":{"index":1,"extensions":{"KHR_texture_transform":{"offset":[0,1],"scale":[5,-5]}}}},"normalTexture":{"index":0,"extensions":{"KHR_texture_transform":{"offset":[0,1],"scale":[1,-1]}},"scale":2}},{"name":"RC_Market_Tent_01_mat2","pbrMetallicRoughness":{"baseColorFactor":[0.7830188,0.7830188,0.7830188,1],"metallicFactor":0,"roughnessFactor":0.853,"baseColorTexture":{"index":3,"extensions":{"KHR_texture_transform":{"offset":[0,1],"scale":[10,-10]}}}},"normalTexture":{"index":2,"extensions":{"KHR_texture_transform":{"offset":[0,1],"scale":[1,-1]}}},"occlusionTexture":{"index":4,"extensions":{"KHR_texture_transform":{"offset":[0,1],"scale":[10,-10]}}}}],"meshes":[{"name":"RC_Market_Tent_01","primitives":[{"attributes":{"POSITION":0,"NORMAL":1,"TANGENT":2,"TEXCOORD_0":3},"indices":4,"material":0},{"attributes":{"POSITION":0,"NORMAL":1,"TANGENT":2,"TEXCOORD_0":3},"indices":5,"material":1}]}],"scene":0,"scenes":[{"name":"RC_Market_Tent_01(Clone)","nodes":[0]}],"textures":[{"source":0},{"source":1},{"source":2},{"source":3},{"source":4}]}