{"asset":{"version":"2.0","generator":"Unity 2021.3.22f1 glTFast 4.8.3","lastModified":"17-10-2023 13:26:03","assetVersion":"1.0","expiryToken":1},"nodes":[{"name":"HT_Bunny_Skull","mesh":0,"translation":[0,0.44,0],"rotation":[2.18556941E-08,0,0,1]},{"name":"HT_Bunny_Skull_Staircase","mesh":1,"translation":[2.46,-2.77,-0.48],"rotation":[2.18556941E-08,0,0,1]},{"name":"HT_Bunny_Skull","children":[0,1],"translation":[0,3.599,0]},{"name":"HT_Bunny_Skull","children":[2]},{"name":"HT_Bunny_Skull_Staircase","mesh":4,"translation":[2.64,0,0]},{"name":"HT_Fence_03","mesh":2,"translation":[1.017,12.5,0.339],"rotation":[2.93462254E-09,-0.9909445,-2.16577831E-08,0.134272665],"scale":[0.6502,1,1]},{"name":"HT_Fence_03","mesh":2,"translation":[0.838,12.539,-1.041],"rotation":[1.085991E-08,-0.867812753,-1.8966654E-08,0.4968915]},{"name":"HT_Fence_03","mesh":2,"translation":[1.558,12.539,-1.677],"rotation":[4.38981029E-09,-0.9796211,-2.14103046E-08,0.200854331]},{"name":"HT_Fence_03","mesh":2,"translation":[2.552,12.539,-1.752],"rotation":[-2.58585486E-09,-0.9929761,-2.17021885E-08,-0.11831478]},{"name":"HT_Fence_03","mesh":2,"translation":[3.561,12.539,-1.375],"rotation":[0.0138547067,-0.944250166,-0.040069893,-0.3264876]},{"name":"HT_Fence_03","mesh":2,"translation":[4.197,12.523,-0.585],"rotation":[0.0519055873,-0.8061812,-0.0830753744,-0.583503366]},{"name":"HT_Fence_03","mesh":2,"translation":[4.364,12.52,0.421],"rotation":[0.054663647,-0.6814501,-0.0617522635,-0.727203131]},{"name":"HT_Fence_03","mesh":2,"translation":[3.896,12.465,1.521],"rotation":[0.0933945253,-0.366967738,-0.0448648036,-0.9244454]},{"name":"HT_Fence_03","mesh":2,"translation":[3.165,12.527,1.539],"rotation":[-0.02562181,0.454433769,-0.03216614,-0.889830768]},{"name":"HT_Fence_03","mesh":2,"translation":[2.684,12.5,0.814],"rotation":[-0.0290749744,0.5515725,-0.0290823616,-0.833112657]},{"name":"HT_Fence_03","mesh":2,"translation":[0.613,12.539,-0.079],"rotation":[1.60547291E-08,-0.67852354,-1.48296051E-08,0.734578669]},{"name":"HT_Bunny_Skull_Base_wall","mesh":3,"rotation":[2.18556941E-08,0,0,1]},{"name":"HT_Bunny_Skull(Clone)","children":[3,4,5,6,7,8,9,10,11,12,13,14,15,16]}],"extensionsRequired":["KHR_texture_transform"],"extensionsUsed":["KHR_texture_transform"],"buffers":[{"uri":"HT_Bunny_Skull.bin","byteLength":1776968}],"bufferViews":[{"buffer":0,"byteLength":178218},{"buffer":0,"byteLength":808512,"byteOffset":178220,"byteStride":48},{"buffer":0,"byteLength":47364,"byteOffset":986732},{"buffer":0,"byteLength":523296,"byteOffset":1034096,"byteStride":48},{"buffer":0,"byteLength":13344,"byteOffset":1557392},{"buffer":0,"byteLength":69936,"byteOffset":1570736,"byteStride":48},{"buffer":0,"byteLength":23496,"byteOffset":1640672},{"buffer":0,"byteLength":112800,"byteOffset":1664168,"byteStride":48}],"accessors":[{"bufferView":1,"componentType":5126,"count":16844,"type":"VEC3","max":[15.9640465,20.5612755,8.207523],"min":[-15.8629189,-0.0295505524,-7.4026804]},{"bufferView":1,"componentType":5126,"count":16844,"type":"VEC3","byteOffset":12},{"bufferView":1,"componentType":5126,"count":16844,"type":"VEC4","byteOffset":24},{"bufferView":1,"componentType":5126,"count":16844,"type":"VEC2","byteOffset":40},{"bufferView":0,"componentType":5123,"count":312,"type":"SCALAR"},{"bufferView":0,"componentType":5123,"count":42144,"type":"SCALAR","byteOffset":624},{"bufferView":0,"componentType":5123,"count":135,"type":"SCALAR","byteOffset":84912},{"bufferView":0,"componentType":5123,"count":24,"type":"SCALAR","byteOffset":85182},{"bufferView":0,"componentType":5123,"count":720,"type":"SCALAR","byteOffset":85230},{"bufferView":0,"componentType":5123,"count":1632,"type":"SCALAR","byteOffset":86670},{"bufferView":0,"componentType":5123,"count":4320,"type":"SCALAR","byteOffset":89934},{"bufferView":0,"componentType":5123,"count":3840,"type":"SCALAR","byteOffset":98574},{"bufferView":0,"componentType":5123,"count":576,"type":"SCALAR","byteOffset":106254},{"bufferView":0,"componentType":5123,"count":5112,"type":"SCALAR","byteOffset":107406},{"bufferView":0,"componentType":5123,"count":5310,"type":"SCALAR","byteOffset":117630},{"bufferView":0,"componentType":5123,"count":24984,"type":"SCALAR","byteOffset":128250},{"bufferView":3,"componentType":5126,"count":10902,"type":"VEC3","max":[1.32119489,13.5008049,1.23514414],"min":[-1.40895343,0,-1.20239878]},{"bufferView":3,"componentType":5126,"count":10902,"type":"VEC3","byteOffset":12},{"bufferView":3,"componentType":5126,"count":10902,"type":"VEC4","byteOffset":24},{"bufferView":3,"componentType":5126,"count":10902,"type":"VEC2","byteOffset":40},{"bufferView":2,"componentType":5123,"count":21126,"type":"SCALAR"},{"bufferView":2,"componentType":5123,"count":2556,"type":"SCALAR","byteOffset":42252},{"bufferView":5,"componentType":5126,"count":1457,"type":"VEC3","max":[0.566730261,1.147188,0.0432475],"min":[-0.61282444,-0.00506389141,-0.0443832353]},{"bufferView":5,"componentType":5126,"count":1457,"type":"VEC3","byteOffset":12},{"bufferView":5,"componentType":5126,"count":1457,"type":"VEC4","byteOffset":24},{"bufferView":5,"componentType":5126,"count":1457,"type":"VEC2","byteOffset":40},{"bufferView":4,"componentType":5123,"count":6672,"type":"SCALAR"},{"bufferView":7,"componentType":5126,"count":2350,"type":"VEC3","max":[8.38015,3.797042,8.539791],"min":[-8.473364,-1.43051147E-06,-8.340218]},{"bufferView":7,"componentType":5126,"count":2350,"type":"VEC3","byteOffset":12},{"bufferView":7,"componentType":5126,"count":2350,"type":"VEC4","byteOffset":24},{"bufferView":7,"componentType":5126,"count":2350,"type":"VEC2","byteOffset":40},{"bufferView":6,"componentType":5123,"count":2268,"type":"SCALAR"},{"bufferView":6,"componentType":5123,"count":9480,"type":"SCALAR","byteOffset":4536}],"images":[{"name":"HT_Bunny_Skull_Mouth_Glow_mat_Base_color.jpg","uri":"HT_Bunny_Skull_Mouth_Glow_mat_Base_color.jpg","mimeType":"image/jpeg"},{"name":"HT_Bunny_Skull_mat_Base_color.jpg","uri":"HT_Bunny_Skull_mat_Base_color.jpg","mimeType":"image/jpeg"},{"name":"HT_Bunny_Skull_Eyes_Glow_mat_Base_color.jpg","uri":"HT_Bunny_Skull_Eyes_Glow_mat_Base_color.jpg","mimeType":"image/jpeg"},{"name":"HT_Bunny_Skull_Nose_Glow_mat_Base_color.jpg","uri":"HT_Bunny_Skull_Nose_Glow_mat_Base_color.jpg","mimeType":"image/jpeg"},{"name":"HT_Bunny_Skull_Window_Grill_mat_Base_color.jpg","uri":"HT_Bunny_Skull_Window_Grill_mat_Base_color.jpg","mimeType":"image/jpeg"},{"name":"HT_Bunny_Skull_Ears_Glow_mat_Base_color.jpg","uri":"HT_Bunny_Skull_Ears_Glow_mat_Base_color.jpg","mimeType":"image/jpeg"},{"name":"HT_Bunny_Skull_Dragon_Teeth_mat_Base_color.jpg","uri":"HT_Bunny_Skull_Dragon_Teeth_mat_Base_color.jpg","mimeType":"image/jpeg"},{"name":"HT_Bunny_Skull_Dragon_mat_Base_color.jpg","uri":"HT_Bunny_Skull_Dragon_mat_Base_color.jpg","mimeType":"image/jpeg"},{"name":"HT_Bunny_Skull_Vines_mat_Base_color.jpg","uri":"HT_Bunny_Skull_Vines_mat_Base_color.jpg","mimeType":"image/jpeg"},{"name":"HT_Wall_05_Normal.png","uri":"HT_Wall_05_Normal.png","mimeType":"image/png"},{"name":"HT_Wall_05_Color.jpg","uri":"HT_Wall_05_Color.jpg","mimeType":"image/jpeg"},{"name":"HT_Wall_07_Normal.png","uri":"HT_Wall_07_Normal.png","mimeType":"image/png"},{"name":"HT_Wall_07_Color.jpg","uri":"HT_Wall_07_Color.jpg","mimeType":"image/jpeg"},{"name":"HT_Wall_07_Metallic.jpg","uri":"HT_Wall_07_Metallic.jpg","mimeType":"image/jpeg"},{"name":"HT_Wood_02_Normal.png","uri":"HT_Wood_02_Normal.png","mimeType":"image/png"},{"name":"HT_Wood_02_Basecolor.jpg","uri":"HT_Wood_02_Basecolor.jpg","mimeType":"image/jpeg"},{"name":"HT_Fence_03_mat_Base_color.jpg","uri":"HT_Fence_03_mat_Base_color.jpg","mimeType":"image/jpeg"},{"name":"HT_Bunny_Skull_Bottom_wall_Glow.jpg","uri":"HT_Bunny_Skull_Bottom_wall_Glow.jpg","mimeType":"image/jpeg"},{"name":"HT_Bunny_Skull_Bottom_wall_mat_Base_color.jpg","uri":"HT_Bunny_Skull_Bottom_wall_mat_Base_color.jpg","mimeType":"image/jpeg"}],"materials":[{"name":"HT_Bunny_Skull_Mouth_Glow_mat","pbrMetallicRoughness":{"metallicFactor":0,"roughnessFactor":0.5,"baseColorTexture":{"index":0,"extensions":{"KHR_texture_transform":{"offset":[0,1],"scale":[1,-1]}}}},"emissiveTexture":{"index":0,"extensions":{"KHR_texture_transform":{"offset":[0,1],"scale":[1,-1]}}},"emissiveFactor":[1,0.13333334,0.0627451],"doubleSided":true},{"name":"HT_Bunny_Skull_mat","pbrMetallicRoughness":{"metallicFactor":0,"baseColorTexture":{"index":1,"extensions":{"KHR_texture_transform":{"offset":[0,1],"scale":[1,-1]}}}},"emissiveTexture":{"index":1,"extensions":{"KHR_texture_transform":{"offset":[0,1],"scale":[1,-1]}}},"emissiveFactor":[1,1,1]},{"name":"HT_Bunny_Skull_Eyes_Glow_mat","pbrMetallicRoughness":{"metallicFactor":0,"baseColorTexture":{"index":2,"extensions":{"KHR_texture_transform":{"offset":[0,1],"scale":[1,-1]}}}},"emissiveTexture":{"index":2,"extensions":{"KHR_texture_transform":{"offset":[0,1],"scale":[1,-1]}}},"emissiveFactor":[1,1,1],"doubleSided":true},{"name":"HT_Bunny_Skull_Nose_Glow_mat","pbrMetallicRoughness":{"metallicFactor":0,"roughnessFactor":0.5,"baseColorTexture":{"index":3,"extensions":{"KHR_texture_transform":{"offset":[0,1],"scale":[1,-1]}}}},"emissiveTexture":{"index":3,"extensions":{"KHR_texture_transform":{"offset":[0,1],"scale":[1,-1]}}},"emissiveFactor":[1,1,1],"doubleSided":true},{"name":"HT_Bunny_Skull_Window_Grill_mat","pbrMetallicRoughness":{"metallicFactor":0,"baseColorTexture":{"index":4,"extensions":{"KHR_texture_transform":{"offset":[0,1],"scale":[1,-1]}}}}},{"name":"HT_Bunny_Skull_Ears_Glow_mat","pbrMetallicRoughness":{"metallicFactor":0,"baseColorTexture":{"index":5,"extensions":{"KHR_texture_transform":{"offset":[0,1],"scale":[1,-1]}}}},"emissiveTexture":{"index":5,"extensions":{"KHR_texture_transform":{"offset":[0,1],"scale":[1,-1]}}},"emissiveFactor":[1,1,1]},{"name":"HT_Bunny_Skull_Dragon_Teeth_mat","pbrMetallicRoughness":{"metallicFactor":0,"roughnessFactor":0.924,"baseColorTexture":{"index":6,"extensions":{"KHR_texture_transform":{"offset":[0,1],"scale":[1,-1]}}}}},{"name":"HT_Bunny_Skull_Dragon_Eyes_mat","pbrMetallicRoughness":{"metallicFactor":0,"roughnessFactor":0.5,"baseColorTexture":{"index":7,"extensions":{"KHR_texture_transform":{"offset":[0,1],"scale":[1,-1]}}}}},{"name":"HT_Bunny_Skull_Dragon_Eyes_Glow_mat","pbrMetallicRoughness":{"baseColorFactor":[1,0.8375635,0,1],"metallicFactor":0,"baseColorTexture":{"index":7,"extensions":{"KHR_texture_transform":{"offset":[0,1],"scale":[1,-1]}}}},"emissiveTexture":{"index":7,"extensions":{"KHR_texture_transform":{"offset":[0,1],"scale":[1,-1]}}},"emissiveFactor":[0,0.3813858,1]},{"name":"HT_Bunny_Skull_Dragon_mat","pbrMetallicRoughness":{"metallicFactor":0,"roughnessFactor":0.5,"baseColorTexture":{"index":7,"extensions":{"KHR_texture_transform":{"offset":[0,1],"scale":[1,-1]}}}}},{"name":"HT_Bunny_Skull_Vines_mat","pbrMetallicRoughness":{"metallicFactor":0,"roughnessFactor":0.5,"baseColorTexture":{"index":8,"extensions":{"KHR_texture_transform":{"offset":[0,1],"scale":[1,-1]}}}}},{"name":"HT_Bunny_Skull_Upper_Floor_mat","pbrMetallicRoughness":{"baseColorFactor":[0.7075472,0.6107601,0.6107601,1],"metallicFactor":0,"baseColorTexture":{"index":10,"extensions":{"KHR_texture_transform":{"offset":[0,1],"scale":[2,-2]}}}},"normalTexture":{"index":9,"extensions":{"KHR_texture_transform":{"offset":[0,1],"scale":[1,-1]}}}},{"name":"HT_Bunny_Skull_Staircase_mat","pbrMetallicRoughness":{"baseColorFactor":[0.266658276,0.251939535,0.248516262,1],"metallicFactor":0.033,"roughnessFactor":0.946},"doubleSided":true},{"name":"HT_Bunny_Skull_Staircase_Wood_mat","pbrMetallicRoughness":{"baseColorFactor":[0.413325936,0.236385316,0,1],"metallicFactor":0.027,"roughnessFactor":0.957},"doubleSided":true},{"name":"HT_Bunny_Skull_Staircase_mat1","pbrMetallicRoughness":{"baseColorTexture":{"index":12,"extensions":{"KHR_texture_transform":{"offset":[0,1],"scale":[5,-5]}}},"metallicRoughnessTexture":{"index":13,"extensions":{"KHR_texture_transform":{"offset":[0,1],"scale":[1,-1]}}}},"normalTexture":{"index":11,"extensions":{"KHR_texture_transform":{"offset":[0,1],"scale":[1,-1]}}}},{"name":"HT_Bunny_Skull_Staircase_Wood_mat1","pbrMetallicRoughness":{"metallicFactor":0.026,"roughnessFactor":0.981,"baseColorTexture":{"index":15,"extensions":{"KHR_texture_transform":{"offset":[0,1],"scale":[0.5,-0.5]}}}},"normalTexture":{"index":14,"extensions":{"KHR_texture_transform":{"offset":[0,1],"scale":[1,-1]}}},"doubleSided":true},{"name":"HT_Fence_03_mat","pbrMetallicRoughness":{"baseColorFactor":[0.9063317,0.9063317,0.9063317,1],"metallicFactor":0,"baseColorTexture":{"index":16,"extensions":{"KHR_texture_transform":{"offset":[0,1],"scale":[1,-1]}}}}},{"name":"HT_Bunny_Skull_Ground_mat1","pbrMetallicRoughness":{"baseColorFactor":[0.306658715,0.166097164,0.09831933,1],"metallicFactor":0,"roughnessFactor":0.5}},{"name":"HT_Bunny_Skull_Bottom_wall_mat","pbrMetallicRoughness":{"metallicFactor":0.031,"roughnessFactor":0.974,"baseColorTexture":{"index":18,"extensions":{"KHR_texture_transform":{"offset":[0,1],"scale":[1,-1]}}}},"emissiveTexture":{"index":17,"extensions":{"KHR_texture_transform":{"offset":[0,1],"scale":[1,-1]}}},"emissiveFactor":[1,0.4374134,0.08376962]}],"meshes":[{"name":"HT_Bunny_Skull","primitives":[{"attributes":{"POSITION":0,"NORMAL":1,"TANGENT":2,"TEXCOORD_0":3},"indices":4,"material":0},{"attributes":{"POSITION":0,"NORMAL":1,"TANGENT":2,"TEXCOORD_0":3},"indices":5,"material":1},{"attributes":{"POSITION":0,"NORMAL":1,"TANGENT":2,"TEXCOORD_0":3},"indices":6,"material":2},{"attributes":{"POSITION":0,"NORMAL":1,"TANGENT":2,"TEXCOORD_0":3},"indices":7,"material":3},{"attributes":{"POSITION":0,"NORMAL":1,"TANGENT":2,"TEXCOORD_0":3},"indices":8,"material":4},{"attributes":{"POSITION":0,"NORMAL":1,"TANGENT":2,"TEXCOORD_0":3},"indices":9,"material":5},{"attributes":{"POSITION":0,"NORMAL":1,"TANGENT":2,"TEXCOORD_0":3},"indices":10,"material":6},{"attributes":{"POSITION":0,"NORMAL":1,"TANGENT":2,"TEXCOORD_0":3},"indices":11,"material":7},{"attributes":{"POSITION":0,"NORMAL":1,"TANGENT":2,"TEXCOORD_0":3},"indices":12,"material":8},{"attributes":{"POSITION":0,"NORMAL":1,"TANGENT":2,"TEXCOORD_0":3},"indices":13,"material":9},{"attributes":{"POSITION":0,"NORMAL":1,"TANGENT":2,"TEXCOORD_0":3},"indices":14,"material":10},{"attributes":{"POSITION":0,"NORMAL":1,"TANGENT":2,"TEXCOORD_0":3},"indices":15,"material":11}]},{"name":"HT_Bunny_Skull_Staircase","primitives":[{"attributes":{"POSITION":16,"NORMAL":17,"TANGENT":18,"TEXCOORD_0":19},"indices":20,"material":12},{"attributes":{"POSITION":16,"NORMAL":17,"TANGENT":18,"TEXCOORD_0":19},"indices":21,"material":13}]},{"name":"MT_Feance_03","primitives":[{"attributes":{"POSITION":22,"NORMAL":23,"TANGENT":24,"TEXCOORD_0":25},"indices":26,"material":16}]},{"name":"HT_Bunny_Skull_Base_wall","primitives":[{"attributes":{"POSITION":27,"NORMAL":28,"TANGENT":29,"TEXCOORD_0":30},"indices":31,"material":17},{"attributes":{"POSITION":27,"NORMAL":28,"TANGENT":29,"TEXCOORD_0":30},"indices":32,"material":18}]},{"name":"HT_Bunny_Skull_Staircase","primitives":[{"attributes":{"POSITION":16,"NORMAL":17,"TANGENT":18,"TEXCOORD_0":19},"indices":20,"material":14},{"attributes":{"POSITION":16,"NORMAL":17,"TANGENT":18,"TEXCOORD_0":19},"indices":21,"material":15}]}],"scene":0,"scenes":[{"name":"HT_Bunny_Skull(Clone)","nodes":[17]}],"textures":[{"source":0},{"source":1},{"source":2},{"source":3},{"source":4},{"source":5},{"source":6},{"source":7},{"source":8},{"source":9},{"source":10},{"source":11},{"source":12},{"source":13},{"source":14},{"source":15},{"source":16},{"source":17},{"source":18}]}