{"asset":{"version":"2.0","generator":"Unity 2021.3.22f1 glTFast 4.8.3","lastModified":"06-07-2023 06:21:24","assetVersion":"1.0","expiryToken":1},"nodes":[{"name":"RC_Villa_Steps_02(Clone)","mesh":0}],"extensionsRequired":["KHR_texture_transform"],"extensionsUsed":["KHR_texture_transform"],"buffers":[{"uri":"RC_Villa_Steps_02.bin","byteLength":36984}],"bufferViews":[{"buffer":0,"byteLength":4536},{"buffer":0,"byteLength":32448,"byteOffset":4536,"byteStride":48}],"accessors":[{"bufferView":1,"componentType":5126,"count":676,"type":"VEC3","max":[2.28289175,1.09917212,0.662155151],"min":[-2.28289127,-0.0134494305,-0.662154555]},{"bufferView":1,"componentType":5126,"count":676,"type":"VEC3","byteOffset":12},{"bufferView":1,"componentType":5126,"count":676,"type":"VEC4","byteOffset":24},{"bufferView":1,"componentType":5126,"count":676,"type":"VEC2","byteOffset":40},{"bufferView":0,"componentType":5123,"count":1620,"type":"SCALAR"},{"bufferView":0,"componentType":5123,"count":648,"type":"SCALAR","byteOffset":3240}],"images":[{"name":"RC_Wall_002_Normal.png","uri":"RC_Wall_002_Normal.png","mimeType":"image/png"},{"name":"RC_Wall_002_AO.jpg","uri":"RC_Wall_002_AO.jpg","mimeType":"image/jpeg"},{"name":"RC_Wall_002_Base.jpg","uri":"RC_Wall_002_Base.jpg","mimeType":"image/jpeg"}],"materials":[{"name":"RC_Villa_Steps_02_mat","pbrMetallicRoughness":{"baseColorFactor":[0.43013525,0.506480455,0.509434,1],"metallicFactor":0.109,"roughnessFactor":0.96,"baseColorTexture":{"index":1,"extensions":{"KHR_texture_transform":{"offset":[0,1],"scale":[5,-5]}}}},"normalTexture":{"index":0,"extensions":{"KHR_texture_transform":{"offset":[0,1],"scale":[1,-1]}}}},{"name":"RC_Villa_Steps_02_mat1","pbrMetallicRoughness":{"baseColorFactor":[0.8396226,0.5554156,0,1],"metallicFactor":0.158,"roughnessFactor":0.885,"baseColorTexture":{"index":2,"extensions":{"KHR_texture_transform":{"offset":[0,1],"scale":[5,-5]}}}},"normalTexture":{"index":0,"extensions":{"KHR_texture_transform":{"offset":[0,1],"scale":[1,-1]}}},"occlusionTexture":{"index":1,"extensions":{"KHR_texture_transform":{"offset":[0,1],"scale":[5,-5]}}}}],"meshes":[{"name":"RC_Villa_Steps_02","primitives":[{"attributes":{"POSITION":0,"NORMAL":1,"TANGENT":2,"TEXCOORD_0":3},"indices":4,"material":0},{"attributes":{"POSITION":0,"NORMAL":1,"TANGENT":2,"TEXCOORD_0":3},"indices":5,"material":1}]}],"scene":0,"scenes":[{"name":"RC_Villa_Steps_02(Clone)","nodes":[0]}],"textures":[{"source":0},{"source":1},{"source":2}]}