{"asset":{"version":"2.0","generator":"Unity 2021.3.22f1 glTFast 4.8.3","lastModified":"13-05-2023 09:30:34","assetVersion":"1.0","expiryToken":1},"nodes":[{"name":"Wooden_box_v1_LD1_SET1 (48)","mesh":0,"translation":[5.19200754,-1.50167239,-0.5099479],"rotation":[6.76535447E-14,1,-2.18557E-08,3.010035E-06]},{"name":"Dirty_cardboard_box_set3 (3)","mesh":1,"translation":[-0.2800064,-1.49397409,2.73999786],"rotation":[1.50677284E-08,0.7243629,-1.58314624E-08,0.6894189]},{"name":"Wooden_box_v2_1 (24)","mesh":2,"translation":[-2.95000458,-0.175817847,2.199997],"rotation":[2.101937E-08,-0.273984164,5.988114E-09,0.961734235]},{"name":"Wooden_box_v2_2 (19)","mesh":3,"translation":[-3.411003,-1.5000087,2.09799957],"rotation":[2.18556941E-08,0,0,1]},{"name":"Cargo_container_v1_LD1close (56)","mesh":4,"translation":[-0.5199609,0,-3]},{"name":"Cargo_container_v1_LD1close (82)","mesh":6,"translation":[-0.189955235,3.00004959,-3.32000947]},{"name":"Wooden_box_v1_LD1_SET5 (28)","mesh":5,"translation":[-1.899928,-1.50167239,-6.173027],"rotation":[-2.18556941E-08,5.96046448E-06,-1.30270089E-13,-1]},{"name":"MS98(Clone)","children":[0,1,2,3,4,5,6],"mesh":7}],"extensionsRequired":["KHR_texture_transform"],"extensionsUsed":["KHR_texture_transform"],"buffers":[{"uri":"MS98.bin","byteLength":125292}],"bufferViews":[{"buffer":0,"byteLength":216},{"buffer":0,"byteLength":4032,"byteOffset":216,"byteStride":56},{"buffer":0,"byteLength":7440,"byteOffset":4248},{"buffer":0,"byteLength":87136,"byteOffset":11688,"byteStride":56},{"buffer":0,"byteLength":72,"byteOffset":98824},{"buffer":0,"byteLength":1344,"byteOffset":98896,"byteStride":56},{"buffer":0,"byteLength":300,"byteOffset":100240},{"buffer":0,"byteLength":4928,"byteOffset":100540,"byteStride":56},{"buffer":0,"byteLength":72,"byteOffset":105468},{"buffer":0,"byteLength":1344,"byteOffset":105540,"byteStride":56},{"buffer":0,"byteLength":936,"byteOffset":106884},{"buffer":0,"byteLength":17472,"byteOffset":107820,"byteStride":56}],"accessors":[{"bufferView":1,"componentType":5126,"count":72,"type":"VEC3","max":[1.13882446,1.4853878,0.8950827],"min":[-1.13882446,0.00162410736,-0.8950827]},{"bufferView":1,"componentType":5126,"count":72,"type":"VEC3","byteOffset":12},{"bufferView":1,"componentType":5126,"count":72,"type":"VEC4","byteOffset":24},{"bufferView":1,"componentType":5126,"count":72,"type":"VEC2","byteOffset":40},{"bufferView":1,"componentType":5126,"count":72,"type":"VEC2","byteOffset":48},{"bufferView":0,"componentType":5123,"count":108,"type":"SCALAR"},{"bufferView":3,"componentType":5126,"count":1556,"type":"VEC3","max":[1.15595484,1.30180383,1.5579946],"min":[-1.63531828,-0.0060634613,-1.66034317]},{"bufferView":3,"componentType":5126,"count":1556,"type":"VEC3","byteOffset":12},{"bufferView":3,"componentType":5126,"count":1556,"type":"VEC4","byteOffset":24},{"bufferView":3,"componentType":5126,"count":1556,"type":"VEC2","byteOffset":40},{"bufferView":3,"componentType":5126,"count":1556,"type":"VEC2","byteOffset":48},{"bufferView":2,"componentType":5123,"count":3720,"type":"SCALAR"},{"bufferView":5,"componentType":5126,"count":24,"type":"VEC3","max":[0.425593853,0.853480458,0.4757607],"min":[-0.42559433,0,-0.475760937]},{"bufferView":5,"componentType":5126,"count":24,"type":"VEC3","byteOffset":12},{"bufferView":5,"componentType":5126,"count":24,"type":"VEC4","byteOffset":24},{"bufferView":5,"componentType":5126,"count":24,"type":"VEC2","byteOffset":40},{"bufferView":5,"componentType":5126,"count":24,"type":"VEC2","byteOffset":48},{"bufferView":4,"componentType":5123,"count":36,"type":"SCALAR"},{"bufferView":7,"componentType":5126,"count":88,"type":"VEC3","max":[1.32888174,1.32419062,0.567021132],"min":[-1.32888174,-3.95774841E-05,-0.567021251]},{"bufferView":7,"componentType":5126,"count":88,"type":"VEC3","byteOffset":12},{"bufferView":7,"componentType":5126,"count":88,"type":"VEC4","byteOffset":24},{"bufferView":7,"componentType":5126,"count":88,"type":"VEC2","byteOffset":40},{"bufferView":7,"componentType":5126,"count":88,"type":"VEC2","byteOffset":48},{"bufferView":6,"componentType":5123,"count":150,"type":"SCALAR"},{"bufferView":9,"componentType":5126,"count":24,"type":"VEC3","max":[4.00000048,1.5,1.5],"min":[-3.99999952,-1.5,-1.5]},{"bufferView":9,"componentType":5126,"count":24,"type":"VEC3","byteOffset":12},{"bufferView":9,"componentType":5126,"count":24,"type":"VEC4","byteOffset":24},{"bufferView":9,"componentType":5126,"count":24,"type":"VEC2","byteOffset":40},{"bufferView":9,"componentType":5126,"count":24,"type":"VEC2","byteOffset":48},{"bufferView":8,"componentType":5123,"count":36,"type":"SCALAR"},{"bufferView":11,"componentType":5126,"count":312,"type":"VEC3","max":[2.2977,2.1567688,1.60392356],"min":[-2.297701,0.00162410736,-1.60392332]},{"bufferView":11,"componentType":5126,"count":312,"type":"VEC3","byteOffset":12},{"bufferView":11,"componentType":5126,"count":312,"type":"VEC4","byteOffset":24},{"bufferView":11,"componentType":5126,"count":312,"type":"VEC2","byteOffset":40},{"bufferView":11,"componentType":5126,"count":312,"type":"VEC2","byteOffset":48},{"bufferView":10,"componentType":5123,"count":468,"type":"SCALAR"}],"images":[{"name":"Wooden_box_v1_NM.png","uri":"Wooden_box_v1_NM.png","mimeType":"image/png"},{"name":"Wooden_box_v1.jpg","uri":"Wooden_box_v1.jpg","mimeType":"image/jpeg"},{"name":"Dirty_cardboard_boxes_set1.jpg","uri":"Dirty_cardboard_boxes_set1.jpg","mimeType":"image/jpeg"},{"name":"Wooden_box_v2_NM.png","uri":"Wooden_box_v2_NM.png","mimeType":"image/png"},{"name":"Wooden_box_v2.jpg","uri":"Wooden_box_v2.jpg","mimeType":"image/jpeg"},{"name":"Cargo_container_v1.jpg","uri":"Cargo_container_v1.jpg","mimeType":"image/jpeg"},{"name":"Cargo_container_v3.jpg","uri":"Cargo_container_v3.jpg","mimeType":"image/jpeg"},{"name":"Cargo_container_v4.jpg","uri":"Cargo_container_v4.jpg","mimeType":"image/jpeg"}],"materials":[{"name":"Wooden_box_v1","pbrMetallicRoughness":{"metallicFactor":0,"baseColorTexture":{"index":1,"extensions":{"KHR_texture_transform":{"offset":[0,1],"scale":[1,-1]}}}},"normalTexture":{"index":0,"extensions":{"KHR_texture_transform":{"offset":[0,1],"scale":[1,-1]}}}},{"name":"Dirty_cardboard_boxes_set1","pbrMetallicRoughness":{"metallicFactor":0,"baseColorTexture":{"index":2,"extensions":{"KHR_texture_transform":{"offset":[0,1],"scale":[1,-1]}}}}},{"name":"Wooden_box_v2","pbrMetallicRoughness":{"metallicFactor":0,"baseColorTexture":{"index":4,"extensions":{"KHR_texture_transform":{"offset":[0,1],"scale":[1,-1]}}}},"normalTexture":{"index":3,"extensions":{"KHR_texture_transform":{"offset":[0,1],"scale":[1,-1]}}}},{"name":"Cargo_container_v1","pbrMetallicRoughness":{"metallicFactor":0,"baseColorTexture":{"index":5,"extensions":{"KHR_texture_transform":{"offset":[0,1],"scale":[1,-1]}}}}},{"name":"Cargo_container_v3","pbrMetallicRoughness":{"metallicFactor":0,"baseColorTexture":{"index":6,"extensions":{"KHR_texture_transform":{"offset":[0,1],"scale":[1,-1]}}}}},{"name":"Cargo_container_v4","pbrMetallicRoughness":{"metallicFactor":0,"baseColorTexture":{"index":7,"extensions":{"KHR_texture_transform":{"offset":[0,1],"scale":[1,-1]}}}}}],"meshes":[{"name":"Wooden_box_v1_LD1_SET1","primitives":[{"attributes":{"POSITION":0,"NORMAL":1,"TANGENT":2,"TEXCOORD_0":3,"TEXCOORD_1":4},"indices":5,"material":0}]},{"name":"Dirty_cardboard_box_set3","primitives":[{"attributes":{"POSITION":6,"NORMAL":7,"TANGENT":8,"TEXCOORD_0":9,"TEXCOORD_1":10},"indices":11,"material":1}]},{"name":"Wooden_box_v2_1","primitives":[{"attributes":{"POSITION":12,"NORMAL":13,"TANGENT":14,"TEXCOORD_0":15,"TEXCOORD_1":16},"indices":17,"material":2}]},{"name":"Wooden_box_v2_2","primitives":[{"attributes":{"POSITION":18,"NORMAL":19,"TANGENT":20,"TEXCOORD_0":21,"TEXCOORD_1":22},"indices":23,"material":2}]},{"name":"Cargo_container_v1_LD1close","primitives":[{"attributes":{"POSITION":24,"NORMAL":25,"TANGENT":26,"TEXCOORD_0":27,"TEXCOORD_1":28},"indices":29,"material":3}]},{"name":"Wooden_box_v1_LD1_SET5","primitives":[{"attributes":{"POSITION":30,"NORMAL":31,"TANGENT":32,"TEXCOORD_0":33,"TEXCOORD_1":34},"indices":35,"material":0}]},{"name":"Cargo_container_v1_LD1close","primitives":[{"attributes":{"POSITION":24,"NORMAL":25,"TANGENT":26,"TEXCOORD_0":27,"TEXCOORD_1":28},"indices":29,"material":4}]},{"name":"Cargo_container_v1_LD1close","primitives":[{"attributes":{"POSITION":24,"NORMAL":25,"TANGENT":26,"TEXCOORD_0":27,"TEXCOORD_1":28},"indices":29,"material":5}]}],"scene":0,"scenes":[{"name":"MS98(Clone)","nodes":[7]}],"textures":[{"source":0},{"source":1},{"source":2},{"source":3},{"source":4},{"source":5},{"source":6},{"source":7}]}