{"asset":{"version":"2.0","generator":"Unity 2021.3.22f1 glTFast 4.8.3","lastModified":"06-07-2023 05:57:39","assetVersion":"1.0","expiryToken":1},"nodes":[{"name":"Floor_Part_01","mesh":0,"translation":[-0.006477044,1.020558,9.117623]},{"name":"Floor_Part_02","mesh":1,"translation":[-0.00179574394,1.43348491,-1.57354784]},{"name":"Floor_Part_03","mesh":2,"translation":[0,0.737722,11.1546917]},{"name":"Floor_Part_04","mesh":3,"translation":[0,1.43348527,9.417426]},{"name":"Floor_Part_05","mesh":4,"translation":[0,1.90897942,4.477356]},{"name":"Floor_Part_06","mesh":5,"translation":[0,1.7815882,-1.582034]},{"name":"Floor_Part_07","mesh":6,"translation":[0.0514794923,2.48204184,-1.638138]},{"name":"Floor_02(Clone)","children":[0,1,2,3,4,5,6]}],"extensionsRequired":["KHR_texture_transform"],"extensionsUsed":["KHR_texture_transform"],"buffers":[{"uri":"Floor_02.bin","byteLength":133980}],"bufferViews":[{"buffer":0,"byteLength":2952},{"buffer":0,"byteLength":20400,"byteOffset":2952,"byteStride":48},{"buffer":0,"byteLength":3852,"byteOffset":23352},{"buffer":0,"byteLength":35712,"byteOffset":27204,"byteStride":48},{"buffer":0,"byteLength":1296,"byteOffset":62916},{"buffer":0,"byteLength":9216,"byteOffset":64212,"byteStride":48},{"buffer":0,"byteLength":2160,"byteOffset":73428},{"buffer":0,"byteLength":12672,"byteOffset":75588,"byteStride":48},{"buffer":0,"byteLength":648,"byteOffset":88260},{"buffer":0,"byteLength":4416,"byteOffset":88908,"byteStride":48},{"buffer":0,"byteLength":3888,"byteOffset":93324},{"buffer":0,"byteLength":27648,"byteOffset":97212,"byteStride":48},{"buffer":0,"byteLength":960,"byteOffset":124860},{"buffer":0,"byteLength":8160,"byteOffset":125820,"byteStride":48}],"accessors":[{"bufferView":1,"componentType":5126,"count":425,"type":"VEC3","max":[4.887308,0.969907939,1.52557945],"min":[-4.887308,-0.969907939,-1.525579]},{"bufferView":1,"componentType":5126,"count":425,"type":"VEC3","byteOffset":12},{"bufferView":1,"componentType":5126,"count":425,"type":"VEC4","byteOffset":24},{"bufferView":1,"componentType":5126,"count":425,"type":"VEC2","byteOffset":40},{"bufferView":0,"componentType":5123,"count":1476,"type":"SCALAR"},{"bufferView":3,"componentType":5126,"count":744,"type":"VEC3","max":[10.8011141,1.43348646,9.384319],"min":[-10.8011141,-1.43348646,-9.384319]},{"bufferView":3,"componentType":5126,"count":744,"type":"VEC3","byteOffset":12},{"bufferView":3,"componentType":5126,"count":744,"type":"VEC4","byteOffset":24},{"bufferView":3,"componentType":5126,"count":744,"type":"VEC2","byteOffset":40},{"bufferView":2,"componentType":5123,"count":120,"type":"SCALAR"},{"bufferView":2,"componentType":5123,"count":90,"type":"SCALAR","byteOffset":240},{"bufferView":2,"componentType":5123,"count":402,"type":"SCALAR","byteOffset":420},{"bufferView":2,"componentType":5123,"count":720,"type":"SCALAR","byteOffset":1224},{"bufferView":2,"componentType":5123,"count":108,"type":"SCALAR","byteOffset":2664},{"bufferView":2,"componentType":5123,"count":108,"type":"SCALAR","byteOffset":2880},{"bufferView":2,"componentType":5123,"count":108,"type":"SCALAR","byteOffset":3096},{"bufferView":2,"componentType":5123,"count":108,"type":"SCALAR","byteOffset":3312},{"bufferView":2,"componentType":5123,"count":162,"type":"SCALAR","byteOffset":3528},{"bufferView":5,"componentType":5126,"count":192,"type":"VEC3","max":[5.402045,0.737722933,0.338118285],"min":[-5.402045,-0.737722933,-0.338118285]},{"bufferView":5,"componentType":5126,"count":192,"type":"VEC3","byteOffset":12},{"bufferView":5,"componentType":5126,"count":192,"type":"VEC4","byteOffset":24},{"bufferView":5,"componentType":5126,"count":192,"type":"VEC2","byteOffset":40},{"bufferView":4,"componentType":5123,"count":648,"type":"SCALAR"},{"bufferView":7,"componentType":5126,"count":264,"type":"VEC3","max":[5.31921053,1.4334861,1.79638362],"min":[-5.31921053,-1.4334861,-1.79638362]},{"bufferView":7,"componentType":5126,"count":264,"type":"VEC3","byteOffset":12},{"bufferView":7,"componentType":5126,"count":264,"type":"VEC4","byteOffset":24},{"bufferView":7,"componentType":5126,"count":264,"type":"VEC2","byteOffset":40},{"bufferView":6,"componentType":5123,"count":1080,"type":"SCALAR"},{"bufferView":9,"componentType":5126,"count":92,"type":"VEC3","max":[1.5000639,0.155008,1.50006449],"min":[-1.5000639,-0.155008,-1.50006449]},{"bufferView":9,"componentType":5126,"count":92,"type":"VEC3","byteOffset":12},{"bufferView":9,"componentType":5126,"count":92,"type":"VEC4","byteOffset":24},{"bufferView":9,"componentType":5126,"count":92,"type":"VEC2","byteOffset":40},{"bufferView":8,"componentType":5123,"count":270,"type":"SCALAR"},{"bufferView":8,"componentType":5123,"count":54,"type":"SCALAR","byteOffset":540},{"bufferView":11,"componentType":5126,"count":576,"type":"VEC3","max":[11.0334044,1.7815901,9.910776],"min":[-11.0334044,-1.7815901,-9.910776]},{"bufferView":11,"componentType":5126,"count":576,"type":"VEC3","byteOffset":12},{"bufferView":11,"componentType":5126,"count":576,"type":"VEC4","byteOffset":24},{"bufferView":11,"componentType":5126,"count":576,"type":"VEC2","byteOffset":40},{"bufferView":10,"componentType":5123,"count":1944,"type":"SCALAR"},{"bufferView":13,"componentType":5126,"count":170,"type":"VEC3","max":[10.9503317,0.326129079,9.635061],"min":[-10.9503317,-0.326129079,-9.635061]},{"bufferView":13,"componentType":5126,"count":170,"type":"VEC3","byteOffset":12},{"bufferView":13,"componentType":5126,"count":170,"type":"VEC4","byteOffset":24},{"bufferView":13,"componentType":5126,"count":170,"type":"VEC2","byteOffset":40},{"bufferView":12,"componentType":5123,"count":480,"type":"SCALAR"}],"images":[{"name":"RC_Marble_04_Normal.png","uri":"RC_Marble_04_Normal.png","mimeType":"image/png"},{"name":"RC_Marble_04_Base.jpg","uri":"RC_Marble_04_Base.jpg","mimeType":"image/jpeg"},{"name":"RC_Marble_04_AO.jpg","uri":"RC_Marble_04_AO.jpg","mimeType":"image/jpeg"},{"name":"RC_Wall_007_Normal.png","uri":"RC_Wall_007_Normal.png","mimeType":"image/png"},{"name":"RC_Wall_007_Base.jpg","uri":"RC_Wall_007_Base.jpg","mimeType":"image/jpeg"},{"name":"RC_Wall_001_Normal.png","uri":"RC_Wall_001_Normal.png","mimeType":"image/png"},{"name":"RC_Wall_001_Base.jpg","uri":"RC_Wall_001_Base.jpg","mimeType":"image/jpeg"},{"name":"RC_Floor_002_Normal.png","uri":"RC_Floor_002_Normal.png","mimeType":"image/png"},{"name":"RC_Floor_002_Colour.jpg","uri":"RC_Floor_002_Colour.jpg","mimeType":"image/jpeg"},{"name":"RC_Floor_002_AO.jpg","uri":"RC_Floor_002_AO.jpg","mimeType":"image/jpeg"},{"name":"RC_Pillars_Normal.png","uri":"RC_Pillars_Normal.png","mimeType":"image/png"},{"name":"RC_Pillar_Colour_03.jpg","uri":"RC_Pillar_Colour_03.jpg","mimeType":"image/jpeg"},{"name":"RC_Marble_08_Base.jpg","uri":"RC_Marble_08_Base.jpg","mimeType":"image/jpeg"},{"name":"RC_Marble_10_Normal.png","uri":"RC_Marble_10_Normal.png","mimeType":"image/png"},{"name":"RC_Marble_10_Base.jpg","uri":"RC_Marble_10_Base.jpg","mimeType":"image/jpeg"},{"name":"RC_Marble_09_Normal.png","uri":"RC_Marble_09_Normal.png","mimeType":"image/png"},{"name":"RC_Marble_09_Base.jpg","uri":"RC_Marble_09_Base.jpg","mimeType":"image/jpeg"},{"name":"RC_Wall_028_Normal.png","uri":"RC_Wall_028_Normal.png","mimeType":"image/png"},{"name":"RC_Wall_028_Base.jpg","uri":"RC_Wall_028_Base.jpg","mimeType":"image/jpeg"},{"name":"RC_Wall_034_Normal.png","uri":"RC_Wall_034_Normal.png","mimeType":"image/png"},{"name":"RC_Wall_034_Colour.jpg","uri":"RC_Wall_034_Colour.jpg","mimeType":"image/jpeg"},{"name":"RC_Pillars.jpg","uri":"RC_Pillars.jpg","mimeType":"image/jpeg"},{"name":"RC_Floor_37_Normal.png","uri":"RC_Floor_37_Normal.png","mimeType":"image/png"},{"name":"RC_Floor_37_Base.jpg","uri":"RC_Floor_37_Base.jpg","mimeType":"image/jpeg"}],"materials":[{"name":"RC_Small_Building_01_mat23","pbrMetallicRoughness":{"baseColorFactor":[0.952830136,0.952830136,0.952830136,1],"metallicFactor":0,"roughnessFactor":0.5,"baseColorTexture":{"index":1,"extensions":{"KHR_texture_transform":{"offset":[0,1],"scale":[5,-5]}}}},"normalTexture":{"index":0,"extensions":{"KHR_texture_transform":{"offset":[0,1],"scale":[1,-1]}}},"occlusionTexture":{"index":2,"extensions":{"KHR_texture_transform":{"offset":[0,1],"scale":[5,-5]}}}},{"name":"RC_Small_Building_02_mat18","pbrMetallicRoughness":{"baseColorFactor":[1,0.922120869,0.683962166,1],"metallicFactor":0.132,"roughnessFactor":0.5,"baseColorTexture":{"index":4,"extensions":{"KHR_texture_transform":{"offset":[0,0.65],"scale":[8.1,-20]}}}},"normalTexture":{"index":3,"extensions":{"KHR_texture_transform":{"offset":[0,1],"scale":[1,-1]}}}},{"name":"RC_Small_Building_02_mat23","pbrMetallicRoughness":{"metallicFactor":0.18,"roughnessFactor":0.849,"baseColorTexture":{"index":6,"extensions":{"KHR_texture_transform":{"offset":[0,1],"scale":[5,-5]}}}},"normalTexture":{"index":5,"extensions":{"KHR_texture_transform":{"offset":[0,1],"scale":[1,-1]}}}},{"name":"RC_Small_Building_02_mat16","pbrMetallicRoughness":{"metallicFactor":0.277,"roughnessFactor":0.648,"baseColorTexture":{"index":8,"extensions":{"KHR_texture_transform":{"offset":[0,1],"scale":[10,-10]}}}},"normalTexture":{"index":7,"extensions":{"KHR_texture_transform":{"offset":[0,1],"scale":[1,-1]}}},"occlusionTexture":{"index":9,"extensions":{"KHR_texture_transform":{"offset":[0,1],"scale":[10,-10]}}}},{"name":"RC_Small_Building_02_mat17","pbrMetallicRoughness":{"metallicFactor":0,"roughnessFactor":0.5,"baseColorTexture":{"index":11,"extensions":{"KHR_texture_transform":{"offset":[0,1],"scale":[1,-1]}}}},"normalTexture":{"index":10,"extensions":{"KHR_texture_transform":{"offset":[0,1],"scale":[1,-1]}}}},{"name":"RC_Small_Building_02_mat26","pbrMetallicRoughness":{"metallicFactor":0,"roughnessFactor":0.5,"baseColorTexture":{"index":12,"extensions":{"KHR_texture_transform":{"offset":[0,-1.3],"scale":[10,-10]}}}}},{"name":"RC_Small_Building_02_mat22","pbrMetallicRoughness":{"baseColorFactor":[0.952830136,0.903416455,0.7505785,1],"metallicFactor":0.369,"roughnessFactor":0.677,"baseColorTexture":{"index":14,"extensions":{"KHR_texture_transform":{"offset":[1,-2],"scale":[4,-4]}}}},"normalTexture":{"index":13,"extensions":{"KHR_texture_transform":{"offset":[0,1],"scale":[1,-1]}}}},{"name":"RC_Small_Building_02_mat20","pbrMetallicRoughness":{"metallicFactor":0,"roughnessFactor":0.5,"baseColorTexture":{"index":16,"extensions":{"KHR_texture_transform":{"offset":[0,1],"scale":[5,-5]}}}},"normalTexture":{"index":15,"extensions":{"KHR_texture_transform":{"offset":[0,1],"scale":[1,-1]}}}},{"name":"RC_Small_Building_02_mat21","pbrMetallicRoughness":{"baseColorFactor":[0.9622641,0.9074571,0.739854038,1],"metallicFactor":0,"roughnessFactor":0.5,"baseColorTexture":{"index":1,"extensions":{"KHR_texture_transform":{"offset":[0,1],"scale":[1,-1]}}}},"normalTexture":{"index":0,"extensions":{"KHR_texture_transform":{"offset":[0,1],"scale":[1,-1]}}},"occlusionTexture":{"index":2,"extensions":{"KHR_texture_transform":{"offset":[0,1],"scale":[1,-1]}}}},{"name":"RC_Small_Building_02_mat28","pbrMetallicRoughness":{"metallicFactor":0,"roughnessFactor":0.5,"baseColorTexture":{"index":18,"extensions":{"KHR_texture_transform":{"offset":[0,1],"scale":[5,-5]}}}},"normalTexture":{"index":17,"extensions":{"KHR_texture_transform":{"offset":[0,1],"scale":[1,-1]}}}},{"name":"RC_Small_Building_02_mat27","pbrMetallicRoughness":{"baseColorFactor":[0.990565956,0.966933548,0.714889646,1],"metallicFactor":0,"roughnessFactor":0.5,"baseColorTexture":{"index":20,"extensions":{"KHR_texture_transform":{"offset":[0,1],"scale":[5,-5]}}}},"normalTexture":{"index":19,"extensions":{"KHR_texture_transform":{"offset":[0,1],"scale":[1,-1]}}}},{"name":"RC_Small_Building_02_mat30","pbrMetallicRoughness":{"baseColorFactor":[1,0.7353569,0.7353569,1],"metallicFactor":0,"roughnessFactor":0.5,"baseColorTexture":{"index":21,"extensions":{"KHR_texture_transform":{"offset":[0,1],"scale":[5,-5]}}}},"normalTexture":{"index":10,"extensions":{"KHR_texture_transform":{"offset":[0,1],"scale":[1,-1]}}}},{"name":"RC_Small_Building_02_mat29","pbrMetallicRoughness":{"metallicFactor":0.369,"roughnessFactor":0.433000028,"baseColorTexture":{"index":23,"extensions":{"KHR_texture_transform":{"offset":[0,1],"scale":[1,-1]}}}},"normalTexture":{"index":22,"extensions":{"KHR_texture_transform":{"offset":[0,1],"scale":[1,-1]}}}},{"name":"RC_Small_Building_02_mat5","pbrMetallicRoughness":{"metallicFactor":0,"roughnessFactor":0.5,"baseColorTexture":{"index":18,"extensions":{"KHR_texture_transform":{"offset":[0,1],"scale":[5,-5]}}}},"normalTexture":{"index":17,"extensions":{"KHR_texture_transform":{"offset":[0,1],"scale":[1,-1]}}}},{"name":"RC_Small_Building_02_mat19","pbrMetallicRoughness":{"metallicFactor":0,"roughnessFactor":0.5,"baseColorTexture":{"index":21,"extensions":{"KHR_texture_transform":{"offset":[0,1],"scale":[5,-5]}}}},"normalTexture":{"index":10,"extensions":{"KHR_texture_transform":{"offset":[0,1],"scale":[1,-1]}}}}],"meshes":[{"name":"Floor_Part_01","primitives":[{"attributes":{"POSITION":0,"NORMAL":1,"TANGENT":2,"TEXCOORD_0":3},"indices":4,"material":0}]},{"name":"Floor_Part_02","primitives":[{"attributes":{"POSITION":5,"NORMAL":6,"TANGENT":7,"TEXCOORD_0":8},"indices":9,"material":1},{"attributes":{"POSITION":5,"NORMAL":6,"TANGENT":7,"TEXCOORD_0":8},"indices":10,"material":2},{"attributes":{"POSITION":5,"NORMAL":6,"TANGENT":7,"TEXCOORD_0":8},"indices":11,"material":3},{"attributes":{"POSITION":5,"NORMAL":6,"TANGENT":7,"TEXCOORD_0":8},"indices":12,"material":4},{"attributes":{"POSITION":5,"NORMAL":6,"TANGENT":7,"TEXCOORD_0":8},"indices":13,"material":5},{"attributes":{"POSITION":5,"NORMAL":6,"TANGENT":7,"TEXCOORD_0":8},"indices":14,"material":6},{"attributes":{"POSITION":5,"NORMAL":6,"TANGENT":7,"TEXCOORD_0":8},"indices":15,"material":7},{"attributes":{"POSITION":5,"NORMAL":6,"TANGENT":7,"TEXCOORD_0":8},"indices":16,"material":8},{"attributes":{"POSITION":5,"NORMAL":6,"TANGENT":7,"TEXCOORD_0":8},"indices":17,"material":0}]},{"name":"Floor_Part_03","primitives":[{"attributes":{"POSITION":18,"NORMAL":19,"TANGENT":20,"TEXCOORD_0":21},"indices":22,"material":9}]},{"name":"Floor_Part_04","primitives":[{"attributes":{"POSITION":23,"NORMAL":24,"TANGENT":25,"TEXCOORD_0":26},"indices":27,"material":10}]},{"name":"Floor_Part_05","primitives":[{"attributes":{"POSITION":28,"NORMAL":29,"TANGENT":30,"TEXCOORD_0":31},"indices":32,"material":11},{"attributes":{"POSITION":28,"NORMAL":29,"TANGENT":30,"TEXCOORD_0":31},"indices":33,"material":12}]},{"name":"Floor_Part_06","primitives":[{"attributes":{"POSITION":34,"NORMAL":35,"TANGENT":36,"TEXCOORD_0":37},"indices":38,"material":13}]},{"name":"Floor_Part_07","primitives":[{"attributes":{"POSITION":39,"NORMAL":40,"TANGENT":41,"TEXCOORD_0":42},"indices":43,"material":14}]}],"scene":0,"scenes":[{"name":"Floor_02(Clone)","nodes":[7]}],"textures":[{"source":0},{"source":1},{"source":2},{"source":3},{"source":4},{"source":5},{"source":6},{"source":7},{"source":8},{"source":9},{"source":10},{"source":11},{"source":12},{"source":13},{"source":14},{"source":15},{"source":16},{"source":17},{"source":18},{"source":19},{"source":20},{"source":21},{"source":22},{"source":23}]}