{"asset":{"version":"2.0","generator":"Unity 2021.3.22f1 glTFast 4.8.3","lastModified":"13-05-2023 09:32:49","assetVersion":"1.0","expiryToken":1},"nodes":[{"name":"Mountains_v1_p4_6(Clone)","mesh":0}],"extensionsRequired":["KHR_texture_transform"],"extensionsUsed":["KHR_texture_transform"],"buffers":[{"uri":"Mountains_v1_p4_6.bin","byteLength":4444}],"bufferViews":[{"buffer":0,"byteLength":300},{"buffer":0,"byteLength":4144,"byteOffset":300,"byteStride":56}],"accessors":[{"bufferView":1,"componentType":5126,"count":74,"type":"VEC3","max":[0.81552887,0.6560788,0.949638367],"min":[-0.81552887,-0.254727364,-0.949638367]},{"bufferView":1,"componentType":5126,"count":74,"type":"VEC3","byteOffset":12},{"bufferView":1,"componentType":5126,"count":74,"type":"VEC4","byteOffset":24},{"bufferView":1,"componentType":5126,"count":74,"type":"VEC2","byteOffset":40},{"bufferView":1,"componentType":5126,"count":74,"type":"VEC2","byteOffset":48},{"bufferView":0,"componentType":5123,"count":150,"type":"SCALAR"}],"images":[{"name":"Mountains_v1_p4_NM.png","uri":"Mountains_v1_p4_NM.png","mimeType":"image/png"},{"name":"Mountains_v1_p4_s2.png","uri":"Mountains_v1_p4_s2.png","mimeType":"image/png"}],"materials":[{"name":"Mountains_v1_p4","pbrMetallicRoughness":{"metallicFactor":0,"baseColorTexture":{"index":1,"extensions":{"KHR_texture_transform":{"offset":[0,1],"scale":[1,-1]}}}},"normalTexture":{"index":0,"extensions":{"KHR_texture_transform":{"offset":[0,1],"scale":[1,-1]}}}}],"meshes":[{"name":"Mountains_v1_p4_6","primitives":[{"attributes":{"POSITION":0,"NORMAL":1,"TANGENT":2,"TEXCOORD_0":3,"TEXCOORD_1":4},"indices":5,"material":0}]}],"scene":0,"scenes":[{"name":"Mountains_v1_p4_6(Clone)","nodes":[0]}],"textures":[{"source":0},{"source":1}]}