{"asset":{"version":"2.0","generator":"Unity 2021.3.22f1 glTFast 4.8.3","lastModified":"06-07-2023 06:23:51","assetVersion":"1.0","expiryToken":1},"nodes":[{"name":"RC_Door_01_Frame","mesh":0,"translation":[0,1.43857741,0]},{"name":"RC_Door_01_Left","mesh":1,"translation":[-1.533065,0.93595916,-0.002838956]},{"name":"RC_Door_01_Right","mesh":2,"translation":[1.53201067,0.9325405,-0.0009386824]},{"name":"RC_Door_05(Clone)","children":[0,1,2]}],"extensionsRequired":["KHR_texture_transform"],"extensionsUsed":["KHR_texture_transform"],"buffers":[{"uri":"RC_Door_05.bin","byteLength":449736}],"bufferViews":[{"buffer":0,"byteLength":1080},{"buffer":0,"byteLength":12096,"byteOffset":1080,"byteStride":48},{"buffer":0,"byteLength":27336,"byteOffset":13176},{"buffer":0,"byteLength":190944,"byteOffset":40512,"byteStride":48},{"buffer":0,"byteLength":27336,"byteOffset":231456},{"buffer":0,"byteLength":190944,"byteOffset":258792,"byteStride":48}],"accessors":[{"bufferView":1,"componentType":5126,"count":252,"type":"VEC3","max":[1.76552522,1.435074,0.224594712],"min":[-1.76552522,-1.435074,-0.224594414]},{"bufferView":1,"componentType":5126,"count":252,"type":"VEC3","byteOffset":12},{"bufferView":1,"componentType":5126,"count":252,"type":"VEC4","byteOffset":24},{"bufferView":1,"componentType":5126,"count":252,"type":"VEC2","byteOffset":40},{"bufferView":0,"componentType":5123,"count":540,"type":"SCALAR"},{"bufferView":3,"componentType":5126,"count":3978,"type":"VEC3","max":[1.53613913,1.6904428,0.131836146],"min":[0.0002939701,-0.9377222,-0.126158535]},{"bufferView":3,"componentType":5126,"count":3978,"type":"VEC3","byteOffset":12},{"bufferView":3,"componentType":5126,"count":3978,"type":"VEC4","byteOffset":24},{"bufferView":3,"componentType":5126,"count":3978,"type":"VEC2","byteOffset":40},{"bufferView":2,"componentType":5123,"count":2640,"type":"SCALAR"},{"bufferView":2,"componentType":5123,"count":8160,"type":"SCALAR","byteOffset":5280},{"bufferView":2,"componentType":5123,"count":960,"type":"SCALAR","byteOffset":21600},{"bufferView":2,"componentType":5123,"count":1908,"type":"SCALAR","byteOffset":23520},{"bufferView":5,"componentType":5126,"count":3978,"type":"VEC3","max":[-0.0008546114,1.69386148,0.129935876],"min":[-1.53669977,-0.9343035,-0.1280588]},{"bufferView":5,"componentType":5126,"count":3978,"type":"VEC3","byteOffset":12},{"bufferView":5,"componentType":5126,"count":3978,"type":"VEC4","byteOffset":24},{"bufferView":5,"componentType":5126,"count":3978,"type":"VEC2","byteOffset":40},{"bufferView":4,"componentType":5123,"count":8160,"type":"SCALAR"},{"bufferView":4,"componentType":5123,"count":2640,"type":"SCALAR","byteOffset":16320},{"bufferView":4,"componentType":5123,"count":960,"type":"SCALAR","byteOffset":21600},{"bufferView":4,"componentType":5123,"count":1908,"type":"SCALAR","byteOffset":23520}],"images":[{"name":"RC_Marble_001_Normal.png","uri":"RC_Marble_001_Normal.png","mimeType":"image/png"},{"name":"RC_Marble_001_Base.jpg","uri":"RC_Marble_001_Base.jpg","mimeType":"image/jpeg"},{"name":"RC_Metal_02_Normal.png","uri":"RC_Metal_02_Normal.png","mimeType":"image/png"},{"name":"RC_Metal_02_Base.jpg","uri":"RC_Metal_02_Base.jpg","mimeType":"image/jpeg"},{"name":"RC_Metal_01_Normal.png","uri":"RC_Metal_01_Normal.png","mimeType":"image/png"},{"name":"RC_Metal_01_Base.jpg","uri":"RC_Metal_01_Base.jpg","mimeType":"image/jpeg"},{"name":"RC_Wood_06_Normal.png","uri":"RC_Wood_06_Normal.png","mimeType":"image/png"},{"name":"RC_Wood_06_Base.jpg","uri":"RC_Wood_06_Base.jpg","mimeType":"image/jpeg"},{"name":"RC_Wood_002_Normal.png","uri":"RC_Wood_002_Normal.png","mimeType":"image/png"},{"name":"RC_Wood_002_AO.jpg","uri":"RC_Wood_002_AO.jpg","mimeType":"image/jpeg"}],"materials":[{"name":"RC_Door_01_Frame_mat","pbrMetallicRoughness":{"baseColorFactor":[0.2636614,0.593452632,0.7075471,1],"metallicFactor":0.434,"roughnessFactor":0.655,"baseColorTexture":{"index":1,"extensions":{"KHR_texture_transform":{"offset":[0,1],"scale":[3,-3]}}}},"normalTexture":{"index":0,"extensions":{"KHR_texture_transform":{"offset":[0,1],"scale":[1,-1]}}}},{"name":"RC_Door_01_Left_mat1","pbrMetallicRoughness":{"baseColorFactor":[0.6698113,0.660332859,0.660332859,1],"metallicFactor":0.494,"roughnessFactor":0.571,"baseColorTexture":{"index":3,"extensions":{"KHR_texture_transform":{"offset":[0,1],"scale":[5,-5]}}}},"normalTexture":{"index":2,"extensions":{"KHR_texture_transform":{"offset":[0,1],"scale":[1,-1]}}}},{"name":"RC_Door_01_Left_mat3","pbrMetallicRoughness":{"baseColorFactor":[1,0.766634941,0,1],"metallicFactor":0.53,"roughnessFactor":0.567000031,"baseColorTexture":{"index":5,"extensions":{"KHR_texture_transform":{"offset":[0,1],"scale":[8,-8]}}}},"normalTexture":{"index":4,"extensions":{"KHR_texture_transform":{"offset":[0,1],"scale":[1,-1]}}}},{"name":"RC_Door_01_Left_mat2","pbrMetallicRoughness":{"baseColorFactor":[1,0.9328571,0.8537736,1],"metallicFactor":0.557,"roughnessFactor":0.985,"baseColorTexture":{"index":7,"extensions":{"KHR_texture_transform":{"offset":[0,1],"scale":[10,-10]}}}},"normalTexture":{"index":6,"extensions":{"KHR_texture_transform":{"offset":[0,1],"scale":[1,-1]}},"scale":2}},{"name":"RC_Door_01_Left_mat","pbrMetallicRoughness":{"baseColorFactor":[0.6320754,0.373632461,0.253426433,1],"metallicFactor":0.36,"roughnessFactor":0.913,"baseColorTexture":{"index":9,"extensions":{"KHR_texture_transform":{"offset":[0,0.63],"scale":[15,-15]}}}},"normalTexture":{"index":8,"extensions":{"KHR_texture_transform":{"offset":[0,1],"scale":[1,-1]}}}}],"meshes":[{"name":"RC_Door_01_Frame","primitives":[{"attributes":{"POSITION":0,"NORMAL":1,"TANGENT":2,"TEXCOORD_0":3},"indices":4,"material":0}]},{"name":"RC_Door_01_Left","primitives":[{"attributes":{"POSITION":5,"NORMAL":6,"TANGENT":7,"TEXCOORD_0":8},"indices":9,"material":1},{"attributes":{"POSITION":5,"NORMAL":6,"TANGENT":7,"TEXCOORD_0":8},"indices":10,"material":2},{"attributes":{"POSITION":5,"NORMAL":6,"TANGENT":7,"TEXCOORD_0":8},"indices":11,"material":3},{"attributes":{"POSITION":5,"NORMAL":6,"TANGENT":7,"TEXCOORD_0":8},"indices":12,"material":4}]},{"name":"RC_Door_01_Right","primitives":[{"attributes":{"POSITION":13,"NORMAL":14,"TANGENT":15,"TEXCOORD_0":16},"indices":17,"material":2},{"attributes":{"POSITION":13,"NORMAL":14,"TANGENT":15,"TEXCOORD_0":16},"indices":18,"material":1},{"attributes":{"POSITION":13,"NORMAL":14,"TANGENT":15,"TEXCOORD_0":16},"indices":19,"material":3},{"attributes":{"POSITION":13,"NORMAL":14,"TANGENT":15,"TEXCOORD_0":16},"indices":20,"material":4}]}],"scene":0,"scenes":[{"name":"RC_Door_05(Clone)","nodes":[3]}],"textures":[{"source":0},{"source":1},{"source":2},{"source":3},{"source":4},{"source":5},{"source":6},{"source":7},{"source":8},{"source":9}]}