{"asset":{"version":"2.0","generator":"Unity 2021.3.22f1 glTFast 4.8.3","lastModified":"06-07-2023 06:14:16","assetVersion":"1.0","expiryToken":1},"nodes":[{"name":"RC_Small_Building_10_Fence_01(Clone)","mesh":0}],"extensionsRequired":["KHR_texture_transform"],"extensionsUsed":["KHR_texture_transform"],"buffers":[{"uri":"RC_Small_Building_10_Fence_01.bin","byteLength":36072}],"bufferViews":[{"buffer":0,"byteLength":4680},{"buffer":0,"byteLength":31392,"byteOffset":4680,"byteStride":48}],"accessors":[{"bufferView":1,"componentType":5126,"count":654,"type":"VEC3","max":[0.883211,0.8485095,0.03529663],"min":[-0.8832114,-0.00117856264,-0.03529663]},{"bufferView":1,"componentType":5126,"count":654,"type":"VEC3","byteOffset":12},{"bufferView":1,"componentType":5126,"count":654,"type":"VEC4","byteOffset":24},{"bufferView":1,"componentType":5126,"count":654,"type":"VEC2","byteOffset":40},{"bufferView":0,"componentType":5123,"count":1368,"type":"SCALAR"},{"bufferView":0,"componentType":5123,"count":972,"type":"SCALAR","byteOffset":2736}],"images":[{"name":"RC_Wood_06_Normal.png","uri":"RC_Wood_06_Normal.png","mimeType":"image/png"},{"name":"RC_Wood_06_Base.jpg","uri":"RC_Wood_06_Base.jpg","mimeType":"image/jpeg"},{"name":"RC_Wood_07_Normal.png","uri":"RC_Wood_07_Normal.png","mimeType":"image/png"},{"name":"RC_Wood_07_Base.jpg","uri":"RC_Wood_07_Base.jpg","mimeType":"image/jpeg"}],"materials":[{"name":"RC_Small_Building_10_Fence_01_mat1","pbrMetallicRoughness":{"metallicFactor":0.644,"roughnessFactor":0.895,"baseColorTexture":{"index":1,"extensions":{"KHR_texture_transform":{"offset":[0,1],"scale":[5,-5]}}}},"normalTexture":{"index":0,"extensions":{"KHR_texture_transform":{"offset":[0,1],"scale":[1,-1]}}}},{"name":"RC_Small_Building_10_Fence_01_mat2","pbrMetallicRoughness":{"baseColorFactor":[1,0.730188668,0.730188668,1],"metallicFactor":0.456,"roughnessFactor":0.909999967,"baseColorTexture":{"index":3,"extensions":{"KHR_texture_transform":{"offset":[0,1],"scale":[5,-5]}}}},"normalTexture":{"index":2,"extensions":{"KHR_texture_transform":{"offset":[0,1],"scale":[1,-1]}}}}],"meshes":[{"name":"RC_Small_Building_10_Fence_01","primitives":[{"attributes":{"POSITION":0,"NORMAL":1,"TANGENT":2,"TEXCOORD_0":3},"indices":4,"material":0},{"attributes":{"POSITION":0,"NORMAL":1,"TANGENT":2,"TEXCOORD_0":3},"indices":5,"material":1}]}],"scene":0,"scenes":[{"name":"RC_Small_Building_10_Fence_01(Clone)","nodes":[0]}],"textures":[{"source":0},{"source":1},{"source":2},{"source":3}]}