{"asset":{"version":"2.0","generator":"Unity 2021.3.22f1 glTFast 4.8.3","lastModified":"13-05-2023 09:32:03","assetVersion":"1.0","expiryToken":1},"nodes":[{"name":"Mountains_v1_p3_1(Clone)","mesh":0}],"extensionsRequired":["KHR_texture_transform"],"extensionsUsed":["KHR_texture_transform"],"buffers":[{"uri":"Mountains_v1_p3_1.bin","byteLength":105380}],"bufferViews":[{"buffer":0,"byteLength":11244},{"buffer":0,"byteLength":94136,"byteOffset":11244,"byteStride":56}],"accessors":[{"bufferView":1,"componentType":5126,"count":1681,"type":"VEC3","max":[24.5393,15.2423325,11.941124],"min":[-24.5393,-0.5745487,-11.9411163]},{"bufferView":1,"componentType":5126,"count":1681,"type":"VEC3","byteOffset":12},{"bufferView":1,"componentType":5126,"count":1681,"type":"VEC4","byteOffset":24},{"bufferView":1,"componentType":5126,"count":1681,"type":"VEC2","byteOffset":40},{"bufferView":1,"componentType":5126,"count":1681,"type":"VEC2","byteOffset":48},{"bufferView":0,"componentType":5123,"count":5622,"type":"SCALAR"}],"images":[{"name":"Mountains_v1_p3_NM.png","uri":"Mountains_v1_p3_NM.png","mimeType":"image/png"},{"name":"Mountains_v1_p3_s2.jpg","uri":"Mountains_v1_p3_s2.jpg","mimeType":"image/jpeg"}],"materials":[{"name":"Mountains_v1_p3","pbrMetallicRoughness":{"metallicFactor":0,"baseColorTexture":{"index":1,"extensions":{"KHR_texture_transform":{"offset":[0,1],"scale":[1,-1]}}}},"normalTexture":{"index":0,"extensions":{"KHR_texture_transform":{"offset":[0,1],"scale":[1,-1]}}}}],"meshes":[{"name":"Mountains_v1_p3_1","primitives":[{"attributes":{"POSITION":0,"NORMAL":1,"TANGENT":2,"TEXCOORD_0":3,"TEXCOORD_1":4},"indices":5,"material":0}]}],"scene":0,"scenes":[{"name":"Mountains_v1_p3_1(Clone)","nodes":[0]}],"textures":[{"source":0},{"source":1}]}