{"asset":{"version":"2.0","generator":"Unity 2021.3.22f1 glTFast 4.8.3","lastModified":"06-07-2023 06:14:14","assetVersion":"1.0","expiryToken":1},"nodes":[{"name":"RC_Small_Building_10_Building_02(Clone)","mesh":0}],"extensionsRequired":["KHR_texture_transform"],"extensionsUsed":["KHR_texture_transform"],"buffers":[{"uri":"RC_Small_Building_10_Building_02.bin","byteLength":15336}],"bufferViews":[{"buffer":0,"byteLength":2232},{"buffer":0,"byteLength":13104,"byteOffset":2232,"byteStride":48}],"accessors":[{"bufferView":1,"componentType":5126,"count":273,"type":"VEC3","max":[1.56043482,4.407646,4.20034742],"min":[-1.56043482,-0.000228881836,-4.20034742]},{"bufferView":1,"componentType":5126,"count":273,"type":"VEC3","byteOffset":12},{"bufferView":1,"componentType":5126,"count":273,"type":"VEC4","byteOffset":24},{"bufferView":1,"componentType":5126,"count":273,"type":"VEC2","byteOffset":40},{"bufferView":0,"componentType":5123,"count":756,"type":"SCALAR"},{"bufferView":0,"componentType":5123,"count":360,"type":"SCALAR","byteOffset":1512}],"images":[{"name":"RC_Wood_07_Normal.png","uri":"RC_Wood_07_Normal.png","mimeType":"image/png"},{"name":"RC_Wood_07_Base.jpg","uri":"RC_Wood_07_Base.jpg","mimeType":"image/jpeg"},{"name":"RC_Wall.jpg","uri":"RC_Wall.jpg","mimeType":"image/jpeg"}],"materials":[{"name":"RC_Small_Building_10_Building_02_mat1","pbrMetallicRoughness":{"baseColorFactor":[1,0.9368421,0.9,1],"metallicFactor":0.52,"roughnessFactor":0.86,"baseColorTexture":{"index":1,"extensions":{"KHR_texture_transform":{"offset":[0,1],"scale":[5,-5]}}}},"normalTexture":{"index":0,"extensions":{"KHR_texture_transform":{"offset":[0,1],"scale":[1,-1]}}}},{"name":"RC_Small_Building_10_Building_02_mat2","pbrMetallicRoughness":{"baseColorFactor":[1,0.909042656,0.8039216,1],"metallicFactor":0.411,"roughnessFactor":0.926,"baseColorTexture":{"index":2,"extensions":{"KHR_texture_transform":{"offset":[0,0.86],"scale":[3,-3]}}}}}],"meshes":[{"name":"RC_Small_Building_10_Building_02","primitives":[{"attributes":{"POSITION":0,"NORMAL":1,"TANGENT":2,"TEXCOORD_0":3},"indices":4,"material":0},{"attributes":{"POSITION":0,"NORMAL":1,"TANGENT":2,"TEXCOORD_0":3},"indices":5,"material":1}]}],"scene":0,"scenes":[{"name":"RC_Small_Building_10_Building_02(Clone)","nodes":[0]}],"textures":[{"source":0},{"source":1},{"source":2}]}