{"asset":{"version":"2.0","generator":"Unity 2021.3.22f1 glTFast 4.8.3","lastModified":"06-07-2023 06:11:00","assetVersion":"1.0","expiryToken":1},"nodes":[{"name":"RC_Small_Building_04_Wall_01(Clone)","mesh":0}],"extensionsRequired":["KHR_texture_transform"],"extensionsUsed":["KHR_texture_transform"],"buffers":[{"uri":"RC_Small_Building_04_Wall_01.bin","byteLength":4464}],"bufferViews":[{"buffer":0,"byteLength":384},{"buffer":0,"byteLength":4080,"byteOffset":384,"byteStride":48}],"accessors":[{"bufferView":1,"componentType":5126,"count":85,"type":"VEC3","max":[0.89182353,2.47647858,2.468189],"min":[-0.891823769,0,-2.468189]},{"bufferView":1,"componentType":5126,"count":85,"type":"VEC3","byteOffset":12},{"bufferView":1,"componentType":5126,"count":85,"type":"VEC4","byteOffset":24},{"bufferView":1,"componentType":5126,"count":85,"type":"VEC2","byteOffset":40},{"bufferView":0,"componentType":5123,"count":192,"type":"SCALAR"}],"images":[{"name":"RC_Wall_002_Normal.png","uri":"RC_Wall_002_Normal.png","mimeType":"image/png"},{"name":"RC_Wall_38_Base.jpg","uri":"RC_Wall_38_Base.jpg","mimeType":"image/jpeg"}],"materials":[{"name":"RC_Small_Building_04_Wall_01_mat","pbrMetallicRoughness":{"baseColorFactor":[1,0.9490196,0.8,1],"metallicFactor":0.36,"roughnessFactor":0.897,"baseColorTexture":{"index":1,"extensions":{"KHR_texture_transform":{"offset":[0,0.97],"scale":[2,-2]}}}},"normalTexture":{"index":0,"extensions":{"KHR_texture_transform":{"offset":[0,1],"scale":[1,-1]}},"scale":0.2}}],"meshes":[{"name":"RC_Small_Building_04_Wall_01","primitives":[{"attributes":{"POSITION":0,"NORMAL":1,"TANGENT":2,"TEXCOORD_0":3},"indices":4,"material":0}]}],"scene":0,"scenes":[{"name":"RC_Small_Building_04_Wall_01(Clone)","nodes":[0]}],"textures":[{"source":0},{"source":1}]}