{"asset":{"version":"2.0","generator":"Unity 2021.3.22f1 glTFast 4.8.3","lastModified":"06-07-2023 06:26:11","assetVersion":"1.0","expiryToken":1},"nodes":[{"name":"RC_Hay_02(Clone)","mesh":0}],"extensionsRequired":["KHR_texture_transform"],"extensionsUsed":["KHR_texture_transform"],"buffers":[{"uri":"RC_Hay_02.bin","byteLength":4272}],"bufferViews":[{"buffer":0,"byteLength":768},{"buffer":0,"byteLength":3504,"byteOffset":768,"byteStride":48}],"accessors":[{"bufferView":1,"componentType":5126,"count":73,"type":"VEC3","max":[1.45477509,0.734217048,1.6742394],"min":[-1.02790761,-0.01293391,-1.296582]},{"bufferView":1,"componentType":5126,"count":73,"type":"VEC3","byteOffset":12},{"bufferView":1,"componentType":5126,"count":73,"type":"VEC4","byteOffset":24},{"bufferView":1,"componentType":5126,"count":73,"type":"VEC2","byteOffset":40},{"bufferView":0,"componentType":5123,"count":384,"type":"SCALAR"}],"images":[{"name":"RC_Ground_06_Normal.png","uri":"RC_Ground_06_Normal.png","mimeType":"image/png"},{"name":"RC_Ground_06_Colour.jpg","uri":"RC_Ground_06_Colour.jpg","mimeType":"image/jpeg"}],"materials":[{"name":"RC_Hay_02_mat","pbrMetallicRoughness":{"baseColorFactor":[1,0.9325156,0.5613207,1],"metallicFactor":0.163,"roughnessFactor":0.968,"baseColorTexture":{"index":1,"extensions":{"KHR_texture_transform":{"offset":[0,1],"scale":[2,-2]}}}},"normalTexture":{"index":0,"extensions":{"KHR_texture_transform":{"offset":[0,1],"scale":[1,-1]}}}}],"meshes":[{"name":"RC_Hay_02","primitives":[{"attributes":{"POSITION":0,"NORMAL":1,"TANGENT":2,"TEXCOORD_0":3},"indices":4,"material":0}]}],"scene":0,"scenes":[{"name":"RC_Hay_02(Clone)","nodes":[0]}],"textures":[{"source":0},{"source":1}]}