{"asset":{"version":"2.0","generator":"Unity 2021.3.22f1 glTFast 4.8.3","lastModified":"06-07-2023 06:25:28","assetVersion":"1.0","expiryToken":1},"nodes":[{"name":"RC_Garden_Wood_Railing(Clone)","mesh":0}],"extensionsRequired":["KHR_texture_transform"],"extensionsUsed":["KHR_texture_transform"],"buffers":[{"uri":"RC_Garden_Wood_Railing.bin","byteLength":67320}],"bufferViews":[{"buffer":0,"byteLength":3960},{"buffer":0,"byteLength":63360,"byteOffset":3960,"byteStride":48}],"accessors":[{"bufferView":1,"componentType":5126,"count":1320,"type":"VEC3","max":[3.6873498,0.9074435,0.0558630377],"min":[-3.6368947,-0.00120717287,-0.0550170839]},{"bufferView":1,"componentType":5126,"count":1320,"type":"VEC3","byteOffset":12},{"bufferView":1,"componentType":5126,"count":1320,"type":"VEC4","byteOffset":24},{"bufferView":1,"componentType":5126,"count":1320,"type":"VEC2","byteOffset":40},{"bufferView":0,"componentType":5123,"count":1836,"type":"SCALAR"},{"bufferView":0,"componentType":5123,"count":144,"type":"SCALAR","byteOffset":3672}],"images":[{"name":"RC_Wood_04_Normal.png","uri":"RC_Wood_04_Normal.png","mimeType":"image/png"},{"name":"RC_Wood_04_Base.jpg","uri":"RC_Wood_04_Base.jpg","mimeType":"image/jpeg"}],"materials":[{"name":"RC_Garden_Wood_Railing_mat","pbrMetallicRoughness":{"baseColorFactor":[0.745283,0.745283,0.745283,1],"metallicFactor":0,"roughnessFactor":0.937,"baseColorTexture":{"index":1,"extensions":{"KHR_texture_transform":{"offset":[0,1],"scale":[1,-1]}}}},"normalTexture":{"index":0,"extensions":{"KHR_texture_transform":{"offset":[0,1],"scale":[1,-1]}}}},{"name":"RC_Garden_Wood_Railing_mat1","pbrMetallicRoughness":{"baseColorFactor":[0.745283,0.745283,0.745283,1],"metallicFactor":0,"baseColorTexture":{"index":1,"extensions":{"KHR_texture_transform":{"offset":[0,1],"scale":[1,-1]}}}},"normalTexture":{"index":0,"extensions":{"KHR_texture_transform":{"offset":[0,1],"scale":[1,-1]}}}}],"meshes":[{"name":"RC_Garden_Wood_Railing","primitives":[{"attributes":{"POSITION":0,"NORMAL":1,"TANGENT":2,"TEXCOORD_0":3},"indices":4,"material":0},{"attributes":{"POSITION":0,"NORMAL":1,"TANGENT":2,"TEXCOORD_0":3},"indices":5,"material":1}]}],"scene":0,"scenes":[{"name":"RC_Garden_Wood_Railing(Clone)","nodes":[0]}],"textures":[{"source":0},{"source":1}]}