{"asset":{"version":"2.0","generator":"Unity 2021.3.22f1 glTFast 4.8.3","lastModified":"06-07-2023 06:29:54","assetVersion":"1.0","expiryToken":1},"nodes":[{"name":"RC_Market_Tent_04","mesh":0,"rotation":[2.18556941E-08,0,0,1]},{"name":"RC_Market_Table_04","mesh":1,"rotation":[2.18556941E-08,0,0,1]},{"name":"RC_Fish_02","mesh":2,"translation":[-1.134,1.003,-0.057],"rotation":[2.18556941E-08,0,0,1],"scale":[0.77019,0.77019,0.77019]},{"name":"RC_Fish_01","mesh":3,"translation":[1.166,1.00200009,0.198],"rotation":[2.18556941E-08,0,0,1],"scale":[0.6068096,0.6068096,0.6068096]},{"name":"RC_Fish_011","mesh":3,"translation":[-0.424,1.013,0.198],"rotation":[2.18556941E-08,0,0,1],"scale":[0.77019,0.77019,0.77019]},{"name":"RC_Fish_021","mesh":2,"translation":[0.063,0.982,-0.057],"rotation":[2.18198757E-08,-0.0572295263,-1.25079114E-09,0.998361051],"scale":[0.77019,0.77019,0.77019]},{"name":"RC_Fish_022","mesh":2,"translation":[0.547,0.978,-0.0009999983],"rotation":[2.18366321E-08,0.0417559668,9.12605658E-10,0.9991278],"scale":[0.77019,0.77019,0.77019]},{"name":"RC_Market_Shop_04(Clone)","children":[0,1,2,3,4,5,6]}],"extensionsRequired":["KHR_texture_transform"],"extensionsUsed":["KHR_texture_transform"],"buffers":[{"uri":"RC_Market_Shop_04.bin","byteLength":211880}],"bufferViews":[{"buffer":0,"byteLength":17208},{"buffer":0,"byteLength":94560,"byteOffset":17208,"byteStride":48},{"buffer":0,"byteLength":2136,"byteOffset":111768},{"buffer":0,"byteLength":13632,"byteOffset":113904,"byteStride":48},{"buffer":0,"byteLength":864,"byteOffset":127536},{"buffer":0,"byteLength":4416,"byteOffset":128400,"byteStride":48},{"buffer":0,"byteLength":13206,"byteOffset":132816},{"buffer":0,"byteLength":65856,"byteOffset":146024,"byteStride":48}],"accessors":[{"bufferView":1,"componentType":5126,"count":1970,"type":"VEC3","max":[3.08573961,5.11780262,2.70748568],"min":[-3.05376577,0,-3.080306]},{"bufferView":1,"componentType":5126,"count":1970,"type":"VEC3","byteOffset":12},{"bufferView":1,"componentType":5126,"count":1970,"type":"VEC4","byteOffset":24},{"bufferView":1,"componentType":5126,"count":1970,"type":"VEC2","byteOffset":40},{"bufferView":0,"componentType":5123,"count":2172,"type":"SCALAR"},{"bufferView":0,"componentType":5123,"count":5040,"type":"SCALAR","byteOffset":4344},{"bufferView":0,"componentType":5123,"count":1392,"type":"SCALAR","byteOffset":14424},{"bufferView":3,"componentType":5126,"count":284,"type":"VEC3","max":[1.4666779,0.9869292,0.9728706],"min":[-1.48110175,-5.96046448E-08,-0.935765]},{"bufferView":3,"componentType":5126,"count":284,"type":"VEC3","byteOffset":12},{"bufferView":3,"componentType":5126,"count":284,"type":"VEC4","byteOffset":24},{"bufferView":3,"componentType":5126,"count":284,"type":"VEC2","byteOffset":40},{"bufferView":2,"componentType":5123,"count":96,"type":"SCALAR"},{"bufferView":2,"componentType":5123,"count":660,"type":"SCALAR","byteOffset":192},{"bufferView":2,"componentType":5123,"count":312,"type":"SCALAR","byteOffset":1512},{"bufferView":5,"componentType":5126,"count":92,"type":"VEC3","max":[0.11494787,0.06046334,0.401297867],"min":[-0.1187626,-0.07972795,-0.441482]},{"bufferView":5,"componentType":5126,"count":92,"type":"VEC3","byteOffset":12},{"bufferView":5,"componentType":5126,"count":92,"type":"VEC4","byteOffset":24},{"bufferView":5,"componentType":5126,"count":92,"type":"VEC2","byteOffset":40},{"bufferView":4,"componentType":5123,"count":432,"type":"SCALAR"},{"bufferView":7,"componentType":5126,"count":1372,"type":"VEC3","max":[0.222134888,0.0715408,0.485871166],"min":[-0.284294784,-0.06955396,-0.885656953]},{"bufferView":7,"componentType":5126,"count":1372,"type":"VEC3","byteOffset":12},{"bufferView":7,"componentType":5126,"count":1372,"type":"VEC4","byteOffset":24},{"bufferView":7,"componentType":5126,"count":1372,"type":"VEC2","byteOffset":40},{"bufferView":6,"componentType":5123,"count":6603,"type":"SCALAR"}],"images":[{"name":"RC_Fishing_Net_Normal.jpg","uri":"RC_Fishing_Net_Normal.jpg","mimeType":"image/jpeg"},{"name":"RC_Fishing_Net_Color.png","uri":"RC_Fishing_Net_Color.png","mimeType":"image/png"},{"name":"RC_Wood_01_Normal.png","uri":"RC_Wood_01_Normal.png","mimeType":"image/png"},{"name":"RC_Wood_01_Base.jpg","uri":"RC_Wood_01_Base.jpg","mimeType":"image/jpeg"},{"name":"RC_Fabric_03_Normal.png","uri":"RC_Fabric_03_Normal.png","mimeType":"image/png"},{"name":"RC_Fabric_03_Base.jpg","uri":"RC_Fabric_03_Base.jpg","mimeType":"image/jpeg"},{"name":"RC_Wood_08_Normal.png","uri":"RC_Wood_08_Normal.png","mimeType":"image/png"},{"name":"RC_Wood_08_Base.jpg","uri":"RC_Wood_08_Base.jpg","mimeType":"image/jpeg"},{"name":"RC_Wood_06_Normal.png","uri":"RC_Wood_06_Normal.png","mimeType":"image/png"},{"name":"RC_Wood_06_Base.jpg","uri":"RC_Wood_06_Base.jpg","mimeType":"image/jpeg"},{"name":"RC_Fabric_007_Normal.png","uri":"RC_Fabric_007_Normal.png","mimeType":"image/png"},{"name":"RC_Fabric_007_Colour.jpg","uri":"RC_Fabric_007_Colour.jpg","mimeType":"image/jpeg"},{"name":"RC_Fish_02_Color.jpg","uri":"RC_Fish_02_Color.jpg","mimeType":"image/jpeg"},{"name":"RC_Fish_01_Normal.png","uri":"RC_Fish_01_Normal.png","mimeType":"image/png"},{"name":"RC_Fish_01_Color.jpg","uri":"RC_Fish_01_Color.jpg","mimeType":"image/jpeg"}],"materials":[{"name":"RC_Market_Tent_04_mat1","pbrMetallicRoughness":{"baseColorFactor":[1,0.9667596,0.6273585,1],"metallicFactor":0,"roughnessFactor":0.838,"baseColorTexture":{"index":1,"extensions":{"KHR_texture_transform":{"offset":[0,1],"scale":[5,-5]}}}},"normalTexture":{"index":0,"extensions":{"KHR_texture_transform":{"offset":[0,1],"scale":[1,-1]}},"scale":2},"alphaMode":"BLEND","doubleSided":true},{"name":"RC_Market_Tent_04_mat2","pbrMetallicRoughness":{"baseColorFactor":[1,0.957388461,0.8726415,1],"metallicFactor":0,"roughnessFactor":0.5,"baseColorTexture":{"index":3,"extensions":{"KHR_texture_transform":{"offset":[0,1],"scale":[3,-3]}}}},"normalTexture":{"index":2,"extensions":{"KHR_texture_transform":{"offset":[0,1],"scale":[1,-1]}}}},{"name":"RC_Market_Tent_04_mat3","pbrMetallicRoughness":{"baseColorFactor":[0.391509384,0.809244,1,1],"metallicFactor":0,"roughnessFactor":0.792,"baseColorTexture":{"index":5,"extensions":{"KHR_texture_transform":{"offset":[0,1],"scale":[1,-1]}}}},"normalTexture":{"index":4,"extensions":{"KHR_texture_transform":{"offset":[0,1],"scale":[1,-1]}}}},{"name":"RC_Market_Table_04_mat2","pbrMetallicRoughness":{"baseColorFactor":[1,0.9150936,0.6556604,1],"metallicFactor":0,"roughnessFactor":0.5,"baseColorTexture":{"index":7,"extensions":{"KHR_texture_transform":{"offset":[0,1],"scale":[5,-5]}}}},"normalTexture":{"index":6,"extensions":{"KHR_texture_transform":{"offset":[0,1],"scale":[1,-1]}}}},{"name":"RC_Market_Table_04_mat1","pbrMetallicRoughness":{"baseColorFactor":[1,0.955501854,0.429245263,1],"metallicFactor":0,"roughnessFactor":0.918,"baseColorTexture":{"index":9,"extensions":{"KHR_texture_transform":{"offset":[0,1],"scale":[5,-5]}}}},"normalTexture":{"index":8,"extensions":{"KHR_texture_transform":{"offset":[0,1],"scale":[1,-1]}}}},{"name":"RC_Market_Table_04_mat3","pbrMetallicRoughness":{"metallicFactor":0,"roughnessFactor":0.908,"baseColorTexture":{"index":11,"extensions":{"KHR_texture_transform":{"offset":[0,1],"scale":[3,-3]}}}},"normalTexture":{"index":10,"extensions":{"KHR_texture_transform":{"offset":[0,1],"scale":[1,-1]}}}},{"name":"RC_Fish_02_mat","pbrMetallicRoughness":{"metallicFactor":0,"roughnessFactor":0.39200002,"baseColorTexture":{"index":12,"extensions":{"KHR_texture_transform":{"offset":[0,1],"scale":[1,-1]}}}}},{"name":"RC_Fish_01_mat","pbrMetallicRoughness":{"metallicFactor":0,"roughnessFactor":0.5,"baseColorTexture":{"index":14,"extensions":{"KHR_texture_transform":{"offset":[0,1],"scale":[1,-1]}}}},"normalTexture":{"index":13,"extensions":{"KHR_texture_transform":{"offset":[0,1],"scale":[1,-1]}}}}],"meshes":[{"name":"RC_Market_Tent_04","primitives":[{"attributes":{"POSITION":0,"NORMAL":1,"TANGENT":2,"TEXCOORD_0":3},"indices":4,"material":0},{"attributes":{"POSITION":0,"NORMAL":1,"TANGENT":2,"TEXCOORD_0":3},"indices":5,"material":1},{"attributes":{"POSITION":0,"NORMAL":1,"TANGENT":2,"TEXCOORD_0":3},"indices":6,"material":2}]},{"name":"RC_Market_Table_04","primitives":[{"attributes":{"POSITION":7,"NORMAL":8,"TANGENT":9,"TEXCOORD_0":10},"indices":11,"material":3},{"attributes":{"POSITION":7,"NORMAL":8,"TANGENT":9,"TEXCOORD_0":10},"indices":12,"material":4},{"attributes":{"POSITION":7,"NORMAL":8,"TANGENT":9,"TEXCOORD_0":10},"indices":13,"material":5}]},{"name":"RC_Fish_02","primitives":[{"attributes":{"POSITION":14,"NORMAL":15,"TANGENT":16,"TEXCOORD_0":17},"indices":18,"material":6}]},{"name":"RC_Fish_01","primitives":[{"attributes":{"POSITION":19,"NORMAL":20,"TANGENT":21,"TEXCOORD_0":22},"indices":23,"material":7}]}],"scene":0,"scenes":[{"name":"RC_Market_Shop_04(Clone)","nodes":[7]}],"textures":[{"source":0},{"source":1},{"source":2},{"source":3},{"source":4},{"source":5},{"source":6},{"source":7},{"source":8},{"source":9},{"source":10},{"source":11},{"source":12},{"source":13},{"source":14}]}