{"asset":{"version":"2.0","generator":"Unity 2021.3.22f1 glTFast 4.8.3","lastModified":"06-07-2023 06:34:29","assetVersion":"1.0","expiryToken":1},"nodes":[{"name":"RC_Small_Building_05_Box","mesh":0,"translation":[-0.806,0,3.74],"rotation":[0,0.103521317,0,0.994627237]},{"name":"RC_Small_Building_05_Broken_Roof","mesh":1,"translation":[1.89,0,4.16],"rotation":[0,0.09321628,0,0.9956459],"scale":[1.20330012,1.2033,1.20330012]},{"name":"RC_Small_Building_05_Hay_Box","mesh":2,"translation":[5.13,0,0.32],"rotation":[0,-0.161442652,0,0.9868821]},{"name":"RC_Ivy_Plane","mesh":3,"translation":[4.37,0,3.24]},{"name":"RC_Small_Building_05","mesh":4},{"name":"RC_Ivy_Plane1","mesh":3,"translation":[-4.28,0,2.951],"rotation":[0,0.7485563,0,-0.6630713],"scale":[0.0143069988,0.0142084546,0.0118007762]},{"name":"RC_Ivy_Plane2","mesh":3,"translation":[4.5,0,-3.057],"rotation":[0,0.7071068,0,0.7071068],"scale":[0.009999999,0.007905399,0.009999999]},{"name":"RC_Ivy_Plane3","mesh":3,"translation":[-4.063,0,-3.196],"rotation":[0,1,0,0],"scale":[1,0.0106833568,1]},{"name":"RC_Sack_02","mesh":5,"translation":[-3.8,0,4],"rotation":[2.08793747E-08,0.2955457,6.45935527E-09,0.9553287]},{"name":"RC_Small_Building_05_Broken_Pot","mesh":6,"translation":[0.2,0,-0.164],"rotation":[0,-0.30561617,0,0.9521549]},{"name":"RC_Small_Building_05_Broken_Pot1","mesh":7,"translation":[0.199,0.043,0.057],"rotation":[0,0,-0.270075917,0.9628391]},{"name":"RC_Small_Building_05_Broken_Pot2","mesh":8,"translation":[0.419,-1.38777875E-19,-0.106],"rotation":[0,0.9001713,0,0.435536176]},{"name":"RC_Small_Building_05_Pot","mesh":9},{"name":"RC_Small_Building_05_Pots","children":[9,10,11,12],"translation":[5.108,0,-1.613],"scale":[3.4307,3.4307,3.4307]},{"name":"RC_Small_Building_05(Clone)","children":[0,1,2,3,4,5,6,7,8,13]}],"extensionsRequired":["KHR_texture_transform"],"extensionsUsed":["KHR_texture_transform"],"buffers":[{"uri":"RC_Small_Building_05.bin","byteLength":2781000}],"bufferViews":[{"buffer":0,"byteLength":22680},{"buffer":0,"byteLength":161280,"byteOffset":22680,"byteStride":48},{"buffer":0,"byteLength":3144,"byteOffset":183960},{"buffer":0,"byteLength":16320,"byteOffset":187104,"byteStride":48},{"buffer":0,"byteLength":19224,"byteOffset":203424},{"buffer":0,"byteLength":134544,"byteOffset":222648,"byteStride":48},{"buffer":0,"byteLength":480,"byteOffset":357192},{"buffer":0,"byteLength":2592,"byteOffset":357672,"byteStride":48},{"buffer":0,"byteLength":242904,"byteOffset":360264},{"buffer":0,"byteLength":2042448,"byteOffset":603168,"byteStride":48},{"buffer":0,"byteLength":2592,"byteOffset":2645616},{"buffer":0,"byteLength":13152,"byteOffset":2648208,"byteStride":48},{"buffer":0,"byteLength":7488,"byteOffset":2661360},{"buffer":0,"byteLength":35040,"byteOffset":2668848,"byteStride":48},{"buffer":0,"byteLength":2508,"byteOffset":2703888},{"buffer":0,"byteLength":15792,"byteOffset":2706396,"byteStride":48},{"buffer":0,"byteLength":1884,"byteOffset":2722188},{"buffer":0,"byteLength":11376,"byteOffset":2724072,"byteStride":48},{"buffer":0,"byteLength":8496,"byteOffset":2735448},{"buffer":0,"byteLength":37056,"byteOffset":2743944,"byteStride":48}],"accessors":[{"bufferView":1,"componentType":5126,"count":3360,"type":"VEC3","max":[0.3678452,0.769933045,0.448373377],"min":[-0.367661268,-5.21540642E-05,-0.4483673]},{"bufferView":1,"componentType":5126,"count":3360,"type":"VEC3","byteOffset":12},{"bufferView":1,"componentType":5126,"count":3360,"type":"VEC4","byteOffset":24},{"bufferView":1,"componentType":5126,"count":3360,"type":"VEC2","byteOffset":40},{"bufferView":0,"componentType":5123,"count":11340,"type":"SCALAR"},{"bufferView":3,"componentType":5126,"count":340,"type":"VEC3","max":[0.6617776,0.169183925,0.5517984],"min":[-0.6691843,0.000455901027,-0.566181958]},{"bufferView":3,"componentType":5126,"count":340,"type":"VEC3","byteOffset":12},{"bufferView":3,"componentType":5126,"count":340,"type":"VEC4","byteOffset":24},{"bufferView":3,"componentType":5126,"count":340,"type":"VEC2","byteOffset":40},{"bufferView":2,"componentType":5123,"count":1572,"type":"SCALAR"},{"bufferView":5,"componentType":5126,"count":2803,"type":"VEC3","max":[0.427250654,0.8971435,0.690221548],"min":[-0.427250654,-0.000312626362,-0.690221548]},{"bufferView":5,"componentType":5126,"count":2803,"type":"VEC3","byteOffset":12},{"bufferView":5,"componentType":5126,"count":2803,"type":"VEC4","byteOffset":24},{"bufferView":5,"componentType":5126,"count":2803,"type":"VEC2","byteOffset":40},{"bufferView":4,"componentType":5123,"count":9072,"type":"SCALAR"},{"bufferView":4,"componentType":5123,"count":540,"type":"SCALAR","byteOffset":18144},{"bufferView":7,"componentType":5126,"count":54,"type":"VEC3","max":[0.132545471,3.52643585,2.38418579E-07],"min":[-2.33359241,-2.38418579E-07,-2.00119615]},{"bufferView":7,"componentType":5126,"count":54,"type":"VEC3","byteOffset":12},{"bufferView":7,"componentType":5126,"count":54,"type":"VEC4","byteOffset":24},{"bufferView":7,"componentType":5126,"count":54,"type":"VEC2","byteOffset":40},{"bufferView":6,"componentType":5123,"count":240,"type":"SCALAR"},{"bufferView":9,"componentType":5126,"count":42551,"type":"VEC3","max":[5.070834,7.651394,4.07718658],"min":[-4.491498,-0.009716988,-3.39451551]},{"bufferView":9,"componentType":5126,"count":42551,"type":"VEC3","byteOffset":12},{"bufferView":9,"componentType":5126,"count":42551,"type":"VEC4","byteOffset":24},{"bufferView":9,"componentType":5126,"count":42551,"type":"VEC2","byteOffset":40},{"bufferView":8,"componentType":5123,"count":1296,"type":"SCALAR"},{"bufferView":8,"componentType":5123,"count":8232,"type":"SCALAR","byteOffset":2592},{"bufferView":8,"componentType":5123,"count":48,"type":"SCALAR","byteOffset":19056},{"bufferView":8,"componentType":5123,"count":8376,"type":"SCALAR","byteOffset":19152},{"bufferView":8,"componentType":5123,"count":1764,"type":"SCALAR","byteOffset":35904},{"bufferView":8,"componentType":5123,"count":8196,"type":"SCALAR","byteOffset":39432},{"bufferView":8,"componentType":5123,"count":16200,"type":"SCALAR","byteOffset":55824},{"bufferView":8,"componentType":5123,"count":1296,"type":"SCALAR","byteOffset":88224},{"bufferView":8,"componentType":5123,"count":6048,"type":"SCALAR","byteOffset":90816},{"bufferView":8,"componentType":5123,"count":1182,"type":"SCALAR","byteOffset":102912},{"bufferView":8,"componentType":5123,"count":204,"type":"SCALAR","byteOffset":105276},{"bufferView":8,"componentType":5123,"count":68610,"type":"SCALAR","byteOffset":105684},{"bufferView":11,"componentType":5126,"count":274,"type":"VEC3","max":[0.5550302,0.7112953,0.4117602],"min":[-0.5554174,-0.0127136111,-0.4181211]},{"bufferView":11,"componentType":5126,"count":274,"type":"VEC3","byteOffset":12},{"bufferView":11,"componentType":5126,"count":274,"type":"VEC4","byteOffset":24},{"bufferView":11,"componentType":5126,"count":274,"type":"VEC2","byteOffset":40},{"bufferView":10,"componentType":5123,"count":1296,"type":"SCALAR"},{"bufferView":13,"componentType":5126,"count":730,"type":"VEC3","max":[0.120913275,0.18704547,0.122843213],"min":[-0.122843049,0,-0.09954684]},{"bufferView":13,"componentType":5126,"count":730,"type":"VEC3","byteOffset":12},{"bufferView":13,"componentType":5126,"count":730,"type":"VEC4","byteOffset":24},{"bufferView":13,"componentType":5126,"count":730,"type":"VEC2","byteOffset":40},{"bufferView":12,"componentType":5123,"count":3744,"type":"SCALAR"},{"bufferView":15,"componentType":5126,"count":329,"type":"VEC3","max":[0.110435538,0.05548674,0.10371694],"min":[-0.105954967,0,-0.09954685]},{"bufferView":15,"componentType":5126,"count":329,"type":"VEC3","byteOffset":12},{"bufferView":15,"componentType":5126,"count":329,"type":"VEC4","byteOffset":24},{"bufferView":15,"componentType":5126,"count":329,"type":"VEC2","byteOffset":40},{"bufferView":14,"componentType":5123,"count":1254,"type":"SCALAR"},{"bufferView":17,"componentType":5126,"count":237,"type":"VEC3","max":[0.0873898,0.0214672852,0.00644465163],"min":[-0.08364341,-7.608347E-05,-0.12077269]},{"bufferView":17,"componentType":5126,"count":237,"type":"VEC3","byteOffset":12},{"bufferView":17,"componentType":5126,"count":237,"type":"VEC4","byteOffset":24},{"bufferView":17,"componentType":5126,"count":237,"type":"VEC2","byteOffset":40},{"bufferView":16,"componentType":5123,"count":942,"type":"SCALAR"},{"bufferView":19,"componentType":5126,"count":772,"type":"VEC3","max":[0.16604507,0.4009552,0.166045249],"min":[-0.16604501,-0.000831306,-0.166045129]},{"bufferView":19,"componentType":5126,"count":772,"type":"VEC3","byteOffset":12},{"bufferView":19,"componentType":5126,"count":772,"type":"VEC4","byteOffset":24},{"bufferView":19,"componentType":5126,"count":772,"type":"VEC2","byteOffset":40},{"bufferView":18,"componentType":5123,"count":4248,"type":"SCALAR"}],"images":[{"name":"RC_Wood_06_Normal.png","uri":"RC_Wood_06_Normal.png","mimeType":"image/png"},{"name":"RC_Wood_06_Base.jpg","uri":"RC_Wood_06_Base.jpg","mimeType":"image/jpeg"},{"name":"RC_Roof_011_Normal.png","uri":"RC_Roof_011_Normal.png","mimeType":"image/png"},{"name":"RC_Roof_011_Base.jpg","uri":"RC_Roof_011_Base.jpg","mimeType":"image/jpeg"},{"name":"RC_Ground_06_Normal.png","uri":"RC_Ground_06_Normal.png","mimeType":"image/png"},{"name":"RC_Ground_06_Colour.jpg","uri":"RC_Ground_06_Colour.jpg","mimeType":"image/jpeg"},{"name":"RC_Lvy_Branch_Normal.png","uri":"RC_Lvy_Branch_Normal.png","mimeType":"image/png"},{"name":"RC_Lvy_Branch.png","uri":"RC_Lvy_Branch.png","mimeType":"image/png"},{"name":"RC_Wood_09_Normal.png","uri":"RC_Wood_09_Normal.png","mimeType":"image/png"},{"name":"RC_Wood_09_Base.jpg","uri":"RC_Wood_09_Base.jpg","mimeType":"image/jpeg"},{"name":"RC_Wall_024_Normal.png","uri":"RC_Wall_024_Normal.png","mimeType":"image/png"},{"name":"RC_Wall_024_Base.jpg","uri":"RC_Wall_024_Base.jpg","mimeType":"image/jpeg"},{"name":"RC_Wall_024_AO.jpg","uri":"RC_Wall_024_AO.jpg","mimeType":"image/jpeg"},{"name":"RC_Metal_04_Normal.png","uri":"RC_Metal_04_Normal.png","mimeType":"image/png"},{"name":"RC_Metal_04_Base.jpg","uri":"RC_Metal_04_Base.jpg","mimeType":"image/jpeg"},{"name":"RC_Wall_38_Base.jpg","uri":"RC_Wall_38_Base.jpg","mimeType":"image/jpeg"},{"name":"RC_Wood_08_Base.jpg","uri":"RC_Wood_08_Base.jpg","mimeType":"image/jpeg"},{"name":"RC_Roof_006_Normal.png","uri":"RC_Roof_006_Normal.png","mimeType":"image/png"},{"name":"RC_Roof_006_Base.jpg","uri":"RC_Roof_006_Base.jpg","mimeType":"image/jpeg"},{"name":"RC_Roof_007_AO.jpg","uri":"RC_Roof_007_AO.jpg","mimeType":"image/jpeg"},{"name":"RC_Fabric_26_Normal.png","uri":"RC_Fabric_26_Normal.png","mimeType":"image/png"},{"name":"RC_Fabric_26_Base.jpg","uri":"RC_Fabric_26_Base.jpg","mimeType":"image/jpeg"},{"name":"RC_Wall_39_Normal.png","uri":"RC_Wall_39_Normal.png","mimeType":"image/png"},{"name":"RC_Wall_39_Color.jpg","uri":"RC_Wall_39_Color.jpg","mimeType":"image/jpeg"},{"name":"RC_Wall_39_AO.jpg","uri":"RC_Wall_39_AO.jpg","mimeType":"image/jpeg"}],"materials":[{"name":"RC_Small_Building_05_Box_mat","pbrMetallicRoughness":{"baseColorFactor":[0.8396226,0.8396226,0.8396226,1],"metallicFactor":0.039,"roughnessFactor":0.921,"baseColorTexture":{"index":1,"extensions":{"KHR_texture_transform":{"offset":[0,1],"scale":[1,-1]}}}},"normalTexture":{"index":0,"extensions":{"KHR_texture_transform":{"offset":[0,1],"scale":[1,-1]}},"scale":2}},{"name":"RC_Small_Building_05_Broken_Roof_mat","pbrMetallicRoughness":{"baseColorFactor":[0.6886792,0.6886792,0.6886792,1],"metallicFactor":0,"baseColorTexture":{"index":3,"extensions":{"KHR_texture_transform":{"offset":[0,0.87],"scale":[0.19,-0.32]}}}},"normalTexture":{"index":2,"extensions":{"KHR_texture_transform":{"offset":[0,1],"scale":[1,-1]}}}},{"name":"RC_Small_Building_05_Box_mat","pbrMetallicRoughness":{"baseColorFactor":[0.6320754,0.6320754,0.6320754,1],"metallicFactor":0.039,"roughnessFactor":0.921,"baseColorTexture":{"index":1,"extensions":{"KHR_texture_transform":{"offset":[0,1],"scale":[5,-5]}}}},"normalTexture":{"index":0,"extensions":{"KHR_texture_transform":{"offset":[0,1],"scale":[1,-1]}},"scale":2}},{"name":"RC_Small_Building_05_Hay_mat","pbrMetallicRoughness":{"baseColorFactor":[0.8301887,0.8301887,0.8301887,1],"metallicFactor":0,"baseColorTexture":{"index":5,"extensions":{"KHR_texture_transform":{"offset":[0,1],"scale":[3,-3]}}}},"normalTexture":{"index":4,"extensions":{"KHR_texture_transform":{"offset":[0,1],"scale":[1,-1]}}}},{"name":"RC_Lvy_Plane_mat","pbrMetallicRoughness":{"baseColorFactor":[0.864858,1,0.0518867746,1],"metallicFactor":0.083,"roughnessFactor":0.879,"baseColorTexture":{"index":7,"extensions":{"KHR_texture_transform":{"offset":[0,1],"scale":[1,-1]}}}},"normalTexture":{"index":6,"extensions":{"KHR_texture_transform":{"offset":[0,1],"scale":[1,-1]}}},"alphaMode":"BLEND","doubleSided":true},{"name":"RC_Small_Building_05_Roof_Stick_mat","pbrMetallicRoughness":{"baseColorFactor":[1,0.772549033,0.772549033,1],"metallicFactor":0.044,"roughnessFactor":0.944,"baseColorTexture":{"index":1,"extensions":{"KHR_texture_transform":{"offset":[0,1],"scale":[1,-1]}}}},"normalTexture":{"index":0,"extensions":{"KHR_texture_transform":{"offset":[0,1],"scale":[1,-1]}},"scale":2}},{"name":"RC_Small_Building_05_Small_Roof_mat","pbrMetallicRoughness":{"baseColorFactor":[0.9339623,0.815014243,0.815014243,1],"metallicFactor":0.061,"roughnessFactor":0.905,"baseColorTexture":{"index":9,"extensions":{"KHR_texture_transform":{"offset":[0,1],"scale":[1,-1]}}}},"normalTexture":{"index":8,"extensions":{"KHR_texture_transform":{"offset":[0,1],"scale":[1,-1]}}}},{"name":"RC_Small_Building_05_Roof_Side_mat","pbrMetallicRoughness":{"baseColorFactor":[0.5566037,0.5566037,0.5566037,1],"metallicFactor":0,"baseColorTexture":{"index":9,"extensions":{"KHR_texture_transform":{"offset":[0,1],"scale":[3,-3]}}}},"normalTexture":{"index":8,"extensions":{"KHR_texture_transform":{"offset":[0,1],"scale":[1,-1]}}}},{"name":"RC_Small_Building_05_Beam_mat","pbrMetallicRoughness":{"baseColorFactor":[1,0.772549033,0.772549033,1],"metallicFactor":0,"baseColorTexture":{"index":9,"extensions":{"KHR_texture_transform":{"offset":[0,1],"scale":[5,-5]}}}},"normalTexture":{"index":8,"extensions":{"KHR_texture_transform":{"offset":[0,1],"scale":[1,-1]}},"scale":2}},{"name":"RC_Small_Building_05_Stones_mat","pbrMetallicRoughness":{"baseColorFactor":[0.9245283,0.9245283,0.9245283,1],"metallicFactor":0.078,"roughnessFactor":0.881999969,"baseColorTexture":{"index":11,"extensions":{"KHR_texture_transform":{"offset":[0,1],"scale":[1,-1]}}}},"normalTexture":{"index":10,"extensions":{"KHR_texture_transform":{"offset":[0,1],"scale":[1,-1]}}},"occlusionTexture":{"index":12,"extensions":{"KHR_texture_transform":{"offset":[0,1],"scale":[1,-1]}}}},{"name":"RC_Small_Building_05_Door_mat","pbrMetallicRoughness":{"baseColorFactor":[1,0.772549033,0.772549033,1],"metallicFactor":0.072,"roughnessFactor":0.932999969,"baseColorTexture":{"index":9,"extensions":{"KHR_texture_transform":{"offset":[0,1],"scale":[1,-1]}}}},"normalTexture":{"index":8,"extensions":{"KHR_texture_transform":{"offset":[0,1],"scale":[1,-1]}},"scale":0.3}},{"name":"RC_Small_Building_05_Window_mat","pbrMetallicRoughness":{"baseColorFactor":[1,0.76886797,0.76886797,1],"metallicFactor":0.061,"roughnessFactor":0.905,"baseColorTexture":{"index":9,"extensions":{"KHR_texture_transform":{"offset":[0,1],"scale":[1,-1]}}}},"normalTexture":{"index":8,"extensions":{"KHR_texture_transform":{"offset":[0,1],"scale":[1,-1]}}}},{"name":"RC_Small_Building_05_Main_Beam_mat","pbrMetallicRoughness":{"baseColorFactor":[1,0.772549033,0.772549033,1],"metallicFactor":0.077,"roughnessFactor":0.888,"baseColorTexture":{"index":9,"extensions":{"KHR_texture_transform":{"offset":[0,1],"scale":[1,-1]}}}},"normalTexture":{"index":8,"extensions":{"KHR_texture_transform":{"offset":[0,1],"scale":[1,-1]}}}},{"name":"RC_Small_Building_05_Door_Handel_mat","pbrMetallicRoughness":{"baseColorFactor":[0.6603774,0.651032448,0.651032448,1],"metallicFactor":0.25,"roughnessFactor":0.612,"baseColorTexture":{"index":14,"extensions":{"KHR_texture_transform":{"offset":[0,1],"scale":[5,-5]}}}},"normalTexture":{"index":13,"extensions":{"KHR_texture_transform":{"offset":[0,1],"scale":[1,-1]}}}},{"name":"RC_Small_Building_05_Wall_mat","pbrMetallicRoughness":{"baseColorFactor":[1,0.9490196,0.8,1],"metallicFactor":0.056,"roughnessFactor":0.916,"baseColorTexture":{"index":15,"extensions":{"KHR_texture_transform":{"offset":[0,1],"scale":[5,-5]}}}}},{"name":"RC_Small_Building_05_Inner_Wall_mat","pbrMetallicRoughness":{"baseColorFactor":[0.6886792,0.214825124,0,1],"metallicFactor":0,"baseColorTexture":{"index":16,"extensions":{"KHR_texture_transform":{"offset":[-0.17,0.87],"scale":[15,-15]}}}}},{"name":"RC_Small_Building_05_Roof_mat","pbrMetallicRoughness":{"metallicFactor":0.056,"roughnessFactor":0.944,"baseColorTexture":{"index":18,"extensions":{"KHR_texture_transform":{"offset":[0,1],"scale":[1,-1]}}}},"normalTexture":{"index":17,"extensions":{"KHR_texture_transform":{"offset":[0,1],"scale":[1,-1]}}},"occlusionTexture":{"index":19,"extensions":{"KHR_texture_transform":{"offset":[0,1],"scale":[1,-1]}}}},{"name":"RC_Sack_02_mat","pbrMetallicRoughness":{"baseColorFactor":[1,0.948698,0.7783019,1],"metallicFactor":0.033,"roughnessFactor":0.967,"baseColorTexture":{"index":21,"extensions":{"KHR_texture_transform":{"offset":[0,1],"scale":[5,-5]}}}},"normalTexture":{"index":20,"extensions":{"KHR_texture_transform":{"offset":[0,1],"scale":[1,-1]}},"scale":2}},{"name":"RC_Small_Building_05_Broken_Pot_mat","pbrMetallicRoughness":{"baseColorFactor":[1,0.6933962,0.6933962,1],"metallicFactor":0,"baseColorTexture":{"index":23,"extensions":{"KHR_texture_transform":{"offset":[0,1],"scale":[1,-1]}}}},"normalTexture":{"index":22,"extensions":{"KHR_texture_transform":{"offset":[0,1],"scale":[1,-1]}}},"occlusionTexture":{"index":24,"extensions":{"KHR_texture_transform":{"offset":[0,1],"scale":[1,-1]}}},"doubleSided":true},{"name":"RC_Small_Building_05_Pot_mat","pbrMetallicRoughness":{"baseColorFactor":[1,0.6933962,0.6933962,1],"metallicFactor":0,"baseColorTexture":{"index":23,"extensions":{"KHR_texture_transform":{"offset":[0,1],"scale":[1,-1]}}}},"normalTexture":{"index":22,"extensions":{"KHR_texture_transform":{"offset":[0,1],"scale":[1,-1]}}},"occlusionTexture":{"index":24,"extensions":{"KHR_texture_transform":{"offset":[0,1],"scale":[1,-1]}}},"doubleSided":true}],"meshes":[{"name":"RC_Small_Building_05_Box","primitives":[{"attributes":{"POSITION":0,"NORMAL":1,"TANGENT":2,"TEXCOORD_0":3},"indices":4,"material":0}]},{"name":"RC_Small_Building_05_Broken_Roof","primitives":[{"attributes":{"POSITION":5,"NORMAL":6,"TANGENT":7,"TEXCOORD_0":8},"indices":9,"material":1}]},{"name":"RC_Small_Building_05_Hay_Box","primitives":[{"attributes":{"POSITION":10,"NORMAL":11,"TANGENT":12,"TEXCOORD_0":13},"indices":14,"material":2},{"attributes":{"POSITION":10,"NORMAL":11,"TANGENT":12,"TEXCOORD_0":13},"indices":15,"material":3}]},{"name":"RC_Ivy_Plane","primitives":[{"attributes":{"POSITION":16,"NORMAL":17,"TANGENT":18,"TEXCOORD_0":19},"indices":20,"material":4}]},{"name":"RC_Small_Building_05","primitives":[{"attributes":{"POSITION":21,"NORMAL":22,"TANGENT":23,"TEXCOORD_0":24},"indices":25,"material":5},{"attributes":{"POSITION":21,"NORMAL":22,"TANGENT":23,"TEXCOORD_0":24},"indices":26,"material":6},{"attributes":{"POSITION":21,"NORMAL":22,"TANGENT":23,"TEXCOORD_0":24},"indices":27,"material":7},{"attributes":{"POSITION":21,"NORMAL":22,"TANGENT":23,"TEXCOORD_0":24},"indices":28,"material":8},{"attributes":{"POSITION":21,"NORMAL":22,"TANGENT":23,"TEXCOORD_0":24},"indices":29,"material":9},{"attributes":{"POSITION":21,"NORMAL":22,"TANGENT":23,"TEXCOORD_0":24},"indices":30,"material":10},{"attributes":{"POSITION":21,"NORMAL":22,"TANGENT":23,"TEXCOORD_0":24},"indices":31,"material":11},{"attributes":{"POSITION":21,"NORMAL":22,"TANGENT":23,"TEXCOORD_0":24},"indices":32,"material":12},{"attributes":{"POSITION":21,"NORMAL":22,"TANGENT":23,"TEXCOORD_0":24},"indices":33,"material":13},{"attributes":{"POSITION":21,"NORMAL":22,"TANGENT":23,"TEXCOORD_0":24},"indices":34,"material":14},{"attributes":{"POSITION":21,"NORMAL":22,"TANGENT":23,"TEXCOORD_0":24},"indices":35,"material":15},{"attributes":{"POSITION":21,"NORMAL":22,"TANGENT":23,"TEXCOORD_0":24},"indices":36,"material":16}]},{"name":"RC_Sack_02","primitives":[{"attributes":{"POSITION":37,"NORMAL":38,"TANGENT":39,"TEXCOORD_0":40},"indices":41,"material":17}]},{"name":"RC_Small_Building_05_Broken_Pot","primitives":[{"attributes":{"POSITION":42,"NORMAL":43,"TANGENT":44,"TEXCOORD_0":45},"indices":46,"material":18}]},{"name":"RC_Small_Building_05_Broken_Pot1","primitives":[{"attributes":{"POSITION":47,"NORMAL":48,"TANGENT":49,"TEXCOORD_0":50},"indices":51,"material":18}]},{"name":"RC_Small_Building_05_Broken_Pot2","primitives":[{"attributes":{"POSITION":52,"NORMAL":53,"TANGENT":54,"TEXCOORD_0":55},"indices":56,"material":18}]},{"name":"RC_Small_Building_05_Pot","primitives":[{"attributes":{"POSITION":57,"NORMAL":58,"TANGENT":59,"TEXCOORD_0":60},"indices":61,"material":19}]}],"scene":0,"scenes":[{"name":"RC_Small_Building_05(Clone)","nodes":[14]}],"textures":[{"source":0},{"source":1},{"source":2},{"source":3},{"source":4},{"source":5},{"source":6},{"source":7},{"source":8},{"source":9},{"source":10},{"source":11},{"source":12},{"source":13},{"source":14},{"source":15},{"source":16},{"source":17},{"source":18},{"source":19},{"source":20},{"source":21},{"source":22},{"source":23},{"source":24}]}