{"asset":{"version":"2.0","generator":"Unity 2021.3.22f1 glTFast 4.8.3","lastModified":"17-05-2023 08:36:14","assetVersion":"1.0","expiryToken":1},"nodes":[{"name":"Barrel_v1(Clone)","mesh":0}],"extensionsRequired":["KHR_texture_transform"],"extensionsUsed":["KHR_texture_transform"],"buffers":[{"uri":"Barrel_v1.bin","byteLength":30264}],"bufferViews":[{"buffer":0,"byteLength":3432},{"buffer":0,"byteLength":26832,"byteOffset":3432,"byteStride":48}],"accessors":[{"bufferView":1,"componentType":5126,"count":559,"type":"VEC3","max":[0.5096593,1.20990026,0.509699345],"min":[-0.5096595,0,-0.509699464]},{"bufferView":1,"componentType":5126,"count":559,"type":"VEC3","byteOffset":12},{"bufferView":1,"componentType":5126,"count":559,"type":"VEC4","byteOffset":24},{"bufferView":1,"componentType":5126,"count":559,"type":"VEC2","byteOffset":40},{"bufferView":0,"componentType":5123,"count":1716,"type":"SCALAR"}],"images":[{"name":"WildWest_Houses_N.png","uri":"WildWest_Houses_N.png","mimeType":"image/png"},{"name":"WildWest_Houses.jpg","uri":"WildWest_Houses.jpg","mimeType":"image/jpeg"},{"name":"WildWest_Houses_M.jpg","uri":"WildWest_Houses_M.jpg","mimeType":"image/jpeg"}],"materials":[{"name":"WildWest_Houses","pbrMetallicRoughness":{"baseColorTexture":{"index":1,"extensions":{"KHR_texture_transform":{"offset":[0,1],"scale":[1,-1]}}},"metallicRoughnessTexture":{"index":2,"extensions":{"KHR_texture_transform":{"offset":[0,1],"scale":[1,-1]}}}},"normalTexture":{"index":0,"extensions":{"KHR_texture_transform":{"offset":[0,1],"scale":[1,-1]}}},"doubleSided":true}],"meshes":[{"name":"Barrel_v1","primitives":[{"attributes":{"POSITION":0,"NORMAL":1,"TANGENT":2,"TEXCOORD_0":3},"indices":4,"material":0}]}],"samplers":[{"wrapS":33071,"wrapT":33071}],"scene":0,"scenes":[{"name":"Barrel_v1(Clone)","nodes":[0]}],"textures":[{"source":0,"sampler":0},{"source":1,"sampler":0},{"source":2}]}