{"asset":{"version":"2.0","generator":"Unity 2021.3.22f1 glTFast 4.8.3","lastModified":"14-07-2023 05:13:29","assetVersion":"1.0","expiryToken":1},"nodes":[{"name":"Cylinder.001","mesh":0,"translation":[-1.4070158,0.3758467,0.7672724]},{"name":"Cylinder.013","mesh":1,"translation":[1.39368773,0.3779423,0.7542759]},{"name":"Cylinder.019","mesh":2,"translation":[0,1.30942656E-22,-1.0984265E-15]},{"name":"SWAT_Elevator_platform_001","children":[0,1,2],"translation":[0,0,0.834]},{"name":"SWAT_Elevator_02_001(Clone)","children":[3],"mesh":3}],"extensionsRequired":["KHR_texture_transform"],"extensionsUsed":["KHR_texture_transform"],"buffers":[{"uri":"SWAT_Elevator_02_001.bin","byteLength":1586688}],"bufferViews":[{"buffer":0,"byteLength":6816},{"buffer":0,"byteLength":33792,"byteOffset":6816,"byteStride":48},{"buffer":0,"byteLength":6816,"byteOffset":40608},{"buffer":0,"byteLength":33792,"byteOffset":47424,"byteStride":48},{"buffer":0,"byteLength":22968,"byteOffset":81216},{"buffer":0,"byteLength":176496,"byteOffset":104184,"byteStride":48},{"buffer":0,"byteLength":103608,"byteOffset":280680},{"buffer":0,"byteLength":1202400,"byteOffset":384288,"byteStride":48}],"accessors":[{"bufferView":1,"componentType":5126,"count":704,"type":"VEC3","max":[1.40274763,0.735647261,0.07676867],"min":[-0.07684493,-0.00666981936,-0.08807859]},{"bufferView":1,"componentType":5126,"count":704,"type":"VEC3","byteOffset":12},{"bufferView":1,"componentType":5126,"count":704,"type":"VEC4","byteOffset":24},{"bufferView":1,"componentType":5126,"count":704,"type":"VEC2","byteOffset":40},{"bufferView":0,"componentType":5123,"count":1932,"type":"SCALAR"},{"bufferView":0,"componentType":5123,"count":1476,"type":"SCALAR","byteOffset":3864},{"bufferView":3,"componentType":5126,"count":704,"type":"VEC3","max":[0.07684505,0.7335517,0.08807905],"min":[-1.40274763,-0.008765221,-0.07676853]},{"bufferView":3,"componentType":5126,"count":704,"type":"VEC3","byteOffset":12},{"bufferView":3,"componentType":5126,"count":704,"type":"VEC4","byteOffset":24},{"bufferView":3,"componentType":5126,"count":704,"type":"VEC2","byteOffset":40},{"bufferView":2,"componentType":5123,"count":1932,"type":"SCALAR"},{"bufferView":2,"componentType":5123,"count":1476,"type":"SCALAR","byteOffset":3864},{"bufferView":5,"componentType":5126,"count":3677,"type":"VEC3","max":[1.48304486,1.21986127,0.8945956],"min":[-1.48304963,-0.0353239775,-0.8332007]},{"bufferView":5,"componentType":5126,"count":3677,"type":"VEC3","byteOffset":12},{"bufferView":5,"componentType":5126,"count":3677,"type":"VEC4","byteOffset":24},{"bufferView":5,"componentType":5126,"count":3677,"type":"VEC2","byteOffset":40},{"bufferView":4,"componentType":5123,"count":534,"type":"SCALAR"},{"bufferView":4,"componentType":5123,"count":6,"type":"SCALAR","byteOffset":1068},{"bufferView":4,"componentType":5123,"count":3240,"type":"SCALAR","byteOffset":1080},{"bufferView":4,"componentType":5123,"count":7140,"type":"SCALAR","byteOffset":7560},{"bufferView":4,"componentType":5123,"count":564,"type":"SCALAR","byteOffset":21840},{"bufferView":7,"componentType":5126,"count":25050,"type":"VEC3","max":[1.67486846,4.283828,1.88648152],"min":[-1.67555034,0.001897335,-0.209098339]},{"bufferView":7,"componentType":5126,"count":25050,"type":"VEC3","byteOffset":12},{"bufferView":7,"componentType":5126,"count":25050,"type":"VEC4","byteOffset":24},{"bufferView":7,"componentType":5126,"count":25050,"type":"VEC2","byteOffset":40},{"bufferView":6,"componentType":5123,"count":24084,"type":"SCALAR"},{"bufferView":6,"componentType":5123,"count":14988,"type":"SCALAR","byteOffset":48168},{"bufferView":6,"componentType":5123,"count":4584,"type":"SCALAR","byteOffset":78144},{"bufferView":6,"componentType":5123,"count":8148,"type":"SCALAR","byteOffset":87312}],"images":[{"name":"SWAT_Metal_n.png","uri":"SWAT_Metal_n.png","mimeType":"image/png"},{"name":"SWAT_Metal_d.jpg","uri":"SWAT_Metal_d.jpg","mimeType":"image/jpeg"},{"name":"SWAT_Metal_ao.jpg","uri":"SWAT_Metal_ao.jpg","mimeType":"image/jpeg"},{"name":"SWAT_Elevator_01_Display_n.png","uri":"SWAT_Elevator_01_Display_n.png","mimeType":"image/png"},{"name":"SWAT_Elevator_01_Display_b.jpg","uri":"SWAT_Elevator_01_Display_b.jpg","mimeType":"image/jpeg"}],"materials":[{"name":"SWAT_Elevator_01_Gates_mat","pbrMetallicRoughness":{"baseColorFactor":[0.6313726,0.737255,0.8078432,1],"metallicFactor":0.644,"roughnessFactor":0.509,"baseColorTexture":{"index":1,"extensions":{"KHR_texture_transform":{"offset":[0,1],"scale":[4,-4]}}}},"normalTexture":{"index":0,"extensions":{"KHR_texture_transform":{"offset":[0,1],"scale":[1,-1]}}}},{"name":"SWAT_Elevator_01_Board_mat","pbrMetallicRoughness":{"baseColorFactor":[0.137254864,0.184313685,0.227450967,1],"metallicFactor":0.421,"roughnessFactor":0.674,"baseColorTexture":{"index":1,"extensions":{"KHR_texture_transform":{"offset":[1.15,1],"scale":[5,-5]}}}},"normalTexture":{"index":0,"extensions":{"KHR_texture_transform":{"offset":[0,1],"scale":[1,-1]}}}},{"name":"SWAT_Elevator_01_Control_panel_mat","pbrMetallicRoughness":{"baseColorFactor":[0.206172228,0.462264121,0.102046944,1],"metallicFactor":0.375,"roughnessFactor":0.5,"baseColorTexture":{"index":1,"extensions":{"KHR_texture_transform":{"offset":[0,1],"scale":[4,-4]}}}},"normalTexture":{"index":0,"extensions":{"KHR_texture_transform":{"offset":[0,1],"scale":[1,-1]}}},"occlusionTexture":{"index":2,"extensions":{"KHR_texture_transform":{"offset":[0,1],"scale":[4,-4]}}}},{"name":"SWAT_Elevator_01_Display_mat","pbrMetallicRoughness":{"metallicFactor":0,"roughnessFactor":0.5,"baseColorTexture":{"index":4,"extensions":{"KHR_texture_transform":{"offset":[1.2,-0.269999981],"scale":[1,-1]}}}},"normalTexture":{"index":3,"extensions":{"KHR_texture_transform":{"offset":[0,1],"scale":[1,-1]}}}},{"name":"SWAT_Elevator_01_Frame_01_mat","pbrMetallicRoughness":{"baseColorFactor":[0.2745098,0.278431356,0.290196061,1],"metallicFactor":0.483,"roughnessFactor":0.706,"baseColorTexture":{"index":1,"extensions":{"KHR_texture_transform":{"offset":[0,1],"scale":[6,-6]}}}},"normalTexture":{"index":0,"extensions":{"KHR_texture_transform":{"offset":[0,1],"scale":[1,-1]}}},"occlusionTexture":{"index":2,"extensions":{"KHR_texture_transform":{"offset":[0,1],"scale":[6,-6]}}}},{"name":"SWAT_Elevator_01_Platform_Rods_mat","pbrMetallicRoughness":{"baseColorFactor":[0.9176471,0.6313726,0.199999988,1],"metallicFactor":0.554,"roughnessFactor":0.659000039,"baseColorTexture":{"index":1,"extensions":{"KHR_texture_transform":{"offset":[0,1],"scale":[6,-6]}}}},"normalTexture":{"index":0,"extensions":{"KHR_texture_transform":{"offset":[0,1],"scale":[1,-1]}}},"occlusionTexture":{"index":2,"extensions":{"KHR_texture_transform":{"offset":[0,1],"scale":[6,-6]}}}},{"name":"SWAT_Elevator_01_Platform_mat","pbrMetallicRoughness":{"baseColorFactor":[0.7254902,0.199999988,0.21960783,1],"metallicFactor":0.491,"roughnessFactor":0.784999967,"baseColorTexture":{"index":1,"extensions":{"KHR_texture_transform":{"offset":[0,1],"scale":[5,-5]}}}},"normalTexture":{"index":0,"extensions":{"KHR_texture_transform":{"offset":[0,1],"scale":[1,-1]}}},"occlusionTexture":{"index":2,"extensions":{"KHR_texture_transform":{"offset":[0,1],"scale":[5,-5]}}}},{"name":"SWAT_Elevator_01_Nuts_mat","pbrMetallicRoughness":{"baseColorFactor":[0.7169812,0.5056244,0.131221,1],"metallicFactor":0.546,"roughnessFactor":0.729,"baseColorTexture":{"index":1,"extensions":{"KHR_texture_transform":{"offset":[0,1],"scale":[1,-1]}}}},"normalTexture":{"index":0,"extensions":{"KHR_texture_transform":{"offset":[0,1],"scale":[1,-1]}}},"occlusionTexture":{"index":2,"extensions":{"KHR_texture_transform":{"offset":[0,1],"scale":[1,-1]}}}},{"name":"SWAT_Elevator_01_Frame_03_mat","pbrMetallicRoughness":{"baseColorFactor":[0.6313726,0.737255,0.8078432,1],"metallicFactor":0.627,"roughnessFactor":0.627,"baseColorTexture":{"index":1,"extensions":{"KHR_texture_transform":{"offset":[0,1],"scale":[6,-6]}}}},"normalTexture":{"index":0,"extensions":{"KHR_texture_transform":{"offset":[0,1],"scale":[1,-1]}}},"occlusionTexture":{"index":2,"extensions":{"KHR_texture_transform":{"offset":[0,1],"scale":[6,-6]}}}},{"name":"SWAT_Elevator_01_Frame_02_mat","pbrMetallicRoughness":{"baseColorFactor":[0.3764706,0.545098,0.647058845,1],"metallicFactor":0.46,"roughnessFactor":0.73,"baseColorTexture":{"index":1,"extensions":{"KHR_texture_transform":{"offset":[0,1],"scale":[4,-4]}}}},"normalTexture":{"index":0,"extensions":{"KHR_texture_transform":{"offset":[0,1],"scale":[1,-1]}}},"occlusionTexture":{"index":2,"extensions":{"KHR_texture_transform":{"offset":[0,1],"scale":[4,-4]}}}}],"meshes":[{"name":"Cylinder.001","primitives":[{"attributes":{"POSITION":0,"NORMAL":1,"TANGENT":2,"TEXCOORD_0":3},"indices":4,"material":0},{"attributes":{"POSITION":0,"NORMAL":1,"TANGENT":2,"TEXCOORD_0":3},"indices":5,"material":1}]},{"name":"Cylinder.013","primitives":[{"attributes":{"POSITION":6,"NORMAL":7,"TANGENT":8,"TEXCOORD_0":9},"indices":10,"material":0},{"attributes":{"POSITION":6,"NORMAL":7,"TANGENT":8,"TEXCOORD_0":9},"indices":11,"material":1}]},{"name":"Cylinder.019","primitives":[{"attributes":{"POSITION":12,"NORMAL":13,"TANGENT":14,"TEXCOORD_0":15},"indices":16,"material":2},{"attributes":{"POSITION":12,"NORMAL":13,"TANGENT":14,"TEXCOORD_0":15},"indices":17,"material":3},{"attributes":{"POSITION":12,"NORMAL":13,"TANGENT":14,"TEXCOORD_0":15},"indices":18,"material":4},{"attributes":{"POSITION":12,"NORMAL":13,"TANGENT":14,"TEXCOORD_0":15},"indices":19,"material":5},{"attributes":{"POSITION":12,"NORMAL":13,"TANGENT":14,"TEXCOORD_0":15},"indices":20,"material":6}]},{"name":"SWAT_Elevator_001","primitives":[{"attributes":{"POSITION":21,"NORMAL":22,"TANGENT":23,"TEXCOORD_0":24},"indices":25,"material":4},{"attributes":{"POSITION":21,"NORMAL":22,"TANGENT":23,"TEXCOORD_0":24},"indices":26,"material":7},{"attributes":{"POSITION":21,"NORMAL":22,"TANGENT":23,"TEXCOORD_0":24},"indices":27,"material":8},{"attributes":{"POSITION":21,"NORMAL":22,"TANGENT":23,"TEXCOORD_0":24},"indices":28,"material":9}]}],"scene":0,"scenes":[{"name":"SWAT_Elevator_02_001(Clone)","nodes":[4]}],"textures":[{"source":0},{"source":1},{"source":2},{"source":3},{"source":4}]}