{"asset":{"version":"2.0","generator":"Unity 2021.3.22f1 glTFast 4.8.3","lastModified":"06-07-2023 06:11:37","assetVersion":"1.0","expiryToken":1},"nodes":[{"name":"RC_Small_Building_05_Hay_Box(Clone)","mesh":0}],"extensionsRequired":["KHR_texture_transform"],"extensionsUsed":["KHR_texture_transform"],"buffers":[{"uri":"RC_Small_Building_05_Hay_Box.bin","byteLength":153768}],"bufferViews":[{"buffer":0,"byteLength":19224},{"buffer":0,"byteLength":134544,"byteOffset":19224,"byteStride":48}],"accessors":[{"bufferView":1,"componentType":5126,"count":2803,"type":"VEC3","max":[0.427250654,0.8971435,0.690221548],"min":[-0.427250654,-0.000312626362,-0.690221548]},{"bufferView":1,"componentType":5126,"count":2803,"type":"VEC3","byteOffset":12},{"bufferView":1,"componentType":5126,"count":2803,"type":"VEC4","byteOffset":24},{"bufferView":1,"componentType":5126,"count":2803,"type":"VEC2","byteOffset":40},{"bufferView":0,"componentType":5123,"count":9072,"type":"SCALAR"},{"bufferView":0,"componentType":5123,"count":540,"type":"SCALAR","byteOffset":18144}],"images":[{"name":"RC_Wood_06_Normal.png","uri":"RC_Wood_06_Normal.png","mimeType":"image/png"},{"name":"RC_Wood_06_Base.jpg","uri":"RC_Wood_06_Base.jpg","mimeType":"image/jpeg"},{"name":"RC_Ground_06_Normal.png","uri":"RC_Ground_06_Normal.png","mimeType":"image/png"},{"name":"RC_Ground_06_Colour.jpg","uri":"RC_Ground_06_Colour.jpg","mimeType":"image/jpeg"}],"materials":[{"name":"RC_Small_Building_05_Box_mat","pbrMetallicRoughness":{"baseColorFactor":[0.6320754,0.6320754,0.6320754,1],"metallicFactor":0.039,"roughnessFactor":0.921,"baseColorTexture":{"index":1,"extensions":{"KHR_texture_transform":{"offset":[0,1],"scale":[5,-5]}}}},"normalTexture":{"index":0,"extensions":{"KHR_texture_transform":{"offset":[0,1],"scale":[1,-1]}},"scale":2}},{"name":"RC_Small_Building_05_Hay_mat","pbrMetallicRoughness":{"baseColorFactor":[0.8301887,0.8301887,0.8301887,1],"metallicFactor":0,"baseColorTexture":{"index":3,"extensions":{"KHR_texture_transform":{"offset":[0,1],"scale":[3,-3]}}}},"normalTexture":{"index":2,"extensions":{"KHR_texture_transform":{"offset":[0,1],"scale":[1,-1]}}}}],"meshes":[{"name":"RC_Small_Building_05_Hay_Box","primitives":[{"attributes":{"POSITION":0,"NORMAL":1,"TANGENT":2,"TEXCOORD_0":3},"indices":4,"material":0},{"attributes":{"POSITION":0,"NORMAL":1,"TANGENT":2,"TEXCOORD_0":3},"indices":5,"material":1}]}],"scene":0,"scenes":[{"name":"RC_Small_Building_05_Hay_Box(Clone)","nodes":[0]}],"textures":[{"source":0},{"source":1},{"source":2},{"source":3}]}