{"asset":{"version":"2.0","generator":"Unity 2021.3.22f1 glTFast 4.8.3","lastModified":"17-05-2023 08:38:16","assetVersion":"1.0","expiryToken":1},"nodes":[{"name":"Metal_Bars(Clone)","mesh":0}],"extensionsRequired":["KHR_texture_transform"],"extensionsUsed":["KHR_texture_transform"],"buffers":[{"uri":"Metal_Bars.bin","byteLength":7920}],"bufferViews":[{"buffer":0,"byteLength":816},{"buffer":0,"byteLength":7104,"byteOffset":816,"byteStride":48}],"accessors":[{"bufferView":1,"componentType":5126,"count":148,"type":"VEC3","max":[0.7180863,1.8455286,0.12559016],"min":[-0.7050528,0.0104599,-0.001363039]},{"bufferView":1,"componentType":5126,"count":148,"type":"VEC3","byteOffset":12},{"bufferView":1,"componentType":5126,"count":148,"type":"VEC4","byteOffset":24},{"bufferView":1,"componentType":5126,"count":148,"type":"VEC2","byteOffset":40},{"bufferView":0,"componentType":5123,"count":408,"type":"SCALAR"}],"images":[{"name":"WildWest_Houses_N.png","uri":"WildWest_Houses_N.png","mimeType":"image/png"},{"name":"WildWest_Houses.jpg","uri":"WildWest_Houses.jpg","mimeType":"image/jpeg"},{"name":"WildWest_Houses_M.jpg","uri":"WildWest_Houses_M.jpg","mimeType":"image/jpeg"}],"materials":[{"name":"WildWest_Houses","pbrMetallicRoughness":{"baseColorTexture":{"index":1,"extensions":{"KHR_texture_transform":{"offset":[0,1],"scale":[1,-1]}}},"metallicRoughnessTexture":{"index":2,"extensions":{"KHR_texture_transform":{"offset":[0,1],"scale":[1,-1]}}}},"normalTexture":{"index":0,"extensions":{"KHR_texture_transform":{"offset":[0,1],"scale":[1,-1]}}},"doubleSided":true}],"meshes":[{"name":"Metal_Bars","primitives":[{"attributes":{"POSITION":0,"NORMAL":1,"TANGENT":2,"TEXCOORD_0":3},"indices":4,"material":0}]}],"samplers":[{"wrapS":33071,"wrapT":33071}],"scene":0,"scenes":[{"name":"Metal_Bars(Clone)","nodes":[0]}],"textures":[{"source":0,"sampler":0},{"source":1,"sampler":0},{"source":2}]}