{"asset":{"version":"2.0","generator":"Unity 2021.3.22f1 glTFast 4.8.3","lastModified":"06-07-2023 06:23:35","assetVersion":"1.0","expiryToken":1},"nodes":[{"name":"RC_Decorative_03(Clone)","mesh":0}],"extensionsRequired":["KHR_texture_transform"],"extensionsUsed":["KHR_texture_transform"],"buffers":[{"uri":"RC_Decorative_03.bin","byteLength":28116}],"bufferViews":[{"buffer":0,"byteLength":3252},{"buffer":0,"byteLength":24864,"byteOffset":3252,"byteStride":48}],"accessors":[{"bufferView":1,"componentType":5126,"count":518,"type":"VEC3","max":[0.467333674,0.590924144,1.53086007],"min":[-0.467333078,0.0104730129,-1.5308603]},{"bufferView":1,"componentType":5126,"count":518,"type":"VEC3","byteOffset":12},{"bufferView":1,"componentType":5126,"count":518,"type":"VEC4","byteOffset":24},{"bufferView":1,"componentType":5126,"count":518,"type":"VEC2","byteOffset":40},{"bufferView":0,"componentType":5123,"count":1620,"type":"SCALAR"},{"bufferView":0,"componentType":5123,"count":6,"type":"SCALAR","byteOffset":3240}],"images":[{"name":"RC_Wall_002_Normal.png","uri":"RC_Wall_002_Normal.png","mimeType":"image/png"},{"name":"RC_Marble_04_Base.jpg","uri":"RC_Marble_04_Base.jpg","mimeType":"image/jpeg"},{"name":"RC_Marble_04_Normal.png","uri":"RC_Marble_04_Normal.png","mimeType":"image/png"},{"name":"RC_Water_Normal.png","uri":"RC_Water_Normal.png","mimeType":"image/png"},{"name":"RC_Water_Color.jpg","uri":"RC_Water_Color.jpg","mimeType":"image/jpeg"}],"materials":[{"name":"RC_Decorative_03_mat","pbrMetallicRoughness":{"metallicFactor":0.321,"roughnessFactor":0.598,"baseColorTexture":{"index":1,"extensions":{"KHR_texture_transform":{"offset":[0,1],"scale":[4,-4]}}}},"normalTexture":{"index":0,"extensions":{"KHR_texture_transform":{"offset":[0,1],"scale":[1,-1]}}},"occlusionTexture":{"index":2,"extensions":{"KHR_texture_transform":{"offset":[0,1],"scale":[4,-4]}}}},{"name":"RC_Decorative_03_mat1","pbrMetallicRoughness":{"baseColorFactor":[1,1,1,0.8051948],"metallicFactor":0.72,"roughnessFactor":0.272,"baseColorTexture":{"index":4,"extensions":{"KHR_texture_transform":{"offset":[0,1],"scale":[4,-4]}}}},"normalTexture":{"index":3,"extensions":{"KHR_texture_transform":{"offset":[0,1],"scale":[1,-1]}},"scale":3},"alphaMode":"BLEND"}],"meshes":[{"name":"RC_Decorative_03","primitives":[{"attributes":{"POSITION":0,"NORMAL":1,"TANGENT":2,"TEXCOORD_0":3},"indices":4,"material":0},{"attributes":{"POSITION":0,"NORMAL":1,"TANGENT":2,"TEXCOORD_0":3},"indices":5,"material":1}]}],"scene":0,"scenes":[{"name":"RC_Decorative_03(Clone)","nodes":[0]}],"textures":[{"source":0},{"source":1},{"source":2},{"source":3},{"source":4}]}