{"asset":{"version":"2.0","generator":"Unity 2021.3.22f1 glTFast 4.8.3","lastModified":"26-05-2023 08:10:56","assetVersion":"1.0","expiryToken":1},"nodes":[{"name":"Mountain_03(Clone)","mesh":0}],"extensionsRequired":["KHR_texture_transform"],"extensionsUsed":["KHR_texture_transform"],"buffers":[{"uri":"Mountain_03.bin","byteLength":52396}],"bufferViews":[{"buffer":0,"byteLength":8436},{"buffer":0,"byteLength":43960,"byteOffset":8436,"byteStride":56}],"accessors":[{"bufferView":1,"componentType":5126,"count":785,"type":"VEC3","max":[59.63369,10.2940254,27.8634129],"min":[-59.63369,-0.0152750015,-27.8634129]},{"bufferView":1,"componentType":5126,"count":785,"type":"VEC3","byteOffset":12},{"bufferView":1,"componentType":5126,"count":785,"type":"VEC4","byteOffset":24},{"bufferView":1,"componentType":5126,"count":785,"type":"VEC2","byteOffset":40},{"bufferView":1,"componentType":5126,"count":785,"type":"VEC2","byteOffset":48},{"bufferView":0,"componentType":5123,"count":4218,"type":"SCALAR"}],"images":[{"name":"Mountains_n.png","uri":"Mountains_n.png","mimeType":"image/png"},{"name":"Mountains_d.jpg","uri":"Mountains_d.jpg","mimeType":"image/jpeg"},{"name":"Mountains_ao.jpg","uri":"Mountains_ao.jpg","mimeType":"image/jpeg"}],"materials":[{"name":"Mountains_mtl","pbrMetallicRoughness":{"baseColorFactor":[0.9485294,0.7483931,0.564932942,1],"metallicFactor":0,"baseColorTexture":{"index":1,"extensions":{"KHR_texture_transform":{"offset":[0,1],"scale":[1,-1]}}}},"normalTexture":{"index":0,"extensions":{"KHR_texture_transform":{"offset":[0,1],"scale":[1,-1]}}},"occlusionTexture":{"index":2,"extensions":{"KHR_texture_transform":{"offset":[0,1],"scale":[1,-1]}}},"doubleSided":true}],"meshes":[{"name":"Mountain02","primitives":[{"attributes":{"POSITION":0,"NORMAL":1,"TANGENT":2,"TEXCOORD_0":3,"TEXCOORD_1":4},"indices":5,"material":0}]}],"scene":0,"scenes":[{"name":"Mountain_03(Clone)","nodes":[0]}],"textures":[{"source":0},{"source":1},{"source":2}]}