{"asset":{"version":"2.0","generator":"Unity 2021.3.22f1 glTFast 4.8.3","lastModified":"06-07-2023 06:26:18","assetVersion":"1.0","expiryToken":1},"nodes":[{"name":"RC_Hay_Stack_01(Clone)","mesh":0}],"extensionsRequired":["KHR_texture_transform"],"extensionsUsed":["KHR_texture_transform"],"buffers":[{"uri":"RC_Hay_Stack_01.bin","byteLength":41880}],"bufferViews":[{"buffer":0,"byteLength":7128},{"buffer":0,"byteLength":34752,"byteOffset":7128,"byteStride":48}],"accessors":[{"bufferView":1,"componentType":5126,"count":724,"type":"VEC3","max":[0.375635922,0.5201716,0.754141],"min":[-0.384553373,-0.03364694,-0.734671235]},{"bufferView":1,"componentType":5126,"count":724,"type":"VEC3","byteOffset":12},{"bufferView":1,"componentType":5126,"count":724,"type":"VEC4","byteOffset":24},{"bufferView":1,"componentType":5126,"count":724,"type":"VEC2","byteOffset":40},{"bufferView":0,"componentType":5123,"count":2340,"type":"SCALAR"},{"bufferView":0,"componentType":5123,"count":1224,"type":"SCALAR","byteOffset":4680}],"images":[{"name":"RC_Ground_06_Normal.png","uri":"RC_Ground_06_Normal.png","mimeType":"image/png"},{"name":"RC_Ground_06_Colour.jpg","uri":"RC_Ground_06_Colour.jpg","mimeType":"image/jpeg"},{"name":"RC_Rope_01_Normal.png","uri":"RC_Rope_01_Normal.png","mimeType":"image/png"},{"name":"RC_Rope_01_Base.jpg","uri":"RC_Rope_01_Base.jpg","mimeType":"image/jpeg"}],"materials":[{"name":"RC_Hay_Stack_01_mat1","pbrMetallicRoughness":{"metallicFactor":0,"roughnessFactor":0.879,"baseColorTexture":{"index":1,"extensions":{"KHR_texture_transform":{"offset":[0,1],"scale":[4,-4]}}}},"normalTexture":{"index":0,"extensions":{"KHR_texture_transform":{"offset":[0,1],"scale":[1,-1]}}}},{"name":"RC_Hay_Stack_01_mat2","pbrMetallicRoughness":{"baseColorFactor":[0.735849,0.518410265,0.426931232,1],"metallicFactor":0.124,"roughnessFactor":0.913,"baseColorTexture":{"index":3,"extensions":{"KHR_texture_transform":{"offset":[0,1],"scale":[50,-50]}}}},"normalTexture":{"index":2,"extensions":{"KHR_texture_transform":{"offset":[0,1],"scale":[1,-1]}},"scale":2}}],"meshes":[{"name":"RC_Hay_Stack_01","primitives":[{"attributes":{"POSITION":0,"NORMAL":1,"TANGENT":2,"TEXCOORD_0":3},"indices":4,"material":0},{"attributes":{"POSITION":0,"NORMAL":1,"TANGENT":2,"TEXCOORD_0":3},"indices":5,"material":1}]}],"scene":0,"scenes":[{"name":"RC_Hay_Stack_01(Clone)","nodes":[0]}],"textures":[{"source":0},{"source":1},{"source":2},{"source":3}]}