{"asset":{"version":"2.0","generator":"Unity 2021.3.22f1 glTFast 4.8.3","lastModified":"17-05-2023 08:39:23","assetVersion":"1.0","expiryToken":1},"nodes":[{"name":"Wall_W3H3_T3 (15)","mesh":0,"translation":[-1.36200011,0.249,-1.315],"rotation":[-0.4999999,-0.50000006,-0.49999997,0.5000001],"scale":[0.925000846,0.957324743,1]},{"name":"Roof_W3_v1 (16)","mesh":1,"translation":[-1.472,-0.358,-1.44500017],"rotation":[1.54543134E-08,-0.707107,-1.54543169E-08,0.7071066]},{"name":"Roof_W3_v1 (18)","mesh":1,"translation":[-1.472,-0.358,1.55499983],"rotation":[-2.18557172E-08,1.32471323E-05,-2.84234848E-13,-1]},{"name":"Roof_W3_v1 (19)","mesh":1,"translation":[1.528,-0.358,-1.44500017],"rotation":[-8.19566637E-13,-1,2.18557226E-08,-3.810227E-05]},{"name":"Roof_W3_v1 (17)","mesh":1,"translation":[1.528,-0.358,1.55499983],"rotation":[-1.54539386E-08,0.707089067,-1.54547E-08,0.7071246]},{"name":"Water","mesh":2,"translation":[0.0210000277,0.6947571,0.05499983],"rotation":[-3.66962522E-05,0.707107,-3.70442831E-05,-0.7071066],"scale":[0.2834027,0.283402264,0.283402264]},{"name":"Wall_Support_T3_v2","mesh":3,"translation":[0.71,-0.07,1.5059998],"rotation":[2.18556941E-08,0,0,1],"scale":[0.5275976,0.5275976,0.5275976]},{"name":"Wall_Support_T3_v2 (1)","mesh":3,"translation":[0.71,-0.07,-1.41100025],"rotation":[3.46833673E-13,1,-2.18556924E-08,1.61230564E-05],"scale":[0.5275976,0.5275976,0.5275976]},{"name":"Wall_Support_T3_v2 (2)","mesh":3,"translation":[-1.42248023,-0.02,-0.1],"rotation":[-1.54536757E-08,0.707136035,-1.54549422E-08,-0.707077563],"scale":[0.850911,0.575484037,0.5754847]},{"name":"Wall_Support_T3_v2 (3)","mesh":3,"translation":[1.49452043,-0.02,-0.1],"rotation":[1.54546989E-08,0.707088947,-1.545392E-08,0.70712465],"scale":[0.850911,0.575484037,0.5754847]},{"name":"Fence_W3_v3","mesh":4,"translation":[0.0561885834,2.05,0.258808136],"rotation":[-0.70706743,0.007388874,0.00738895638,0.7070689],"scale":[1.20414233,1.20414281,1.20414281]},{"name":"Fence_W3_v5","mesh":5,"translation":[0.007564783,0.971,-1.302],"rotation":[2.18556941E-08,0,0,1],"scale":[1.10414207,1.10414207,1.10414207]},{"name":"Fence_W3_v5 (1)","mesh":5,"translation":[0.007564783,0.971,0.125999928],"rotation":[2.18556941E-08,0,0,1],"scale":[1.10414207,1.10414207,1.10414207]},{"name":"Fence_W3_v3 (1)","mesh":4,"translation":[0.03787613,2.179,-0.122000217],"rotation":[1.58068269E-05,0.6868245,0.72682333,-1.62626638E-05],"scale":[1.20414245,1.20414281,1.20414281]},{"name":"Fence_W3_v5 (2)","mesh":5,"translation":[0.007564783,0.971,1.40099978],"rotation":[2.18556941E-08,0,0,1],"scale":[1.10414207,1.10414207,1.10414207]},{"name":"WaterWell_v1_M2(Clone)","children":[0,1,2,3,4,5,6,7,8,9,10,11,12,13,14]}],"extensionsRequired":["KHR_texture_transform"],"extensionsUsed":["KHR_texture_transform"],"buffers":[{"uri":"WaterWell_v1_M2.bin","byteLength":36696}],"bufferViews":[{"buffer":0,"byteLength":12},{"buffer":0,"byteLength":192,"byteOffset":12,"byteStride":48},{"buffer":0,"byteLength":432,"byteOffset":204},{"buffer":0,"byteLength":2688,"byteOffset":636,"byteStride":48},{"buffer":0,"byteLength":1200,"byteOffset":3324},{"buffer":0,"byteLength":5808,"byteOffset":4524,"byteStride":48},{"buffer":0,"byteLength":60,"byteOffset":10332},{"buffer":0,"byteLength":576,"byteOffset":10392,"byteStride":48},{"buffer":0,"byteLength":1152,"byteOffset":10968},{"buffer":0,"byteLength":18432,"byteOffset":12120,"byteStride":48},{"buffer":0,"byteLength":720,"byteOffset":30552},{"buffer":0,"byteLength":5424,"byteOffset":31272,"byteStride":48}],"accessors":[{"bufferView":1,"componentType":5126,"count":4,"type":"VEC3","max":[3.00000215,2.99999976,3.09948064E-07],"min":[2.38418579E-06,7.15255737E-07,9.540855E-09]},{"bufferView":1,"componentType":5126,"count":4,"type":"VEC3","byteOffset":12},{"bufferView":1,"componentType":5126,"count":4,"type":"VEC4","byteOffset":24},{"bufferView":1,"componentType":5126,"count":4,"type":"VEC2","byteOffset":40},{"bufferView":0,"componentType":5123,"count":6,"type":"SCALAR"},{"bufferView":3,"componentType":5126,"count":56,"type":"VEC3","max":[3,1.39858544,5.51342964E-07],"min":[2.38418579E-06,-2.38418579E-07,-0.237948328]},{"bufferView":3,"componentType":5126,"count":56,"type":"VEC3","byteOffset":12},{"bufferView":3,"componentType":5126,"count":56,"type":"VEC4","byteOffset":24},{"bufferView":3,"componentType":5126,"count":56,"type":"VEC2","byteOffset":40},{"bufferView":2,"componentType":5123,"count":216,"type":"SCALAR"},{"bufferView":5,"componentType":5126,"count":121,"type":"VEC3","max":[5,1.110223E-16,5],"min":[-5,-1.110223E-16,-5]},{"bufferView":5,"componentType":5126,"count":121,"type":"VEC3","byteOffset":12},{"bufferView":5,"componentType":5126,"count":121,"type":"VEC4","byteOffset":24},{"bufferView":5,"componentType":5126,"count":121,"type":"VEC2","byteOffset":40},{"bufferView":4,"componentType":5123,"count":600,"type":"SCALAR"},{"bufferView":7,"componentType":5126,"count":12,"type":"VEC3","max":[0.7807609,1.31237745,0.994568],"min":[-0.7807611,0,0]},{"bufferView":7,"componentType":5126,"count":12,"type":"VEC3","byteOffset":12},{"bufferView":7,"componentType":5126,"count":12,"type":"VEC4","byteOffset":24},{"bufferView":7,"componentType":5126,"count":12,"type":"VEC2","byteOffset":40},{"bufferView":6,"componentType":5123,"count":30,"type":"SCALAR"},{"bufferView":9,"componentType":5126,"count":384,"type":"VEC3","max":[1.45732069,1.45217109,0.0585619956],"min":[-1.45732164,-3.57627869E-07,-0.08373274]},{"bufferView":9,"componentType":5126,"count":384,"type":"VEC3","byteOffset":12},{"bufferView":9,"componentType":5126,"count":384,"type":"VEC4","byteOffset":24},{"bufferView":9,"componentType":5126,"count":384,"type":"VEC2","byteOffset":40},{"bufferView":8,"componentType":5123,"count":576,"type":"SCALAR"},{"bufferView":11,"componentType":5126,"count":113,"type":"VEC3","max":[1.4776597,0.957164466,0.06269753],"min":[-1.47766066,0,-0.06269753]},{"bufferView":11,"componentType":5126,"count":113,"type":"VEC3","byteOffset":12},{"bufferView":11,"componentType":5126,"count":113,"type":"VEC4","byteOffset":24},{"bufferView":11,"componentType":5126,"count":113,"type":"VEC2","byteOffset":40},{"bufferView":10,"componentType":5123,"count":360,"type":"SCALAR"}],"images":[{"name":"WildWest_Houses2_N.png","uri":"WildWest_Houses2_N.png","mimeType":"image/png"},{"name":"WildWest_Houses2.jpg","uri":"WildWest_Houses2.jpg","mimeType":"image/jpeg"},{"name":"WildWest_Houses2_M.jpg","uri":"WildWest_Houses2_M.jpg","mimeType":"image/jpeg"},{"name":"Water.png","uri":"Water.png","mimeType":"image/png"}],"materials":[{"name":"WildWest_Houses2","pbrMetallicRoughness":{"baseColorTexture":{"index":1,"extensions":{"KHR_texture_transform":{"offset":[0,1],"scale":[1,-1]}}},"metallicRoughnessTexture":{"index":2,"extensions":{"KHR_texture_transform":{"offset":[0,1],"scale":[1,-1]}}}},"normalTexture":{"index":0,"extensions":{"KHR_texture_transform":{"offset":[0,1],"scale":[1,-1]}}},"doubleSided":true},{"name":"Water","pbrMetallicRoughness":{"baseColorFactor":[0.2969918,0.6797916,0.8867924,1],"metallicFactor":0.939,"roughnessFactor":0.478},"normalTexture":{"index":3,"extensions":{"KHR_texture_transform":{"offset":[0,1],"scale":[1,-1]}}},"alphaMode":"MASK","doubleSided":true}],"meshes":[{"name":"Wall_W3H3_T3","primitives":[{"attributes":{"POSITION":0,"NORMAL":1,"TANGENT":2,"TEXCOORD_0":3},"indices":4,"material":0}]},{"name":"Roof_W3_v1","primitives":[{"attributes":{"POSITION":5,"NORMAL":6,"TANGENT":7,"TEXCOORD_0":8},"indices":9,"material":0}]},{"name":"Plane","primitives":[{"attributes":{"POSITION":10,"NORMAL":11,"TANGENT":12,"TEXCOORD_0":13},"indices":14,"material":1}]},{"name":"Wall_Support_T3_v2","primitives":[{"attributes":{"POSITION":15,"NORMAL":16,"TANGENT":17,"TEXCOORD_0":18},"indices":19,"material":0}]},{"name":"Fence_W3_v3","primitives":[{"attributes":{"POSITION":20,"NORMAL":21,"TANGENT":22,"TEXCOORD_0":23},"indices":24,"material":0}]},{"name":"Fence_W3_v5","primitives":[{"attributes":{"POSITION":25,"NORMAL":26,"TANGENT":27,"TEXCOORD_0":28},"indices":29,"material":0}]}],"samplers":[{"wrapS":33071,"wrapT":33071}],"scene":0,"scenes":[{"name":"WaterWell_v1_M2(Clone)","nodes":[15]}],"textures":[{"source":0,"sampler":0},{"source":1,"sampler":0},{"source":2},{"source":3}]}