{"asset":{"version":"2.0","generator":"Unity 2021.3.22f1 glTFast 4.8.3","lastModified":"06-07-2023 06:26:28","assetVersion":"1.0","expiryToken":1},"nodes":[{"name":"RC_Horse_07(Clone)","mesh":0}],"extensionsRequired":["KHR_texture_transform"],"extensionsUsed":["KHR_texture_transform"],"buffers":[{"uri":"RC_Horse_07.bin","byteLength":189120}],"bufferViews":[{"buffer":0,"byteLength":31584},{"buffer":0,"byteLength":157536,"byteOffset":31584,"byteStride":48}],"accessors":[{"bufferView":1,"componentType":5126,"count":3282,"type":"VEC3","max":[0.32545948,1.85806262,0.983583152],"min":[-0.32545948,0,-0.9835833]},{"bufferView":1,"componentType":5126,"count":3282,"type":"VEC3","byteOffset":12},{"bufferView":1,"componentType":5126,"count":3282,"type":"VEC4","byteOffset":24},{"bufferView":1,"componentType":5126,"count":3282,"type":"VEC2","byteOffset":40},{"bufferView":0,"componentType":5123,"count":15792,"type":"SCALAR"}],"images":[{"name":"RC_Pillars.jpg","uri":"RC_Pillars.jpg","mimeType":"image/jpeg"}],"materials":[{"name":"RC_Horse_07_mat","pbrMetallicRoughness":{"metallicFactor":0,"roughnessFactor":0.553,"baseColorTexture":{"index":0,"extensions":{"KHR_texture_transform":{"offset":[0,1],"scale":[1,-1]}}}}}],"meshes":[{"name":"RC_Horse_07","primitives":[{"attributes":{"POSITION":0,"NORMAL":1,"TANGENT":2,"TEXCOORD_0":3},"indices":4,"material":0}]}],"scene":0,"scenes":[{"name":"RC_Horse_07(Clone)","nodes":[0]}],"textures":[{"source":0}]}