{"asset":{"version":"2.0","generator":"Unity 2021.3.22f1 glTFast 4.8.3","lastModified":"14-07-2023 05:13:02","assetVersion":"1.0","expiryToken":1},"nodes":[{"name":"SWAT_Cloth_covered_crate_base","mesh":0},{"name":"SWAT_Cloth_covered_crate_belt","mesh":1},{"name":"SWAT_Cloth_covered_crate_belt_tightening","mesh":2},{"name":"SWAT_Cloth_covered_crate_box","mesh":3,"scale":[1,0.94849,1]},{"name":"SWAT_Cloth_covered_crate_cloth","mesh":4},{"name":"SWAT_Cloth_covered_crate_001(Clone)","children":[0,1,2,3,4]}],"extensionsRequired":["KHR_texture_transform"],"extensionsUsed":["KHR_texture_transform"],"buffers":[{"uri":"SWAT_Cloth_covered_crate_001.bin","byteLength":206124}],"bufferViews":[{"buffer":0,"byteLength":264},{"buffer":0,"byteLength":4928,"byteOffset":264,"byteStride":56},{"buffer":0,"byteLength":3312,"byteOffset":5192},{"buffer":0,"byteLength":32704,"byteOffset":8504,"byteStride":56},{"buffer":0,"byteLength":2784,"byteOffset":41208},{"buffer":0,"byteLength":32928,"byteOffset":43992,"byteStride":56},{"buffer":0,"byteLength":5928,"byteOffset":76920},{"buffer":0,"byteLength":84672,"byteOffset":82848,"byteStride":56},{"buffer":0,"byteLength":6348,"byteOffset":167520},{"buffer":0,"byteLength":32256,"byteOffset":173868,"byteStride":56}],"accessors":[{"bufferView":1,"componentType":5126,"count":88,"type":"VEC3","max":[0.405152082,0.08985721,0.289023578],"min":[-0.405152082,0.0164735019,-0.289252222]},{"bufferView":1,"componentType":5126,"count":88,"type":"VEC3","byteOffset":12},{"bufferView":1,"componentType":5126,"count":88,"type":"VEC4","byteOffset":24},{"bufferView":1,"componentType":5126,"count":88,"type":"VEC2","byteOffset":40},{"bufferView":1,"componentType":5126,"count":88,"type":"VEC2","byteOffset":48},{"bufferView":0,"componentType":5123,"count":132,"type":"SCALAR"},{"bufferView":3,"componentType":5126,"count":584,"type":"VEC3","max":[0.5188309,1.0125432,0.228687212],"min":[-0.517844558,0.008597493,-0.220677212]},{"bufferView":3,"componentType":5126,"count":584,"type":"VEC3","byteOffset":12},{"bufferView":3,"componentType":5126,"count":584,"type":"VEC4","byteOffset":24},{"bufferView":3,"componentType":5126,"count":584,"type":"VEC2","byteOffset":40},{"bufferView":3,"componentType":5126,"count":584,"type":"VEC2","byteOffset":48},{"bufferView":2,"componentType":5123,"count":1656,"type":"SCALAR"},{"bufferView":5,"componentType":5126,"count":588,"type":"VEC3","max":[0.5092517,0.622142434,0.238324314],"min":[-0.5092517,0.577091336,-0.230314285]},{"bufferView":5,"componentType":5126,"count":588,"type":"VEC3","byteOffset":12},{"bufferView":5,"componentType":5126,"count":588,"type":"VEC4","byteOffset":24},{"bufferView":5,"componentType":5126,"count":588,"type":"VEC2","byteOffset":40},{"bufferView":5,"componentType":5126,"count":588,"type":"VEC2","byteOffset":48},{"bufferView":4,"componentType":5123,"count":1392,"type":"SCALAR"},{"bufferView":7,"componentType":5126,"count":1512,"type":"VEC3","max":[0.4990271,0.999915361,0.498912722],"min":[-0.4990271,8.478761E-05,-0.499141425]},{"bufferView":7,"componentType":5126,"count":1512,"type":"VEC3","byteOffset":12},{"bufferView":7,"componentType":5126,"count":1512,"type":"VEC4","byteOffset":24},{"bufferView":7,"componentType":5126,"count":1512,"type":"VEC2","byteOffset":40},{"bufferView":7,"componentType":5126,"count":1512,"type":"VEC2","byteOffset":48},{"bufferView":6,"componentType":5123,"count":2964,"type":"SCALAR"},{"bufferView":9,"componentType":5126,"count":576,"type":"VEC3","max":[0.617042661,1.00841022,0.6354401],"min":[-0.6223767,0.5322521,-0.6326904]},{"bufferView":9,"componentType":5126,"count":576,"type":"VEC3","byteOffset":12},{"bufferView":9,"componentType":5126,"count":576,"type":"VEC4","byteOffset":24},{"bufferView":9,"componentType":5126,"count":576,"type":"VEC2","byteOffset":40},{"bufferView":9,"componentType":5126,"count":576,"type":"VEC2","byteOffset":48},{"bufferView":8,"componentType":5123,"count":3174,"type":"SCALAR"}],"images":[{"name":"SWAT_Metal_n.png","uri":"SWAT_Metal_n.png","mimeType":"image/png"},{"name":"SWAT_Metal_d.jpg","uri":"SWAT_Metal_d.jpg","mimeType":"image/jpeg"},{"name":"SWAT_Metal_ao.jpg","uri":"SWAT_Metal_ao.jpg","mimeType":"image/jpeg"},{"name":"SWAT_Cloth_covered_with_crate_belt_n.png","uri":"SWAT_Cloth_covered_with_crate_belt_n.png","mimeType":"image/png"},{"name":"SWAT_Cloth_covered_with_crate_belt_b.jpg","uri":"SWAT_Cloth_covered_with_crate_belt_b.jpg","mimeType":"image/jpeg"},{"name":"SWAT_Cloth_covered_with_crate_belt_ao.jpg","uri":"SWAT_Cloth_covered_with_crate_belt_ao.jpg","mimeType":"image/jpeg"},{"name":"SWAT_Cloth_covered_with_crate_cloth_n.png","uri":"SWAT_Cloth_covered_with_crate_cloth_n.png","mimeType":"image/png"},{"name":"SWAT_Cloth_covered_with_crate_cloth_b.jpg","uri":"SWAT_Cloth_covered_with_crate_cloth_b.jpg","mimeType":"image/jpeg"}],"materials":[{"name":"SWAT_Cloth_covered_crate_box_mat","pbrMetallicRoughness":{"baseColorFactor":[0.7254902,0.199999988,0.21960783,1],"metallicFactor":0.217,"roughnessFactor":0.573,"baseColorTexture":{"index":1,"extensions":{"KHR_texture_transform":{"offset":[0,1],"scale":[3,-3]}}}},"normalTexture":{"index":0,"extensions":{"KHR_texture_transform":{"offset":[0,1],"scale":[1,-1]}}},"occlusionTexture":{"index":2,"extensions":{"KHR_texture_transform":{"offset":[0,1],"scale":[3,-3]}}}},{"name":"SWAT_Cloth_covered_crate_belt_mat","pbrMetallicRoughness":{"baseColorFactor":[0.9063317,0.9063317,0.9063317,1],"metallicFactor":0,"roughnessFactor":0.5,"baseColorTexture":{"index":4,"extensions":{"KHR_texture_transform":{"offset":[0,1],"scale":[1,-1]}}}},"normalTexture":{"index":3,"extensions":{"KHR_texture_transform":{"offset":[0,1],"scale":[1,-1]}}},"occlusionTexture":{"index":5,"extensions":{"KHR_texture_transform":{"offset":[0,1],"scale":[1,-1]}}}},{"name":"SWAT_Cloth_covered_crate_belt_tightening_mat","pbrMetallicRoughness":{"baseColorFactor":[0.9063317,0.9063317,0.9063317,1],"metallicFactor":0,"roughnessFactor":0.5,"baseColorTexture":{"index":4,"extensions":{"KHR_texture_transform":{"offset":[0,1],"scale":[1,-1]}}}},"normalTexture":{"index":3,"extensions":{"KHR_texture_transform":{"offset":[0,1],"scale":[1,-1]}}},"occlusionTexture":{"index":5,"extensions":{"KHR_texture_transform":{"offset":[0,1],"scale":[1,-1]}}}},{"name":"SWAT_Cloth_covered_crate_cloth_mat","pbrMetallicRoughness":{"baseColorFactor":[0.9063317,0.9063317,0.9063317,1],"metallicFactor":0,"baseColorTexture":{"index":7,"extensions":{"KHR_texture_transform":{"offset":[0,1],"scale":[0.5,-0.5]}}}},"normalTexture":{"index":6,"extensions":{"KHR_texture_transform":{"offset":[0,1],"scale":[1,-1]}}}}],"meshes":[{"name":"SWAT_Cloth_covered_crate_base","primitives":[{"attributes":{"POSITION":0,"NORMAL":1,"TANGENT":2,"TEXCOORD_0":3,"TEXCOORD_1":4},"indices":5,"material":0}]},{"name":"SWAT_Cloth_covered_crate_belt","primitives":[{"attributes":{"POSITION":6,"NORMAL":7,"TANGENT":8,"TEXCOORD_0":9,"TEXCOORD_1":10},"indices":11,"material":1}]},{"name":"SWAT_Cloth_covered_crate_belt_tightening","primitives":[{"attributes":{"POSITION":12,"NORMAL":13,"TANGENT":14,"TEXCOORD_0":15,"TEXCOORD_1":16},"indices":17,"material":2}]},{"name":"SWAT_Cloth_covered_crate_box","primitives":[{"attributes":{"POSITION":18,"NORMAL":19,"TANGENT":20,"TEXCOORD_0":21,"TEXCOORD_1":22},"indices":23,"material":0}]},{"name":"SWAT_Cloth_covered_crate_cloth","primitives":[{"attributes":{"POSITION":24,"NORMAL":25,"TANGENT":26,"TEXCOORD_0":27,"TEXCOORD_1":28},"indices":29,"material":3}]}],"scene":0,"scenes":[{"name":"SWAT_Cloth_covered_crate_001(Clone)","nodes":[5]}],"textures":[{"source":0},{"source":1},{"source":2},{"source":3},{"source":4},{"source":5},{"source":6},{"source":7}]}