{"asset":{"version":"2.0","generator":"Unity 2021.3.22f1 glTFast 4.8.3","lastModified":"06-07-2023 06:01:07","assetVersion":"1.0","expiryToken":1},"nodes":[{"name":"RC_Bush_03(Clone)","mesh":0}],"extensionsRequired":["KHR_texture_transform"],"extensionsUsed":["KHR_texture_transform"],"buffers":[{"uri":"RC_Bush_03.bin","byteLength":196488}],"bufferViews":[{"buffer":0,"byteLength":20376},{"buffer":0,"byteLength":176112,"byteOffset":20376,"byteStride":48}],"accessors":[{"bufferView":1,"componentType":5126,"count":3669,"type":"VEC3","max":[11.7240572,1.18870974,11.8109741],"min":[-0.975991249,0,-1.0009203]},{"bufferView":1,"componentType":5126,"count":3669,"type":"VEC3","byteOffset":12},{"bufferView":1,"componentType":5126,"count":3669,"type":"VEC4","byteOffset":24},{"bufferView":1,"componentType":5126,"count":3669,"type":"VEC2","byteOffset":40},{"bufferView":0,"componentType":5123,"count":9144,"type":"SCALAR"},{"bufferView":0,"componentType":5123,"count":1044,"type":"SCALAR","byteOffset":18288}],"images":[{"name":"RC_Grass_05_Color.png","uri":"RC_Grass_05_Color.png","mimeType":"image/png"},{"name":"RC_Grass_06_Normal.png","uri":"RC_Grass_06_Normal.png","mimeType":"image/png"},{"name":"RC_Grass_06_Color.jpg","uri":"RC_Grass_06_Color.jpg","mimeType":"image/jpeg"}],"materials":[{"name":"RC_Bushes_Leaf_mat","pbrMetallicRoughness":{"metallicFactor":0.145,"roughnessFactor":0.79,"baseColorTexture":{"index":0,"extensions":{"KHR_texture_transform":{"offset":[0,1],"scale":[1,-1]}}}},"alphaMode":"BLEND"},{"name":"RC_Bush_03_mat","pbrMetallicRoughness":{"metallicFactor":0.043,"roughnessFactor":0.939,"baseColorTexture":{"index":2,"extensions":{"KHR_texture_transform":{"offset":[0,1],"scale":[7,-7]}}}},"normalTexture":{"index":1,"extensions":{"KHR_texture_transform":{"offset":[0,1],"scale":[1,-1]}}}}],"meshes":[{"name":"RC_Bush_03","primitives":[{"attributes":{"POSITION":0,"NORMAL":1,"TANGENT":2,"TEXCOORD_0":3},"indices":4,"material":0},{"attributes":{"POSITION":0,"NORMAL":1,"TANGENT":2,"TEXCOORD_0":3},"indices":5,"material":1}]}],"scene":0,"scenes":[{"name":"RC_Bush_03(Clone)","nodes":[0]}],"textures":[{"source":0},{"source":1},{"source":2}]}