{"asset":{"version":"2.0","generator":"Unity 2021.3.22f1 glTFast 4.8.3","lastModified":"17-10-2023 07:57:57","assetVersion":"1.0","expiryToken":1},"nodes":[{"name":"HT_Carpet_04(Clone)","mesh":0}],"extensionsRequired":["KHR_texture_transform"],"extensionsUsed":["KHR_texture_transform"],"buffers":[{"uri":"HT_Carpet_04.bin","byteLength":636}],"bufferViews":[{"buffer":0,"byteLength":60},{"buffer":0,"byteLength":576,"byteOffset":60,"byteStride":48}],"accessors":[{"bufferView":1,"componentType":5126,"count":12,"type":"VEC3","max":[2.29099822,0.0148579618,1.39714909],"min":[-2.29099822,-6.146729E-08,-1.39714956]},{"bufferView":1,"componentType":5126,"count":12,"type":"VEC3","byteOffset":12},{"bufferView":1,"componentType":5126,"count":12,"type":"VEC4","byteOffset":24},{"bufferView":1,"componentType":5126,"count":12,"type":"VEC2","byteOffset":40},{"bufferView":0,"componentType":5123,"count":30,"type":"SCALAR"}],"images":[{"name":"HT_Carpet_04_05_Normal.png","uri":"HT_Carpet_04_05_Normal.png","mimeType":"image/png"},{"name":"HT_Carpet_04_05_Color.jpg","uri":"HT_Carpet_04_05_Color.jpg","mimeType":"image/jpeg"},{"name":"HT_Carpet_04_05_Metallic.jpg","uri":"HT_Carpet_04_05_Metallic.jpg","mimeType":"image/jpeg"}],"materials":[{"name":"HT_Carpet_04_mat","pbrMetallicRoughness":{"baseColorFactor":[0.7353569,0.7353569,0.7353569,1],"baseColorTexture":{"index":1,"extensions":{"KHR_texture_transform":{"offset":[0,1],"scale":[1,-1]}}},"metallicRoughnessTexture":{"index":2,"extensions":{"KHR_texture_transform":{"offset":[0,1],"scale":[1,-1]}}}},"normalTexture":{"index":0,"extensions":{"KHR_texture_transform":{"offset":[0,1],"scale":[1,-1]}}},"occlusionTexture":{"index":2,"extensions":{"KHR_texture_transform":{"offset":[0,1],"scale":[1,-1]}}}}],"meshes":[{"name":"HT_Carpet_04","primitives":[{"attributes":{"POSITION":0,"NORMAL":1,"TANGENT":2,"TEXCOORD_0":3},"indices":4,"material":0}]}],"scene":0,"scenes":[{"name":"HT_Carpet_04(Clone)","nodes":[0]}],"textures":[{"source":0},{"source":1},{"source":2}]}