{"asset":{"version":"2.0","generator":"Unity 2021.3.22f1 glTFast 4.8.3","lastModified":"06-07-2023 06:15:54","assetVersion":"1.0","expiryToken":1},"nodes":[{"name":"RC_Square_Mosaic_Ground(Clone)","mesh":0}],"extensionsRequired":["KHR_texture_transform"],"extensionsUsed":["KHR_texture_transform"],"buffers":[{"uri":"RC_Square_Mosaic_Ground.bin","byteLength":1224}],"bufferViews":[{"buffer":0,"byteLength":72},{"buffer":0,"byteLength":1152,"byteOffset":72,"byteStride":48}],"accessors":[{"bufferView":1,"componentType":5126,"count":24,"type":"VEC3","max":[6.90752649,0.103022389,6.90752649],"min":[-6.90752649,0.00176543,-6.90752649]},{"bufferView":1,"componentType":5126,"count":24,"type":"VEC3","byteOffset":12},{"bufferView":1,"componentType":5126,"count":24,"type":"VEC4","byteOffset":24},{"bufferView":1,"componentType":5126,"count":24,"type":"VEC2","byteOffset":40},{"bufferView":0,"componentType":5123,"count":36,"type":"SCALAR"}],"images":[{"name":"RC_Ground_07_Normal.png","uri":"RC_Ground_07_Normal.png","mimeType":"image/png"},{"name":"RC_Ground_07_Color.jpg","uri":"RC_Ground_07_Color.jpg","mimeType":"image/jpeg"}],"materials":[{"name":"RC_Square_Mosaic_Ground_mat","pbrMetallicRoughness":{"metallicFactor":0,"baseColorTexture":{"index":1,"extensions":{"KHR_texture_transform":{"offset":[0,1],"scale":[1,-1]}}}},"normalTexture":{"index":0,"extensions":{"KHR_texture_transform":{"offset":[0,1],"scale":[1,-1]}},"scale":2}}],"meshes":[{"name":"RC_Square_Mosaic_Ground","primitives":[{"attributes":{"POSITION":0,"NORMAL":1,"TANGENT":2,"TEXCOORD_0":3},"indices":4,"material":0}]}],"scene":0,"scenes":[{"name":"RC_Square_Mosaic_Ground(Clone)","nodes":[0]}],"textures":[{"source":0},{"source":1}]}