{"asset":{"version":"2.0","generator":"Unity 2021.3.22f1 glTFast 4.8.3","lastModified":"06-07-2023 06:16:33","assetVersion":"1.0","expiryToken":1},"nodes":[{"name":"RC_Statue_08(Clone)","mesh":0}],"extensionsRequired":["KHR_texture_transform"],"extensionsUsed":["KHR_texture_transform"],"buffers":[{"uri":"RC_Statue_08.bin","byteLength":416172}],"bufferViews":[{"buffer":0,"byteLength":76620},{"buffer":0,"byteLength":339552,"byteOffset":76620,"byteStride":48}],"accessors":[{"bufferView":1,"componentType":5126,"count":7074,"type":"VEC3","max":[1.27578747,5.12301159,1.38768709],"min":[-1.33335793,0,-1.38981783]},{"bufferView":1,"componentType":5126,"count":7074,"type":"VEC3","byteOffset":12},{"bufferView":1,"componentType":5126,"count":7074,"type":"VEC4","byteOffset":24},{"bufferView":1,"componentType":5126,"count":7074,"type":"VEC2","byteOffset":40},{"bufferView":0,"componentType":5123,"count":35430,"type":"SCALAR"},{"bufferView":0,"componentType":5123,"count":2880,"type":"SCALAR","byteOffset":70860}],"images":[{"name":"RC_Statue_08_Normal.png","uri":"RC_Statue_08_Normal.png","mimeType":"image/png"},{"name":"RC_Pillar_Colour_04.jpg","uri":"RC_Pillar_Colour_04.jpg","mimeType":"image/jpeg"},{"name":"RC_Statue_08_Globe_Normal.png","uri":"RC_Statue_08_Globe_Normal.png","mimeType":"image/png"}],"materials":[{"name":"RC_Statue_08_mat1","pbrMetallicRoughness":{"baseColorFactor":[0.790730655,0.790730655,0.790730655,1],"metallicFactor":0,"roughnessFactor":0.5,"baseColorTexture":{"index":1,"extensions":{"KHR_texture_transform":{"offset":[0,1],"scale":[1,-1]}}}},"normalTexture":{"index":0,"extensions":{"KHR_texture_transform":{"offset":[0,1],"scale":[1,-1]}}}},{"name":"RC_Statue_08_mat2","pbrMetallicRoughness":{"metallicFactor":0,"roughnessFactor":0.5,"baseColorTexture":{"index":1,"extensions":{"KHR_texture_transform":{"offset":[0,1],"scale":[1,-1]}}}},"normalTexture":{"index":2,"extensions":{"KHR_texture_transform":{"offset":[0,1],"scale":[1,-1]}}}}],"meshes":[{"name":"RC_Statue_08","primitives":[{"attributes":{"POSITION":0,"NORMAL":1,"TANGENT":2,"TEXCOORD_0":3},"indices":4,"material":0},{"attributes":{"POSITION":0,"NORMAL":1,"TANGENT":2,"TEXCOORD_0":3},"indices":5,"material":1}]}],"scene":0,"scenes":[{"name":"RC_Statue_08(Clone)","nodes":[0]}],"textures":[{"source":0},{"source":1},{"source":2}]}