{"asset":{"version":"2.0","generator":"Unity 2021.3.22f1 glTFast 4.8.3","lastModified":"17-05-2023 08:35:48","assetVersion":"1.0","expiryToken":1},"nodes":[{"name":"Cactus_v3(Clone)","mesh":0}],"extensionsRequired":["KHR_texture_transform"],"extensionsUsed":["KHR_texture_transform"],"buffers":[{"uri":"Cactus_v3.bin","byteLength":14688}],"bufferViews":[{"buffer":0,"byteLength":1824},{"buffer":0,"byteLength":12864,"byteOffset":1824,"byteStride":64}],"accessors":[{"bufferView":1,"componentType":5126,"count":201,"type":"VEC3","max":[0.429538131,2.64459753,0.252690732],"min":[-0.586413741,0,-0.3737623]},{"bufferView":1,"componentType":5126,"count":201,"type":"VEC3","byteOffset":12},{"bufferView":1,"componentType":5126,"count":201,"type":"VEC4","byteOffset":24},{"bufferView":1,"componentType":5126,"count":201,"type":"VEC4","byteOffset":40},{"bufferView":1,"componentType":5126,"count":201,"type":"VEC2","byteOffset":56},{"bufferView":0,"componentType":5123,"count":912,"type":"SCALAR"}],"images":[{"name":"WildWest_Vegetation_N.png","uri":"WildWest_Vegetation_N.png","mimeType":"image/png"},{"name":"WildWest_Vegetation.png","uri":"WildWest_Vegetation.png","mimeType":"image/png"}],"materials":[{"name":"WildWest_Vegetation_Prefabs","pbrMetallicRoughness":{"metallicFactor":0.029,"roughnessFactor":0.5,"baseColorTexture":{"index":1,"extensions":{"KHR_texture_transform":{"offset":[0,1],"scale":[1,-1]}}}},"normalTexture":{"index":0,"extensions":{"KHR_texture_transform":{"offset":[0,1],"scale":[1,-1]}}},"alphaMode":"MASK","doubleSided":true}],"meshes":[{"name":"Cactus_v3","primitives":[{"attributes":{"POSITION":0,"NORMAL":1,"TANGENT":2,"TEXCOORD_0":4,"COLOR_0":3},"indices":5,"material":0}]}],"samplers":[{"wrapS":33071,"wrapT":33071}],"scene":0,"scenes":[{"name":"Cactus_v3(Clone)","nodes":[0]}],"textures":[{"source":0,"sampler":0},{"source":1,"sampler":0}]}