{"asset":{"version":"2.0","generator":"Unity 2021.3.22f1 glTFast 4.8.3","lastModified":"06-07-2023 06:26:40","assetVersion":"1.0","expiryToken":1},"nodes":[{"name":"RC_Market_Crate_01(Clone)","mesh":0}],"extensionsRequired":["KHR_texture_transform"],"extensionsUsed":["KHR_texture_transform"],"buffers":[{"uri":"RC_Market_Crate_01.bin","byteLength":12360}],"bufferViews":[{"buffer":0,"byteLength":840},{"buffer":0,"byteLength":11520,"byteOffset":840,"byteStride":48}],"accessors":[{"bufferView":1,"componentType":5126,"count":240,"type":"VEC3","max":[0.4468621,0.88285625,0.446861148],"min":[-0.4468614,0,-0.446862578]},{"bufferView":1,"componentType":5126,"count":240,"type":"VEC3","byteOffset":12},{"bufferView":1,"componentType":5126,"count":240,"type":"VEC4","byteOffset":24},{"bufferView":1,"componentType":5126,"count":240,"type":"VEC2","byteOffset":40},{"bufferView":0,"componentType":5123,"count":420,"type":"SCALAR"}],"images":[{"name":"RC_Wood_09_Normal.png","uri":"RC_Wood_09_Normal.png","mimeType":"image/png"},{"name":"RC_Wood_09_Base.jpg","uri":"RC_Wood_09_Base.jpg","mimeType":"image/jpeg"}],"materials":[{"name":"RC_Market_Crate_01_mat","pbrMetallicRoughness":{"baseColorFactor":[0.754716933,0.754716933,0.754716933,1],"metallicFactor":0,"roughnessFactor":0.85,"baseColorTexture":{"index":1,"extensions":{"KHR_texture_transform":{"offset":[0,1],"scale":[3,-3]}}}},"normalTexture":{"index":0,"extensions":{"KHR_texture_transform":{"offset":[0,1],"scale":[1,-1]}}}}],"meshes":[{"name":"RC_Market_Crate_01","primitives":[{"attributes":{"POSITION":0,"NORMAL":1,"TANGENT":2,"TEXCOORD_0":3},"indices":4,"material":0}]}],"scene":0,"scenes":[{"name":"RC_Market_Crate_01(Clone)","nodes":[0]}],"textures":[{"source":0},{"source":1}]}