{"asset":{"version":"2.0","generator":"Unity 2021.3.22f1 glTFast 4.8.3","lastModified":"12-07-2023 06:59:45","assetVersion":"1.0","expiryToken":1},"nodes":[{"name":"wall_4(Clone)","mesh":0}],"extensionsRequired":["KHR_texture_transform"],"extensionsUsed":["KHR_texture_transform"],"buffers":[{"uri":"wall_4.bin","byteLength":1224}],"bufferViews":[{"buffer":0,"byteLength":72},{"buffer":0,"byteLength":1152,"byteOffset":72,"byteStride":48}],"accessors":[{"bufferView":1,"componentType":5126,"count":24,"type":"VEC3","max":[2,4,0.25],"min":[-2,0,-0.25]},{"bufferView":1,"componentType":5126,"count":24,"type":"VEC3","byteOffset":12},{"bufferView":1,"componentType":5126,"count":24,"type":"VEC4","byteOffset":24},{"bufferView":1,"componentType":5126,"count":24,"type":"VEC2","byteOffset":40},{"bufferView":0,"componentType":5123,"count":36,"type":"SCALAR"}],"images":[{"name":"wall_texture2_1_nm.png","uri":"wall_texture2_1_nm.png","mimeType":"image/png"},{"name":"wall_texture2_1.jpg","uri":"wall_texture2_1.jpg","mimeType":"image/jpeg"}],"materials":[{"name":"wall_4","pbrMetallicRoughness":{"baseColorFactor":[0.5140457,0.5140457,0.5140457,1],"metallicFactor":0,"baseColorTexture":{"index":1,"extensions":{"KHR_texture_transform":{"offset":[0,1],"scale":[1,-1]}}}},"normalTexture":{"index":0,"extensions":{"KHR_texture_transform":{"offset":[0,1],"scale":[1,-1]}}},"doubleSided":true}],"meshes":[{"name":"wallx4","primitives":[{"attributes":{"POSITION":0,"NORMAL":1,"TANGENT":2,"TEXCOORD_0":3},"indices":4,"material":0}]}],"scene":0,"scenes":[{"name":"wall_4(Clone)","nodes":[0]}],"textures":[{"source":0},{"source":1}]}