{"asset":{"version":"2.0","generator":"Unity 2021.3.22f1 glTFast 4.8.3","lastModified":"12-07-2023 06:59:52","assetVersion":"1.0","expiryToken":1},"nodes":[{"name":"watertankA(Clone)","mesh":0}],"extensionsRequired":["KHR_texture_transform"],"extensionsUsed":["KHR_texture_transform"],"buffers":[{"uri":"watertankA.bin","byteLength":67884}],"bufferViews":[{"buffer":0,"byteLength":7692},{"buffer":0,"byteLength":60192,"byteOffset":7692,"byteStride":48}],"accessors":[{"bufferView":1,"componentType":5126,"count":1254,"type":"VEC3","max":[3.41931581,7.41090536,2.01218772],"min":[-3.41931677,-0.01556921,-2.01218772]},{"bufferView":1,"componentType":5126,"count":1254,"type":"VEC3","byteOffset":12},{"bufferView":1,"componentType":5126,"count":1254,"type":"VEC4","byteOffset":24},{"bufferView":1,"componentType":5126,"count":1254,"type":"VEC2","byteOffset":40},{"bufferView":0,"componentType":5123,"count":3846,"type":"SCALAR"}],"images":[{"name":"watertankA_tex.jpg","uri":"watertankA_tex.jpg","mimeType":"image/jpeg"}],"materials":[{"name":"watertankA_mat","pbrMetallicRoughness":{"baseColorFactor":[0.7353569,0.7353569,0.7353569,1],"metallicFactor":0,"baseColorTexture":{"index":0,"extensions":{"KHR_texture_transform":{"offset":[0,1],"scale":[1,-1]}}}},"doubleSided":true}],"meshes":[{"name":"watertankA","primitives":[{"attributes":{"POSITION":0,"NORMAL":1,"TANGENT":2,"TEXCOORD_0":3},"indices":4,"material":0}]}],"scene":0,"scenes":[{"name":"watertankA(Clone)","nodes":[0]}],"textures":[{"source":0}]}