{"asset":{"version":"2.0","generator":"Unity 2021.3.22f1 glTFast 4.8.3","lastModified":"06-07-2023 06:35:54","assetVersion":"1.0","expiryToken":1},"nodes":[{"name":"RC_Temple_01_Base_01","mesh":0,"rotation":[2.18556941E-08,0,0,1]},{"name":"RC_Temple_01_Door_01","mesh":1,"translation":[0,1.136,0],"rotation":[2.18556941E-08,0,0,1]},{"name":"RC_Temple_01_Pillar_01","mesh":2,"translation":[-2.97,1.08,2.35],"rotation":[2.18556941E-08,0,0,1]},{"name":"RC_Temple_01_Roof_01","mesh":3,"translation":[0,5.41,-1.02],"rotation":[2.18556941E-08,0,0,1]},{"name":"RC_Temple_01_Stairs_01","mesh":4,"translation":[0.008,0.2794,5.34407949],"rotation":[2.18556941E-08,0,0,1]},{"name":"RC_Temple_01_Structure_01","mesh":5,"translation":[0,1.09000015,-1.32],"rotation":[2.18556941E-08,0,0,1]},{"name":"RC_Temple_01_Pillar_01","mesh":2,"translation":[-1.08,1.08,2.35],"rotation":[2.18556941E-08,0,0,1]},{"name":"RC_Temple_01_Pillar_01","mesh":2,"translation":[1.438,1.08,2.35],"rotation":[2.18556941E-08,0,0,1]},{"name":"RC_Temple_01_Pillar_01","mesh":2,"translation":[2.963,1.08,2.35],"rotation":[2.18556941E-08,0,0,1]},{"name":"RC_Temple_01_Pillar_01","mesh":2,"translation":[2.963,1.08,0.69],"rotation":[2.18556941E-08,0,0,1]},{"name":"RC_Temple_01_Pillar_01","mesh":2,"translation":[2.963,1.08,-1.04],"rotation":[2.18556941E-08,0,0,1]},{"name":"RC_Temple_01_Pillar_01","mesh":2,"translation":[2.963,1.08,-3.2],"rotation":[2.18556941E-08,0,0,1]},{"name":"RC_Temple_01_Pillar_01","mesh":2,"translation":[2.963,1.08,-5.3],"rotation":[2.18556941E-08,0,0,1]},{"name":"RC_Temple_01_Pillar_01","mesh":2,"translation":[-2.96999955,1.08,0.69],"rotation":[2.18556941E-08,0,0,1]},{"name":"RC_Temple_01_Pillar_01","mesh":2,"translation":[-2.96999955,1.08,-1.04],"rotation":[2.18556941E-08,0,0,1]},{"name":"RC_Temple_01_Pillar_01","mesh":2,"translation":[-2.97,1.08,-3.2],"rotation":[2.18556941E-08,0,0,1]},{"name":"RC_Temple_01_Pillar_01","mesh":2,"translation":[-2.96999955,1.08,-5.3],"rotation":[2.18556941E-08,0,0,1]},{"name":"RC_Small_Temple_01(Clone)","children":[0,1,2,3,4,5,6,7,8,9,10,11,12,13,14,15,16]}],"extensionsRequired":["KHR_texture_transform"],"extensionsUsed":["KHR_texture_transform"],"buffers":[{"uri":"RC_Small_Temple_01.bin","byteLength":439536}],"bufferViews":[{"buffer":0,"byteLength":1704},{"buffer":0,"byteLength":17472,"byteOffset":1704,"byteStride":48},{"buffer":0,"byteLength":14592,"byteOffset":19176},{"buffer":0,"byteLength":184320,"byteOffset":33768,"byteStride":48},{"buffer":0,"byteLength":16128,"byteOffset":218088},{"buffer":0,"byteLength":127344,"byteOffset":234216,"byteStride":48},{"buffer":0,"byteLength":3696,"byteOffset":361560},{"buffer":0,"byteLength":41472,"byteOffset":365256,"byteStride":48},{"buffer":0,"byteLength":720,"byteOffset":406728},{"buffer":0,"byteLength":11520,"byteOffset":407448,"byteStride":48},{"buffer":0,"byteLength":2088,"byteOffset":418968},{"buffer":0,"byteLength":18480,"byteOffset":421056,"byteStride":48}],"accessors":[{"bufferView":1,"componentType":5126,"count":364,"type":"VEC3","max":[4.494395,1.11269128,5.993191],"min":[-4.494395,-2.38418579E-07,-6.62693]},{"bufferView":1,"componentType":5126,"count":364,"type":"VEC3","byteOffset":12},{"bufferView":1,"componentType":5126,"count":364,"type":"VEC4","byteOffset":24},{"bufferView":1,"componentType":5126,"count":364,"type":"VEC2","byteOffset":40},{"bufferView":0,"componentType":5123,"count":810,"type":"SCALAR"},{"bufferView":0,"componentType":5123,"count":42,"type":"SCALAR","byteOffset":1620},{"bufferView":3,"componentType":5126,"count":3840,"type":"VEC3","max":[1.07291865,4.021428,0.0232181139],"min":[-1.07291913,0,-0.143067271]},{"bufferView":3,"componentType":5126,"count":3840,"type":"VEC3","byteOffset":12},{"bufferView":3,"componentType":5126,"count":3840,"type":"VEC4","byteOffset":24},{"bufferView":3,"componentType":5126,"count":3840,"type":"VEC2","byteOffset":40},{"bufferView":2,"componentType":5123,"count":5760,"type":"SCALAR"},{"bufferView":2,"componentType":5123,"count":1536,"type":"SCALAR","byteOffset":11520},{"bufferView":5,"componentType":5126,"count":2653,"type":"VEC3","max":[0.51301384,4.39290047,0.5130105],"min":[-0.5130131,0,-0.5130167]},{"bufferView":5,"componentType":5126,"count":2653,"type":"VEC3","byteOffset":12},{"bufferView":5,"componentType":5126,"count":2653,"type":"VEC4","byteOffset":24},{"bufferView":5,"componentType":5126,"count":2653,"type":"VEC2","byteOffset":40},{"bufferView":4,"componentType":5123,"count":8064,"type":"SCALAR"},{"bufferView":7,"componentType":5126,"count":864,"type":"VEC3","max":[3.626093,1.81288362,4.19940138],"min":[-3.62602139,-2.38418579E-07,-5.12834024]},{"bufferView":7,"componentType":5126,"count":864,"type":"VEC3","byteOffset":12},{"bufferView":7,"componentType":5126,"count":864,"type":"VEC4","byteOffset":24},{"bufferView":7,"componentType":5126,"count":864,"type":"VEC2","byteOffset":40},{"bufferView":6,"componentType":5123,"count":1752,"type":"SCALAR"},{"bufferView":6,"componentType":5123,"count":36,"type":"SCALAR","byteOffset":3504},{"bufferView":6,"componentType":5123,"count":12,"type":"SCALAR","byteOffset":3576},{"bufferView":6,"componentType":5123,"count":12,"type":"SCALAR","byteOffset":3600},{"bufferView":6,"componentType":5123,"count":36,"type":"SCALAR","byteOffset":3624},{"bufferView":9,"componentType":5126,"count":240,"type":"VEC3","max":[2.95503283,0.83740896,0],"min":[-2.95503283,0,-1.998534]},{"bufferView":9,"componentType":5126,"count":240,"type":"VEC3","byteOffset":12},{"bufferView":9,"componentType":5126,"count":240,"type":"VEC4","byteOffset":24},{"bufferView":9,"componentType":5126,"count":240,"type":"VEC2","byteOffset":40},{"bufferView":8,"componentType":5123,"count":360,"type":"SCALAR"},{"bufferView":11,"componentType":5126,"count":385,"type":"VEC3","max":[3.01009417,5.14969158,1.48654616],"min":[-3.0102582,0,-3.71514368]},{"bufferView":11,"componentType":5126,"count":385,"type":"VEC3","byteOffset":12},{"bufferView":11,"componentType":5126,"count":385,"type":"VEC4","byteOffset":24},{"bufferView":11,"componentType":5126,"count":385,"type":"VEC2","byteOffset":40},{"bufferView":10,"componentType":5123,"count":588,"type":"SCALAR"},{"bufferView":10,"componentType":5123,"count":24,"type":"SCALAR","byteOffset":1176},{"bufferView":10,"componentType":5123,"count":432,"type":"SCALAR","byteOffset":1224}],"images":[{"name":"RC_Pillars_Normal.png","uri":"RC_Pillars_Normal.png","mimeType":"image/png"},{"name":"RC_Pillars.jpg","uri":"RC_Pillars.jpg","mimeType":"image/jpeg"},{"name":"RC_Pillar_Colour_01.jpg","uri":"RC_Pillar_Colour_01.jpg","mimeType":"image/jpeg"},{"name":"RC_Metal_02_Normal.png","uri":"RC_Metal_02_Normal.png","mimeType":"image/png"},{"name":"RC_Metal_02_Base.jpg","uri":"RC_Metal_02_Base.jpg","mimeType":"image/jpeg"},{"name":"RC_Metal_01_Normal.png","uri":"RC_Metal_01_Normal.png","mimeType":"image/png"},{"name":"RC_Metal_01_Base.jpg","uri":"RC_Metal_01_Base.jpg","mimeType":"image/jpeg"},{"name":"RC_Pillar_Colour_11.jpg","uri":"RC_Pillar_Colour_11.jpg","mimeType":"image/jpeg"},{"name":"RC_Wall_020_Normal.png","uri":"RC_Wall_020_Normal.png","mimeType":"image/png"},{"name":"RC_Wall_020_Base.jpg","uri":"RC_Wall_020_Base.jpg","mimeType":"image/jpeg"},{"name":"RC_Roof_005_Normal.png","uri":"RC_Roof_005_Normal.png","mimeType":"image/png"},{"name":"RC_Roof_005_Base.jpg","uri":"RC_Roof_005_Base.jpg","mimeType":"image/jpeg"},{"name":"RC_Roof_006_AO.jpg","uri":"RC_Roof_006_AO.jpg","mimeType":"image/jpeg"},{"name":"RC_Wall_022_Normal.png","uri":"RC_Wall_022_Normal.png","mimeType":"image/png"},{"name":"RC_Wall_022_Base.jpg","uri":"RC_Wall_022_Base.jpg","mimeType":"image/jpeg"},{"name":"RC_Pillar_Colour_04.jpg","uri":"RC_Pillar_Colour_04.jpg","mimeType":"image/jpeg"}],"materials":[{"name":"RC_Temple_01_Base_01_mat1","pbrMetallicRoughness":{"metallicFactor":0.3,"roughnessFactor":0.852,"baseColorTexture":{"index":1,"extensions":{"KHR_texture_transform":{"offset":[0,1],"scale":[1,-1]}}}},"normalTexture":{"index":0,"extensions":{"KHR_texture_transform":{"offset":[0,1],"scale":[1,-1]}},"scale":0.1}},{"name":"RC_Temple_01_Base_01_mat2","pbrMetallicRoughness":{"metallicFactor":0,"roughnessFactor":0.803,"baseColorTexture":{"index":2,"extensions":{"KHR_texture_transform":{"offset":[0,1],"scale":[30,-30]}}}},"normalTexture":{"index":0,"extensions":{"KHR_texture_transform":{"offset":[0,1],"scale":[1,-1]}}}},{"name":"RC_Temple_01_Door_01_mat1","pbrMetallicRoughness":{"metallicFactor":0.827,"roughnessFactor":0.22299999,"baseColorTexture":{"index":4,"extensions":{"KHR_texture_transform":{"offset":[0,1],"scale":[5,-5]}}}},"normalTexture":{"index":3,"extensions":{"KHR_texture_transform":{"offset":[0,1],"scale":[1,-1]}}}},{"name":"RC_Temple_01_Door_01_mat2","pbrMetallicRoughness":{"baseColorFactor":[0.8584906,0.8584906,0.8584906,1],"metallicFactor":0.635,"roughnessFactor":0.204999983,"baseColorTexture":{"index":6,"extensions":{"KHR_texture_transform":{"offset":[0,1],"scale":[5,-5]}}}},"normalTexture":{"index":5,"extensions":{"KHR_texture_transform":{"offset":[0,1],"scale":[1,-1]}}}},{"name":"RC_Temple_01_Pillar_01_mat","pbrMetallicRoughness":{"baseColorFactor":[0.9063317,0.9063317,0.9063317,1],"metallicFactor":0,"roughnessFactor":0.5,"baseColorTexture":{"index":7,"extensions":{"KHR_texture_transform":{"offset":[0,1],"scale":[1,-1]}}}}},{"name":"RC_Temple_01_Roof_01_mat1","pbrMetallicRoughness":{"baseColorFactor":[0.9063317,0.9063317,0.9063317,1],"metallicFactor":0,"roughnessFactor":0.831,"baseColorTexture":{"index":1,"extensions":{"KHR_texture_transform":{"offset":[0,1],"scale":[1,-1]}}}},"normalTexture":{"index":0,"extensions":{"KHR_texture_transform":{"offset":[0,1],"scale":[1,-1]}},"scale":0.1}},{"name":"RC_Temple_01_Roof_01_mat3","pbrMetallicRoughness":{"baseColorFactor":[1,0.759434,0.759434,1],"metallicFactor":0,"roughnessFactor":0.5,"baseColorTexture":{"index":9,"extensions":{"KHR_texture_transform":{"offset":[0,-0.78],"scale":[30,-30]}}}},"normalTexture":{"index":8,"extensions":{"KHR_texture_transform":{"offset":[0,1],"scale":[1,-1]}}}},{"name":"RC_Temple_01_Roof_01_mat5","pbrMetallicRoughness":{"metallicFactor":0,"roughnessFactor":0.934,"baseColorTexture":{"index":11,"extensions":{"KHR_texture_transform":{"offset":[0,1],"scale":[20,-10]}}}},"normalTexture":{"index":10,"extensions":{"KHR_texture_transform":{"offset":[0,1],"scale":[1,-1]}}},"occlusionTexture":{"index":12,"extensions":{"KHR_texture_transform":{"offset":[0,1],"scale":[20,-10]}}}},{"name":"RC_Temple_01_Roof_01_mat2","pbrMetallicRoughness":{"baseColorFactor":[1,0.655963242,0,1],"metallicFactor":0.574,"roughnessFactor":0.426,"baseColorTexture":{"index":14,"extensions":{"KHR_texture_transform":{"offset":[0,0.5],"scale":[15,-20.3]}}}},"normalTexture":{"index":13,"extensions":{"KHR_texture_transform":{"offset":[0,1],"scale":[1,-1]}}}},{"name":"RC_Temple_01_Roof_01_mat4","pbrMetallicRoughness":{"metallicFactor":0,"roughnessFactor":0.863999963,"baseColorTexture":{"index":1,"extensions":{"KHR_texture_transform":{"offset":[0,1],"scale":[10,-10]}}}},"normalTexture":{"index":0,"extensions":{"KHR_texture_transform":{"offset":[0,1],"scale":[1,-1]}}}},{"name":"RC_Temple_01_Stairs_01_mat","pbrMetallicRoughness":{"metallicFactor":0.3,"roughnessFactor":0.852,"baseColorTexture":{"index":1,"extensions":{"KHR_texture_transform":{"offset":[0,1],"scale":[3,-3]}}}},"normalTexture":{"index":0,"extensions":{"KHR_texture_transform":{"offset":[0,1],"scale":[1,-1]}},"scale":0.1}},{"name":"RC_Temple_01_Structure_01_mat1","pbrMetallicRoughness":{"baseColorFactor":[0.9063317,0.9063317,0.9063317,1],"metallicFactor":0,"roughnessFactor":0.5,"baseColorTexture":{"index":7,"extensions":{"KHR_texture_transform":{"offset":[0,-0.320000052],"scale":[4,-4]}}}}},{"name":"RC_Temple_01_Structure_01_mat2","pbrMetallicRoughness":{"baseColorFactor":[0.211764663,0.46457684,0.552941144,1],"metallicFactor":0,"roughnessFactor":0.863999963,"baseColorTexture":{"index":15,"extensions":{"KHR_texture_transform":{"offset":[0,1],"scale":[10,-10]}}}},"normalTexture":{"index":0,"extensions":{"KHR_texture_transform":{"offset":[0,1],"scale":[1,-1]}}}},{"name":"RC_Temple_01_Structure_01_mat3","pbrMetallicRoughness":{"metallicFactor":0,"roughnessFactor":0.5,"baseColorTexture":{"index":1,"extensions":{"KHR_texture_transform":{"offset":[0,1],"scale":[10,-10]}}}},"normalTexture":{"index":0,"extensions":{"KHR_texture_transform":{"offset":[0,1],"scale":[1,-1]}}}}],"meshes":[{"name":"RC_Temple_01_Base_01","primitives":[{"attributes":{"POSITION":0,"NORMAL":1,"TANGENT":2,"TEXCOORD_0":3},"indices":4,"material":0},{"attributes":{"POSITION":0,"NORMAL":1,"TANGENT":2,"TEXCOORD_0":3},"indices":5,"material":1}]},{"name":"RC_Temple_01_Door_01","primitives":[{"attributes":{"POSITION":6,"NORMAL":7,"TANGENT":8,"TEXCOORD_0":9},"indices":10,"material":2},{"attributes":{"POSITION":6,"NORMAL":7,"TANGENT":8,"TEXCOORD_0":9},"indices":11,"material":3}]},{"name":"RC_Temple_01_Pillar_01","primitives":[{"attributes":{"POSITION":12,"NORMAL":13,"TANGENT":14,"TEXCOORD_0":15},"indices":16,"material":4}]},{"name":"RC_Temple_01_Roof_01","primitives":[{"attributes":{"POSITION":17,"NORMAL":18,"TANGENT":19,"TEXCOORD_0":20},"indices":21,"material":5},{"attributes":{"POSITION":17,"NORMAL":18,"TANGENT":19,"TEXCOORD_0":20},"indices":22,"material":6},{"attributes":{"POSITION":17,"NORMAL":18,"TANGENT":19,"TEXCOORD_0":20},"indices":23,"material":7},{"attributes":{"POSITION":17,"NORMAL":18,"TANGENT":19,"TEXCOORD_0":20},"indices":24,"material":8},{"attributes":{"POSITION":17,"NORMAL":18,"TANGENT":19,"TEXCOORD_0":20},"indices":25,"material":9}]},{"name":"RC_Temple_01_Stairs_01","primitives":[{"attributes":{"POSITION":26,"NORMAL":27,"TANGENT":28,"TEXCOORD_0":29},"indices":30,"material":10}]},{"name":"RC_Temple_01_Structure_01","primitives":[{"attributes":{"POSITION":31,"NORMAL":32,"TANGENT":33,"TEXCOORD_0":34},"indices":35,"material":11},{"attributes":{"POSITION":31,"NORMAL":32,"TANGENT":33,"TEXCOORD_0":34},"indices":36,"material":12},{"attributes":{"POSITION":31,"NORMAL":32,"TANGENT":33,"TEXCOORD_0":34},"indices":37,"material":13}]}],"scene":0,"scenes":[{"name":"RC_Small_Temple_01(Clone)","nodes":[17]}],"textures":[{"source":0},{"source":1},{"source":2},{"source":3},{"source":4},{"source":5},{"source":6},{"source":7},{"source":8},{"source":9},{"source":10},{"source":11},{"source":12},{"source":13},{"source":14},{"source":15}]}