{"asset":{"version":"2.0","generator":"Unity 2021.3.22f1 glTFast 4.8.3","lastModified":"26-05-2023 08:10:30","assetVersion":"1.0","expiryToken":1},"nodes":[{"name":"Crate_closed(Clone)","mesh":0}],"extensionsRequired":["KHR_texture_transform"],"extensionsUsed":["KHR_texture_transform"],"buffers":[{"uri":"Crate_closed.bin","byteLength":16848}],"bufferViews":[{"buffer":0,"byteLength":1296},{"buffer":0,"byteLength":15552,"byteOffset":1296,"byteStride":48}],"accessors":[{"bufferView":1,"componentType":5126,"count":324,"type":"VEC3","max":[0.3063218,0.39439705,0.1987403],"min":[-0.3063218,0,-0.1987403]},{"bufferView":1,"componentType":5126,"count":324,"type":"VEC3","byteOffset":12},{"bufferView":1,"componentType":5126,"count":324,"type":"VEC4","byteOffset":24},{"bufferView":1,"componentType":5126,"count":324,"type":"VEC2","byteOffset":40},{"bufferView":0,"componentType":5123,"count":648,"type":"SCALAR"}],"images":[{"name":"Crate_n.png","uri":"Crate_n.png","mimeType":"image/png"},{"name":"Crate_d.jpg","uri":"Crate_d.jpg","mimeType":"image/jpeg"},{"name":"Crate_ao.jpg","uri":"Crate_ao.jpg","mimeType":"image/jpeg"}],"materials":[{"name":"Crate_mtl","pbrMetallicRoughness":{"metallicFactor":0,"roughnessFactor":0.37,"baseColorTexture":{"index":1,"extensions":{"KHR_texture_transform":{"offset":[0,1],"scale":[1,-1]}}}},"normalTexture":{"index":0,"extensions":{"KHR_texture_transform":{"offset":[0,1],"scale":[1,-1]}}},"occlusionTexture":{"index":2,"extensions":{"KHR_texture_transform":{"offset":[0,1],"scale":[1,-1]}}},"doubleSided":true}],"meshes":[{"name":"Crate_closed","primitives":[{"attributes":{"POSITION":0,"NORMAL":1,"TANGENT":2,"TEXCOORD_0":3},"indices":4,"material":0}]}],"scene":0,"scenes":[{"name":"Crate_closed(Clone)","nodes":[0]}],"textures":[{"source":0},{"source":1},{"source":2}]}