{"asset":{"version":"2.0","generator":"Unity 2021.3.22f1 glTFast 4.8.3","lastModified":"06-07-2023 06:09:11","assetVersion":"1.0","expiryToken":1},"nodes":[{"name":"RC_Small_Building_011_Front_Building(Clone)","mesh":0}],"extensionsRequired":["KHR_texture_transform"],"extensionsUsed":["KHR_texture_transform"],"buffers":[{"uri":"RC_Small_Building_011_Front_Building.bin","byteLength":173424}],"bufferViews":[{"buffer":0,"byteLength":16176},{"buffer":0,"byteLength":157248,"byteOffset":16176,"byteStride":48}],"accessors":[{"bufferView":1,"componentType":5126,"count":3276,"type":"VEC3","max":[4.52638435,4.397161,1.48850083],"min":[-4.666828,0,-1.97541261]},{"bufferView":1,"componentType":5126,"count":3276,"type":"VEC3","byteOffset":12},{"bufferView":1,"componentType":5126,"count":3276,"type":"VEC4","byteOffset":24},{"bufferView":1,"componentType":5126,"count":3276,"type":"VEC2","byteOffset":40},{"bufferView":0,"componentType":5123,"count":1440,"type":"SCALAR"},{"bufferView":0,"componentType":5123,"count":564,"type":"SCALAR","byteOffset":2880},{"bufferView":0,"componentType":5123,"count":5400,"type":"SCALAR","byteOffset":4008},{"bufferView":0,"componentType":5123,"count":684,"type":"SCALAR","byteOffset":14808}],"images":[{"name":"RC_Wall_03.jpg","uri":"RC_Wall_03.jpg","mimeType":"image/jpeg"},{"name":"RC_Wall_04.jpg","uri":"RC_Wall_04.jpg","mimeType":"image/jpeg"},{"name":"RC_Wood_06_Normal.png","uri":"RC_Wood_06_Normal.png","mimeType":"image/png"},{"name":"RC_Wood_06_Base.jpg","uri":"RC_Wood_06_Base.jpg","mimeType":"image/jpeg"},{"name":"RC_Wood_09_Normal.png","uri":"RC_Wood_09_Normal.png","mimeType":"image/png"},{"name":"RC_Wood_09_Base.jpg","uri":"RC_Wood_09_Base.jpg","mimeType":"image/jpeg"}],"materials":[{"name":"RC_Small_Building_011_Front_Building_wall_mat","pbrMetallicRoughness":{"metallicFactor":0.017,"roughnessFactor":0.963,"baseColorTexture":{"index":0,"extensions":{"KHR_texture_transform":{"offset":[0,-0.0599999428],"scale":[3,-3]}}}}},{"name":"RC_Small_Building_011_Front_Building_Yellow_wall_mat","pbrMetallicRoughness":{"baseColorFactor":[0.9811321,0.9811321,0.9811321,1],"metallicFactor":0.044,"roughnessFactor":0.958,"baseColorTexture":{"index":1,"extensions":{"KHR_texture_transform":{"offset":[0,1.52],"scale":[1.4,-1.07]}}}}},{"name":"RC_Small_Building_011_Front_Building_wall_Window_mat","pbrMetallicRoughness":{"baseColorFactor":[0.6886792,0.6886792,0.6886792,1],"metallicFactor":0,"baseColorTexture":{"index":3,"extensions":{"KHR_texture_transform":{"offset":[0,1],"scale":[5,-5]}}}},"normalTexture":{"index":2,"extensions":{"KHR_texture_transform":{"offset":[0,1],"scale":[1,-1]}}}},{"name":"RC_Small_Building_011_Front_Building_wall_Wood_mat","pbrMetallicRoughness":{"baseColorFactor":[0.5471698,0.5471698,0.5471698,1],"metallicFactor":0.052,"roughnessFactor":0.939,"baseColorTexture":{"index":5,"extensions":{"KHR_texture_transform":{"offset":[0,1],"scale":[2,-2]}}}},"normalTexture":{"index":4,"extensions":{"KHR_texture_transform":{"offset":[0,1],"scale":[1,-1]}},"scale":0.2}}],"meshes":[{"name":"RC_Small_Building_011_Front_Building","primitives":[{"attributes":{"POSITION":0,"NORMAL":1,"TANGENT":2,"TEXCOORD_0":3},"indices":4,"material":0},{"attributes":{"POSITION":0,"NORMAL":1,"TANGENT":2,"TEXCOORD_0":3},"indices":5,"material":1},{"attributes":{"POSITION":0,"NORMAL":1,"TANGENT":2,"TEXCOORD_0":3},"indices":6,"material":2},{"attributes":{"POSITION":0,"NORMAL":1,"TANGENT":2,"TEXCOORD_0":3},"indices":7,"material":3}]}],"scene":0,"scenes":[{"name":"RC_Small_Building_011_Front_Building(Clone)","nodes":[0]}],"textures":[{"source":0},{"source":1},{"source":2},{"source":3},{"source":4},{"source":5}]}