{"asset":{"version":"2.0","generator":"Unity 2021.3.22f1 glTFast 4.8.3","lastModified":"13-10-2023 06:49:01","assetVersion":"1.0","expiryToken":1},"nodes":[{"name":"MV_Tree_05_Bark","mesh":0},{"name":"MV_Tree_05_Leaf_01","mesh":1},{"name":"MV_Tree_05_Leaf_02","mesh":2},{"name":"MV_Tree_05_Leaf_03","mesh":3},{"name":"MV_Tree_05(Clone)","children":[0,1,2,3]}],"extensionsRequired":["KHR_texture_transform"],"extensionsUsed":["KHR_texture_transform"],"buffers":[{"uri":"MV_Tree_05.bin","byteLength":138740}],"bufferViews":[{"buffer":0,"byteLength":6984},{"buffer":0,"byteLength":35040,"byteOffset":6984,"byteStride":48},{"buffer":0,"byteLength":2304,"byteOffset":42024},{"buffer":0,"byteLength":29900,"byteOffset":44328,"byteStride":52},{"buffer":0,"byteLength":2304,"byteOffset":74228},{"buffer":0,"byteLength":29952,"byteOffset":76532,"byteStride":52},{"buffer":0,"byteLength":2304,"byteOffset":106484},{"buffer":0,"byteLength":29952,"byteOffset":108788,"byteStride":52}],"accessors":[{"bufferView":1,"componentType":5126,"count":730,"type":"VEC3","max":[5.533085,7.98028326,2.69858837],"min":[-3.61614966,0,-1.8389684]},{"bufferView":1,"componentType":5126,"count":730,"type":"VEC3","byteOffset":12},{"bufferView":1,"componentType":5126,"count":730,"type":"VEC4","byteOffset":24},{"bufferView":1,"componentType":5126,"count":730,"type":"VEC2","byteOffset":40},{"bufferView":0,"componentType":5123,"count":3492,"type":"SCALAR"},{"bufferView":3,"componentType":5126,"count":575,"type":"VEC3","max":[7.28893,10.03439,4.56224537],"min":[-0.920941353,3.40333176,-4.03611469]},{"bufferView":3,"componentType":5126,"count":575,"type":"VEC3","byteOffset":12},{"bufferView":3,"componentType":5126,"count":575,"type":"VEC4","byteOffset":24},{"bufferView":3,"componentType":5121,"count":575,"type":"VEC4","byteOffset":40},{"bufferView":3,"componentType":5126,"count":575,"type":"VEC2","byteOffset":44},{"bufferView":2,"componentType":5123,"count":1152,"type":"SCALAR"},{"bufferView":5,"componentType":5126,"count":576,"type":"VEC3","max":[2.42854643,11.5926857,5.501574],"min":[-5.91927,4.30315971,-3.28221846]},{"bufferView":5,"componentType":5126,"count":576,"type":"VEC3","byteOffset":12},{"bufferView":5,"componentType":5126,"count":576,"type":"VEC4","byteOffset":24},{"bufferView":5,"componentType":5121,"count":576,"type":"VEC4","byteOffset":40},{"bufferView":5,"componentType":5126,"count":576,"type":"VEC2","byteOffset":44},{"bufferView":4,"componentType":5123,"count":1152,"type":"SCALAR"},{"bufferView":7,"componentType":5126,"count":576,"type":"VEC3","max":[4.451672,12.5435371,3.580391],"min":[-1.54904318,7.546116,-2.70376778]},{"bufferView":7,"componentType":5126,"count":576,"type":"VEC3","byteOffset":12},{"bufferView":7,"componentType":5126,"count":576,"type":"VEC4","byteOffset":24},{"bufferView":7,"componentType":5121,"count":576,"type":"VEC4","byteOffset":40},{"bufferView":7,"componentType":5126,"count":576,"type":"VEC2","byteOffset":44},{"bufferView":6,"componentType":5123,"count":1152,"type":"SCALAR"}],"images":[{"name":"MV_Tree_Trunk_02_Normal.png","uri":"MV_Tree_Trunk_02_Normal.png","mimeType":"image/png"},{"name":"MV_Tree_Trunk_02_Color.jpg","uri":"MV_Tree_Trunk_02_Color.jpg","mimeType":"image/jpeg"},{"name":"MV_Tree_03_leaf.png","uri":"MV_Tree_03_leaf.png","mimeType":"image/png"}],"materials":[{"name":"MV_Tree_05_Bark_mat","pbrMetallicRoughness":{"baseColorFactor":[0.945098042,0.745098054,0.333333343,1],"metallicFactor":0.091,"roughnessFactor":0.835,"baseColorTexture":{"index":1,"extensions":{"KHR_texture_transform":{"offset":[0,1],"scale":[6,-6]}}}},"normalTexture":{"index":0,"extensions":{"KHR_texture_transform":{"offset":[0,1],"scale":[1,-1]}}}},{"name":"MV_Tree_05_Leaf_mat1","pbrMetallicRoughness":{"baseColorFactor":[0.6053275,0.764151,0,1],"metallicFactor":0,"roughnessFactor":0.8585786,"baseColorTexture":{"index":2,"extensions":{"KHR_texture_transform":{"offset":[0,1],"scale":[1,-1]}}}},"alphaMode":"MASK","alphaCutoff":0.639,"doubleSided":true}],"meshes":[{"name":"MV_Tree_05_Bark","primitives":[{"attributes":{"POSITION":0,"NORMAL":1,"TANGENT":2,"TEXCOORD_0":3},"indices":4,"material":0}]},{"name":"MV_Tree_05_Leaf_01","primitives":[{"attributes":{"POSITION":5,"NORMAL":6,"TANGENT":7,"TEXCOORD_0":9,"COLOR_0":8},"indices":10,"material":1}]},{"name":"MV_Tree_05_Leaf_02","primitives":[{"attributes":{"POSITION":11,"NORMAL":12,"TANGENT":13,"TEXCOORD_0":15,"COLOR_0":14},"indices":16,"material":1}]},{"name":"MV_Tree_05_Leaf_03","primitives":[{"attributes":{"POSITION":17,"NORMAL":18,"TANGENT":19,"TEXCOORD_0":21,"COLOR_0":20},"indices":22,"material":1}]}],"scene":0,"scenes":[{"name":"MV_Tree_05(Clone)","nodes":[4]}],"textures":[{"source":0},{"source":1},{"source":2}]}