{"asset":{"version":"2.0","generator":"Unity 2021.3.22f1 glTFast 4.8.3","lastModified":"06-07-2023 06:10:59","assetVersion":"1.0","expiryToken":1},"nodes":[{"name":"RC_Small_Building_04_Steps_01(Clone)","mesh":0}],"extensionsRequired":["KHR_texture_transform"],"extensionsUsed":["KHR_texture_transform"],"buffers":[{"uri":"RC_Small_Building_04_Steps_01.bin","byteLength":126672}],"bufferViews":[{"buffer":0,"byteLength":18288},{"buffer":0,"byteLength":108384,"byteOffset":18288,"byteStride":48}],"accessors":[{"bufferView":1,"componentType":5126,"count":2258,"type":"VEC3","max":[0.895161867,3.73386335,2.88072634],"min":[-0.895161867,-0.00129461288,-2.88072634]},{"bufferView":1,"componentType":5126,"count":2258,"type":"VEC3","byteOffset":12},{"bufferView":1,"componentType":5126,"count":2258,"type":"VEC4","byteOffset":24},{"bufferView":1,"componentType":5126,"count":2258,"type":"VEC2","byteOffset":40},{"bufferView":0,"componentType":5123,"count":4284,"type":"SCALAR"},{"bufferView":0,"componentType":5123,"count":4860,"type":"SCALAR","byteOffset":8568}],"images":[{"name":"RC_Wood_06_Normal.png","uri":"RC_Wood_06_Normal.png","mimeType":"image/png"},{"name":"RC_Wood_06_Base.jpg","uri":"RC_Wood_06_Base.jpg","mimeType":"image/jpeg"},{"name":"RC_Metal_06_Normal.png","uri":"RC_Metal_06_Normal.png","mimeType":"image/png"},{"name":"RC_Metal_06_Base.jpg","uri":"RC_Metal_06_Base.jpg","mimeType":"image/jpeg"}],"materials":[{"name":"RC_Small_Building_04_Steps_01_mat2","pbrMetallicRoughness":{"baseColorFactor":[1,0.7088171,0.495283,1],"metallicFactor":0.359,"roughnessFactor":0.793,"baseColorTexture":{"index":1,"extensions":{"KHR_texture_transform":{"offset":[0,1],"scale":[3,-3]}}}},"normalTexture":{"index":0,"extensions":{"KHR_texture_transform":{"offset":[0,1],"scale":[1,-1]}}}},{"name":"RC_Small_Building_04_Steps_01_mat1","pbrMetallicRoughness":{"baseColorFactor":[1,0.963583767,0.7216981,1],"metallicFactor":0.36,"roughnessFactor":0.825,"baseColorTexture":{"index":3,"extensions":{"KHR_texture_transform":{"offset":[0,1],"scale":[3,-3]}}}},"normalTexture":{"index":2,"extensions":{"KHR_texture_transform":{"offset":[0,1],"scale":[1,-1]}}}}],"meshes":[{"name":"RC_Small_Building_04_Steps_01","primitives":[{"attributes":{"POSITION":0,"NORMAL":1,"TANGENT":2,"TEXCOORD_0":3},"indices":4,"material":0},{"attributes":{"POSITION":0,"NORMAL":1,"TANGENT":2,"TEXCOORD_0":3},"indices":5,"material":1}]}],"scene":0,"scenes":[{"name":"RC_Small_Building_04_Steps_01(Clone)","nodes":[0]}],"textures":[{"source":0},{"source":1},{"source":2},{"source":3}]}