{"asset":{"version":"2.0","generator":"Unity 2021.3.22f1 glTFast 4.8.3","lastModified":"06-07-2023 06:16:27","assetVersion":"1.0","expiryToken":1},"nodes":[{"name":"RC_Statue_03(Clone)","mesh":0}],"extensionsRequired":["KHR_texture_transform"],"extensionsUsed":["KHR_texture_transform"],"buffers":[{"uri":"RC_Statue_03.bin","byteLength":881304}],"bufferViews":[{"buffer":0,"byteLength":110376},{"buffer":0,"byteLength":770928,"byteOffset":110376,"byteStride":48}],"accessors":[{"bufferView":1,"componentType":5126,"count":16061,"type":"VEC3","max":[0.5561666,2.925178,0.501364648],"min":[-0.5561666,0,-0.5013649]},{"bufferView":1,"componentType":5126,"count":16061,"type":"VEC3","byteOffset":12},{"bufferView":1,"componentType":5126,"count":16061,"type":"VEC4","byteOffset":24},{"bufferView":1,"componentType":5126,"count":16061,"type":"VEC2","byteOffset":40},{"bufferView":0,"componentType":5123,"count":55188,"type":"SCALAR"}],"images":[{"name":"RC_Pillars.jpg","uri":"RC_Pillars.jpg","mimeType":"image/jpeg"}],"materials":[{"name":"RC_Statue_03_mat","pbrMetallicRoughness":{"baseColorFactor":[1,0.7319846,0,1],"metallicFactor":0.841,"roughnessFactor":0.580000043,"baseColorTexture":{"index":0,"extensions":{"KHR_texture_transform":{"offset":[0,1],"scale":[1,-1]}}}}}],"meshes":[{"name":"RC_Statue_03","primitives":[{"attributes":{"POSITION":0,"NORMAL":1,"TANGENT":2,"TEXCOORD_0":3},"indices":4,"material":0}]}],"scene":0,"scenes":[{"name":"RC_Statue_03(Clone)","nodes":[0]}],"textures":[{"source":0}]}