{"asset":{"version":"2.0","generator":"Unity 2021.3.22f1 glTFast 4.8.3","lastModified":"26-05-2023 08:11:29","assetVersion":"1.0","expiryToken":1},"nodes":[{"name":"Water","mesh":0,"translation":[0.0332142636,0.404852331,-9.025574E-05]},{"name":"Water_Trough(Clone)","children":[0],"mesh":1}],"extensionsRequired":["KHR_texture_transform"],"extensionsUsed":["KHR_texture_transform"],"buffers":[{"uri":"Water_Trough.bin","byteLength":27360}],"bufferViews":[{"buffer":0,"byteLength":12},{"buffer":0,"byteLength":192,"byteOffset":12,"byteStride":48},{"buffer":0,"byteLength":1620,"byteOffset":204},{"buffer":0,"byteLength":25536,"byteOffset":1824,"byteStride":48}],"accessors":[{"bufferView":1,"componentType":5126,"count":4,"type":"VEC3","max":[0.60972476,1.35178766E-17,0.220763683],"min":[-0.60972476,-1.35178766E-17,-0.220763683]},{"bufferView":1,"componentType":5126,"count":4,"type":"VEC3","byteOffset":12},{"bufferView":1,"componentType":5126,"count":4,"type":"VEC4","byteOffset":24},{"bufferView":1,"componentType":5126,"count":4,"type":"VEC2","byteOffset":40},{"bufferView":0,"componentType":5123,"count":6,"type":"SCALAR"},{"bufferView":3,"componentType":5126,"count":532,"type":"VEC3","max":[0.7345406,0.517577,0.29727757],"min":[-0.7345408,-0.0102105737,-0.2972777]},{"bufferView":3,"componentType":5126,"count":532,"type":"VEC3","byteOffset":12},{"bufferView":3,"componentType":5126,"count":532,"type":"VEC4","byteOffset":24},{"bufferView":3,"componentType":5126,"count":532,"type":"VEC2","byteOffset":40},{"bufferView":2,"componentType":5123,"count":810,"type":"SCALAR"}],"images":[{"name":"WaterTrough_n.png","uri":"WaterTrough_n.png","mimeType":"image/png"},{"name":"WaterTrough_d.jpg","uri":"WaterTrough_d.jpg","mimeType":"image/jpeg"},{"name":"WaterTrough_ao.jpg","uri":"WaterTrough_ao.jpg","mimeType":"image/jpeg"}],"materials":[{"name":"Water_mtl","pbrMetallicRoughness":{"metallicFactor":0,"roughnessFactor":0.5},"doubleSided":true},{"name":"WaterTrough_mtl","pbrMetallicRoughness":{"metallicFactor":0,"roughnessFactor":0.385999978,"baseColorTexture":{"index":1,"extensions":{"KHR_texture_transform":{"offset":[0,1],"scale":[1,-1]}}}},"normalTexture":{"index":0,"extensions":{"KHR_texture_transform":{"offset":[0,1],"scale":[1,-1]}}},"occlusionTexture":{"index":2,"extensions":{"KHR_texture_transform":{"offset":[0,1],"scale":[1,-1]}}},"doubleSided":true}],"meshes":[{"name":"Water","primitives":[{"attributes":{"POSITION":0,"NORMAL":1,"TANGENT":2,"TEXCOORD_0":3},"indices":4,"material":0}]},{"name":"WaterTrough","primitives":[{"attributes":{"POSITION":5,"NORMAL":6,"TANGENT":7,"TEXCOORD_0":8},"indices":9,"material":1}]}],"scene":0,"scenes":[{"name":"Water_Trough(Clone)","nodes":[1]}],"textures":[{"source":0},{"source":1},{"source":2}]}