{"asset":{"version":"2.0","generator":"Unity 2021.3.22f1 glTFast 4.8.3","lastModified":"26-05-2023 08:11:33","assetVersion":"1.0","expiryToken":1},"nodes":[{"name":"WoodenBarrel_LOD0","mesh":0,"translation":[0,0,-3.05175774E-07],"rotation":[2.18556941E-08,0,0,1]},{"name":"Wooden_Barrel(Clone)","children":[0]}],"extensionsRequired":["KHR_texture_transform"],"extensionsUsed":["KHR_texture_transform"],"buffers":[{"uri":"Wooden_Barrel.bin","byteLength":17568}],"bufferViews":[{"buffer":0,"byteLength":2352},{"buffer":0,"byteLength":15216,"byteOffset":2352,"byteStride":48}],"accessors":[{"bufferView":1,"componentType":5126,"count":317,"type":"VEC3","max":[0.336685121,0.853839338,0.331570148],"min":[-0.336685121,0,-0.331570029]},{"bufferView":1,"componentType":5126,"count":317,"type":"VEC3","byteOffset":12},{"bufferView":1,"componentType":5126,"count":317,"type":"VEC4","byteOffset":24},{"bufferView":1,"componentType":5126,"count":317,"type":"VEC2","byteOffset":40},{"bufferView":0,"componentType":5123,"count":1176,"type":"SCALAR"}],"images":[{"name":"WoodenBarrel_n.png","uri":"WoodenBarrel_n.png","mimeType":"image/png"},{"name":"WoodenBarrel_d.jpg","uri":"WoodenBarrel_d.jpg","mimeType":"image/jpeg"},{"name":"WoodenBarrel_ao.jpg","uri":"WoodenBarrel_ao.jpg","mimeType":"image/jpeg"}],"materials":[{"name":"WoodenBarrel_mtl","pbrMetallicRoughness":{"metallicFactor":0,"roughnessFactor":0.431,"baseColorTexture":{"index":1,"extensions":{"KHR_texture_transform":{"offset":[0,1],"scale":[1,-1]}}}},"normalTexture":{"index":0,"extensions":{"KHR_texture_transform":{"offset":[0,1],"scale":[1,-1]}}},"occlusionTexture":{"index":2,"extensions":{"KHR_texture_transform":{"offset":[0,1],"scale":[1,-1]}}},"doubleSided":true}],"meshes":[{"name":"WoodenBarrel_LOD0","primitives":[{"attributes":{"POSITION":0,"NORMAL":1,"TANGENT":2,"TEXCOORD_0":3},"indices":4,"material":0}]}],"scene":0,"scenes":[{"name":"Wooden_Barrel(Clone)","nodes":[1]}],"textures":[{"source":0},{"source":1},{"source":2}]}