{"asset":{"version":"2.0","generator":"Unity 2021.3.22f1 glTFast 4.8.3","lastModified":"17-05-2023 08:39:39","assetVersion":"1.0","expiryToken":1},"nodes":[{"name":"WoodPost_v2_M2(Clone)","mesh":0}],"extensionsRequired":["KHR_texture_transform"],"extensionsUsed":["KHR_texture_transform"],"buffers":[{"uri":"WoodPost_v2_M2.bin","byteLength":7392}],"bufferViews":[{"buffer":0,"byteLength":480},{"buffer":0,"byteLength":6912,"byteOffset":480,"byteStride":48}],"accessors":[{"bufferView":1,"componentType":5126,"count":144,"type":"VEC3","max":[0.7399086,2.51078725,0.08777547],"min":[-0.723184943,0,-0.0877759457]},{"bufferView":1,"componentType":5126,"count":144,"type":"VEC3","byteOffset":12},{"bufferView":1,"componentType":5126,"count":144,"type":"VEC4","byteOffset":24},{"bufferView":1,"componentType":5126,"count":144,"type":"VEC2","byteOffset":40},{"bufferView":0,"componentType":5123,"count":240,"type":"SCALAR"}],"images":[{"name":"WildWest_Houses2_N.png","uri":"WildWest_Houses2_N.png","mimeType":"image/png"},{"name":"WildWest_Houses2.jpg","uri":"WildWest_Houses2.jpg","mimeType":"image/jpeg"},{"name":"WildWest_Houses2_M.jpg","uri":"WildWest_Houses2_M.jpg","mimeType":"image/jpeg"}],"materials":[{"name":"WildWest_Houses2","pbrMetallicRoughness":{"baseColorTexture":{"index":1,"extensions":{"KHR_texture_transform":{"offset":[0,1],"scale":[1,-1]}}},"metallicRoughnessTexture":{"index":2,"extensions":{"KHR_texture_transform":{"offset":[0,1],"scale":[1,-1]}}}},"normalTexture":{"index":0,"extensions":{"KHR_texture_transform":{"offset":[0,1],"scale":[1,-1]}}},"doubleSided":true}],"meshes":[{"name":"WoodPost_v2","primitives":[{"attributes":{"POSITION":0,"NORMAL":1,"TANGENT":2,"TEXCOORD_0":3},"indices":4,"material":0}]}],"samplers":[{"wrapS":33071,"wrapT":33071}],"scene":0,"scenes":[{"name":"WoodPost_v2_M2(Clone)","nodes":[0]}],"textures":[{"source":0,"sampler":0},{"source":1,"sampler":0},{"source":2}]}