{"asset":{"version":"2.0","generator":"Unity 2021.3.22f1 glTFast 4.8.3","lastModified":"06-07-2023 06:29:38","assetVersion":"1.0","expiryToken":1},"nodes":[{"name":"RC_Market_Tent_03","mesh":0,"rotation":[2.18556941E-08,0,0,1]},{"name":"RC_Market_Table_03","mesh":1,"translation":[0,0,1.243],"rotation":[2.18556941E-08,0,0,1]},{"name":"RC_Market_Barrel_01","mesh":2,"translation":[-2.81,0,-0.41],"rotation":[2.18556941E-08,0,0,1]},{"name":"RC_Market_Barrel_011","mesh":2,"translation":[-2.81,0,0.998],"rotation":[2.18556941E-08,0,0,1]},{"name":"RC_Market_Crate_01","mesh":3,"translation":[0,0,1.25900006],"rotation":[2.18556941E-08,0,0,1],"scale":[0.6247382,0.6247382,0.6247382]},{"name":"RC_Market_Crate_011","mesh":3,"translation":[0.864,0,1.25900006],"rotation":[2.11109832E-08,-0.2588186,5.65665959E-09,0.965926],"scale":[0.6247382,0.6247382,0.6247382]},{"name":"RC_Market_Crate_012","mesh":3,"translation":[-0.875,0,1.25900006],"rotation":[2.11109832E-08,-0.2588186,5.65665959E-09,0.965926],"scale":[0.6247382,0.6247382,0.6247382]},{"name":"RC_Basket_02","mesh":4,"translation":[0.483,0.936,1.264],"rotation":[2.18556941E-08,0,0,1]},{"name":"RC_Basket_021","mesh":4,"translation":[1.292,0.936,1.264],"rotation":[2.18556941E-08,0,0,1]},{"name":"RC_Pumpkin_01","mesh":5,"translation":[-0.337,0.853,1.523],"rotation":[2.18556941E-08,0,0,1],"scale":[0.8409,0.8409,0.8409]},{"name":"RC_Watermelon_01","mesh":6,"translation":[-0.343,0.853,0.958],"rotation":[2.17472227E-08,0.09950683,2.174791E-09,0.99503696],"scale":[0.885100245,0.8851,0.885100245]},{"name":"RC_Bread_01","mesh":7,"translation":[-1.345,0.952,1.27],"rotation":[2.01920276E-08,0.382683665,8.363817E-09,0.9238795],"scale":[1.548,1.548,1.548]},{"name":"RC_Bread_011","mesh":7,"translation":[-0.962,0.952,1.391],"rotation":[-8.363823E-09,0.923879445,2.01920347E-08,-0.382683754],"scale":[1.5480001,1.548,1.5480001]},{"name":"RC_Bread_012","mesh":7,"translation":[0.389,1.079,1.391],"rotation":[-0.180493832,0.683682859,0.18049401,-0.6836824],"scale":[1.5480001,1.548,1.5480001]},{"name":"RC_Bread_013","mesh":7,"translation":[0.582,1.079,1.391],"rotation":[0.0795783252,0.571775556,0.416020632,-0.702614367],"scale":[1.5480001,1.548,1.5480001]},{"name":"RC_Bread_014","mesh":7,"translation":[1.19499993,1.079,1.391],"rotation":[-0.180493832,0.683682859,0.18049401,-0.6836824],"scale":[1.5480001,1.548,1.5480001]},{"name":"RC_Bread_015","mesh":7,"translation":[1.388,1.079,1.391],"rotation":[0.0795783252,0.571775556,0.416020632,-0.702614367],"scale":[1.5480001,1.548,1.5480001]},{"name":"RC_Bread_016","mesh":7,"translation":[1.209,1.227,0.877],"rotation":[-0.256525517,-0.133276045,-0.006319477,-0.9572838],"scale":[1.41117239,1.41117227,1.41117239]},{"name":"RC_Bread_017","mesh":7,"translation":[0.506,1.225,1.005],"rotation":[-0.234580442,0.243204951,-0.104006343,-0.935417652],"scale":[1.5480001,1.548,1.5480001]},{"name":"RC_Bread_018","mesh":7,"translation":[0.506,1.276,1.181],"rotation":[-0.234580442,0.243204951,-0.104006343,-0.935417652],"scale":[1.5480001,1.548,1.5480001]},{"name":"RC_Bread_019","mesh":7,"translation":[1.321,1.266,1.088],"rotation":[-0.256282061,-0.146351978,0.0461872071,-0.954341352],"scale":[1.41117239,1.41117227,1.41117239]},{"name":"RC_Market_Shop_02(Clone)","children":[0,1,2,3,4,5,6,7,8,9,10,11,12,13,14,15,16,17,18,19,20]}],"extensionsRequired":["KHR_texture_transform"],"extensionsUsed":["KHR_texture_transform"],"buffers":[{"uri":"RC_Market_Shop_02.bin","byteLength":258108}],"bufferViews":[{"buffer":0,"byteLength":5520},{"buffer":0,"byteLength":58032,"byteOffset":5520,"byteStride":48},{"buffer":0,"byteLength":3576,"byteOffset":63552},{"buffer":0,"byteLength":57600,"byteOffset":67128,"byteStride":48},{"buffer":0,"byteLength":2988,"byteOffset":124728},{"buffer":0,"byteLength":23400,"byteOffset":127716,"byteStride":52},{"buffer":0,"byteLength":840,"byteOffset":151116},{"buffer":0,"byteLength":11520,"byteOffset":151956,"byteStride":48},{"buffer":0,"byteLength":1512,"byteOffset":163476},{"buffer":0,"byteLength":8640,"byteOffset":164988,"byteStride":48},{"buffer":0,"byteLength":7272,"byteOffset":173628},{"buffer":0,"byteLength":32832,"byteOffset":180900,"byteStride":48},{"buffer":0,"byteLength":2712,"byteOffset":213732},{"buffer":0,"byteLength":13728,"byteOffset":216444,"byteStride":48},{"buffer":0,"byteLength":4608,"byteOffset":230172},{"buffer":0,"byteLength":23328,"byteOffset":234780,"byteStride":48}],"accessors":[{"bufferView":1,"componentType":5126,"count":1209,"type":"VEC3","max":[2.437976,3.96144,1.96691132],"min":[-2.437975,0,-1.96691132]},{"bufferView":1,"componentType":5126,"count":1209,"type":"VEC3","byteOffset":12},{"bufferView":1,"componentType":5126,"count":1209,"type":"VEC4","byteOffset":24},{"bufferView":1,"componentType":5126,"count":1209,"type":"VEC2","byteOffset":40},{"bufferView":0,"componentType":5123,"count":1344,"type":"SCALAR"},{"bufferView":0,"componentType":5123,"count":1416,"type":"SCALAR","byteOffset":2688},{"bufferView":3,"componentType":5126,"count":1200,"type":"VEC3","max":[1.79463232,0.9422286,0.578846931],"min":[-1.7946347,-5.96046448E-08,-0.57884717]},{"bufferView":3,"componentType":5126,"count":1200,"type":"VEC3","byteOffset":12},{"bufferView":3,"componentType":5126,"count":1200,"type":"VEC4","byteOffset":24},{"bufferView":3,"componentType":5126,"count":1200,"type":"VEC2","byteOffset":40},{"bufferView":2,"componentType":5123,"count":552,"type":"SCALAR"},{"bufferView":2,"componentType":5123,"count":264,"type":"SCALAR","byteOffset":1104},{"bufferView":2,"componentType":5123,"count":972,"type":"SCALAR","byteOffset":1632},{"bufferView":5,"componentType":5126,"count":450,"type":"VEC3","max":[0.6032914,1.680995,0.603291869],"min":[-0.6032914,0,-0.603291869]},{"bufferView":5,"componentType":5126,"count":450,"type":"VEC3","byteOffset":12},{"bufferView":5,"componentType":5126,"count":450,"type":"VEC4","byteOffset":24},{"bufferView":5,"componentType":5121,"count":450,"type":"VEC4","byteOffset":40},{"bufferView":5,"componentType":5126,"count":450,"type":"VEC2","byteOffset":44},{"bufferView":4,"componentType":5123,"count":918,"type":"SCALAR"},{"bufferView":4,"componentType":5123,"count":576,"type":"SCALAR","byteOffset":1836},{"bufferView":7,"componentType":5126,"count":240,"type":"VEC3","max":[0.4468621,0.88285625,0.446861148],"min":[-0.4468614,0,-0.446862578]},{"bufferView":7,"componentType":5126,"count":240,"type":"VEC3","byteOffset":12},{"bufferView":7,"componentType":5126,"count":240,"type":"VEC4","byteOffset":24},{"bufferView":7,"componentType":5126,"count":240,"type":"VEC2","byteOffset":40},{"bufferView":6,"componentType":5123,"count":420,"type":"SCALAR"},{"bufferView":9,"componentType":5126,"count":180,"type":"VEC3","max":[0.33483544,0.5818924,0.504450262],"min":[-0.33483544,5.96046448E-08,-0.5044505]},{"bufferView":9,"componentType":5126,"count":180,"type":"VEC3","byteOffset":12},{"bufferView":9,"componentType":5126,"count":180,"type":"VEC4","byteOffset":24},{"bufferView":9,"componentType":5126,"count":180,"type":"VEC2","byteOffset":40},{"bufferView":8,"componentType":5123,"count":756,"type":"SCALAR"},{"bufferView":11,"componentType":5126,"count":684,"type":"VEC3","max":[0.317003846,0.680776,0.3242632],"min":[-0.3140099,0.0103680491,-0.321810871]},{"bufferView":11,"componentType":5126,"count":684,"type":"VEC3","byteOffset":12},{"bufferView":11,"componentType":5126,"count":684,"type":"VEC4","byteOffset":24},{"bufferView":11,"componentType":5126,"count":684,"type":"VEC2","byteOffset":40},{"bufferView":10,"componentType":5123,"count":2970,"type":"SCALAR"},{"bufferView":10,"componentType":5123,"count":666,"type":"SCALAR","byteOffset":5940},{"bufferView":13,"componentType":5126,"count":286,"type":"VEC3","max":[0.468274325,0.6894601,0.353844643],"min":[-0.468274325,-0.0115145445,-0.355015635]},{"bufferView":13,"componentType":5126,"count":286,"type":"VEC3","byteOffset":12},{"bufferView":13,"componentType":5126,"count":286,"type":"VEC4","byteOffset":24},{"bufferView":13,"componentType":5126,"count":286,"type":"VEC2","byteOffset":40},{"bufferView":12,"componentType":5123,"count":1356,"type":"SCALAR"},{"bufferView":15,"componentType":5126,"count":486,"type":"VEC3","max":[0.152119711,0.09655599,0.09279898],"min":[-0.148143455,1.75014138E-05,-0.09270275]},{"bufferView":15,"componentType":5126,"count":486,"type":"VEC3","byteOffset":12},{"bufferView":15,"componentType":5126,"count":486,"type":"VEC4","byteOffset":24},{"bufferView":15,"componentType":5126,"count":486,"type":"VEC2","byteOffset":40},{"bufferView":14,"componentType":5123,"count":2304,"type":"SCALAR"}],"images":[{"name":"RC_Wood_07_Normal.png","uri":"RC_Wood_07_Normal.png","mimeType":"image/png"},{"name":"RC_Wood_07_Base.jpg","uri":"RC_Wood_07_Base.jpg","mimeType":"image/jpeg"},{"name":"RC_Fabric_020_Normal.png","uri":"RC_Fabric_020_Normal.png","mimeType":"image/png"},{"name":"RC_Fabric_020_Base.jpg","uri":"RC_Fabric_020_Base.jpg","mimeType":"image/jpeg"},{"name":"RC_Wood_08_Normal.png","uri":"RC_Wood_08_Normal.png","mimeType":"image/png"},{"name":"RC_Wood_08_Base.jpg","uri":"RC_Wood_08_Base.jpg","mimeType":"image/jpeg"},{"name":"RC_Metal_01_Normal.png","uri":"RC_Metal_01_Normal.png","mimeType":"image/png"},{"name":"RC_Metal_01_Base.jpg","uri":"RC_Metal_01_Base.jpg","mimeType":"image/jpeg"},{"name":"RC_Wood_09_Normal.png","uri":"RC_Wood_09_Normal.png","mimeType":"image/png"},{"name":"RC_Wood_09_Base.jpg","uri":"RC_Wood_09_Base.jpg","mimeType":"image/jpeg"},{"name":"RC_Pumpkin_01_Normal.png","uri":"RC_Pumpkin_01_Normal.png","mimeType":"image/png"},{"name":"RC_Pumpkin_01_Base.jpg","uri":"RC_Pumpkin_01_Base.jpg","mimeType":"image/jpeg"},{"name":"RC_Watermelon_01_Normal.png","uri":"RC_Watermelon_01_Normal.png","mimeType":"image/png"},{"name":"RC_Watermelon_01_Base.jpg","uri":"RC_Watermelon_01_Base.jpg","mimeType":"image/jpeg"},{"name":"RC_Bread_01_Normal.png","uri":"RC_Bread_01_Normal.png","mimeType":"image/png"},{"name":"RC_Bread_01_Base.jpg","uri":"RC_Bread_01_Base.jpg","mimeType":"image/jpeg"}],"materials":[{"name":"RC_Market_Tent_03_mat2","pbrMetallicRoughness":{"baseColorFactor":[0.5566037,0.485715568,0.485715568,1],"metallicFactor":0,"roughnessFactor":0.85,"baseColorTexture":{"index":1,"extensions":{"KHR_texture_transform":{"offset":[0,1],"scale":[5,-5]}}}},"normalTexture":{"index":0,"extensions":{"KHR_texture_transform":{"offset":[0,1],"scale":[1,-1]}}}},{"name":"RC_Market_Tent_03_mat1","pbrMetallicRoughness":{"baseColorFactor":[0.8301887,0.8301887,0.8301887,1],"metallicFactor":0,"roughnessFactor":0.835,"baseColorTexture":{"index":3,"extensions":{"KHR_texture_transform":{"offset":[0,1],"scale":[7.3,-7.3]}}}},"normalTexture":{"index":2,"extensions":{"KHR_texture_transform":{"offset":[0,1],"scale":[1,-1]}}}},{"name":"RC_Market_Table_03_mat1","pbrMetallicRoughness":{"baseColorFactor":[0.5566037,0.485715568,0.485715568,1],"metallicFactor":0,"roughnessFactor":0.85,"baseColorTexture":{"index":1,"extensions":{"KHR_texture_transform":{"offset":[0,1],"scale":[3,-3]}}}},"normalTexture":{"index":0,"extensions":{"KHR_texture_transform":{"offset":[0,1],"scale":[1,-1]}}}},{"name":"RC_Market_Table_03_mat2","pbrMetallicRoughness":{"baseColorFactor":[0.5566037,0.485715568,0.485715568,1],"metallicFactor":0,"roughnessFactor":0.85,"baseColorTexture":{"index":1,"extensions":{"KHR_texture_transform":{"offset":[0,1],"scale":[3,-3]}}}},"normalTexture":{"index":0,"extensions":{"KHR_texture_transform":{"offset":[0,1],"scale":[1,-1]}}}},{"name":"RC_Market_Table_03_mat3","pbrMetallicRoughness":{"baseColorFactor":[0.5566037,0.485715568,0.485715568,1],"metallicFactor":0,"roughnessFactor":0.85,"baseColorTexture":{"index":1,"extensions":{"KHR_texture_transform":{"offset":[0,1],"scale":[3,-3]}}}},"normalTexture":{"index":0,"extensions":{"KHR_texture_transform":{"offset":[0,1],"scale":[1,-1]}}}},{"name":"RC_Market_Barrel_01_mat1","pbrMetallicRoughness":{"baseColorFactor":[1,0.861789346,0.6367924,1],"metallicFactor":0,"roughnessFactor":0.81,"baseColorTexture":{"index":5,"extensions":{"KHR_texture_transform":{"offset":[0,1],"scale":[4,-4]}}}},"normalTexture":{"index":4,"extensions":{"KHR_texture_transform":{"offset":[0,1],"scale":[1,-1]}},"scale":3}},{"name":"RC_Market_Barrel_01_mat2","pbrMetallicRoughness":{"baseColorFactor":[0.7075471,0.7075471,0.7075471,1],"metallicFactor":0.851,"roughnessFactor":0.702,"baseColorTexture":{"index":7,"extensions":{"KHR_texture_transform":{"offset":[0,1],"scale":[5,-5]}}}},"normalTexture":{"index":6,"extensions":{"KHR_texture_transform":{"offset":[0,1],"scale":[1,-1]}}}},{"name":"RC_Market_Crate_01_mat","pbrMetallicRoughness":{"baseColorFactor":[0.754716933,0.754716933,0.754716933,1],"metallicFactor":0,"roughnessFactor":0.85,"baseColorTexture":{"index":9,"extensions":{"KHR_texture_transform":{"offset":[0,1],"scale":[3,-3]}}}},"normalTexture":{"index":8,"extensions":{"KHR_texture_transform":{"offset":[0,1],"scale":[1,-1]}}}},{"name":"RC_Basket_07_mat","pbrMetallicRoughness":{"baseColorFactor":[0.5471698,0.451270878,0.410377324,1],"metallicFactor":0,"roughnessFactor":0.812999964,"baseColorTexture":{"index":1,"extensions":{"KHR_texture_transform":{"offset":[0,1],"scale":[5,-5]}}}},"normalTexture":{"index":0,"extensions":{"KHR_texture_transform":{"offset":[0,1],"scale":[1,-1]}},"scale":3}},{"name":"RC_Pumpkin_01_mat1","pbrMetallicRoughness":{"metallicFactor":0,"roughnessFactor":0.738000035,"baseColorTexture":{"index":11,"extensions":{"KHR_texture_transform":{"offset":[0,1],"scale":[4,-4]}}}},"normalTexture":{"index":10,"extensions":{"KHR_texture_transform":{"offset":[0,1],"scale":[1,-1]}}}},{"name":"RC_Pumpkin_01_mat2","pbrMetallicRoughness":{"baseColorFactor":[0.23113206,1,0.5586129,1],"metallicFactor":0,"roughnessFactor":0.728,"baseColorTexture":{"index":11,"extensions":{"KHR_texture_transform":{"offset":[0,1],"scale":[1,-1]}}}},"normalTexture":{"index":10,"extensions":{"KHR_texture_transform":{"offset":[0,1],"scale":[1,-1]}}}},{"name":"RC_Watermelon_01_mat","pbrMetallicRoughness":{"baseColorFactor":[0.9063317,0.9063317,0.9063317,1],"metallicFactor":0,"roughnessFactor":0.316999972,"baseColorTexture":{"index":13,"extensions":{"KHR_texture_transform":{"offset":[0,1],"scale":[1,-1]}}}},"normalTexture":{"index":12,"extensions":{"KHR_texture_transform":{"offset":[0,1],"scale":[1,-1]}}}},{"name":"RC_Bread_01_mat","pbrMetallicRoughness":{"baseColorFactor":[0.9063317,0.9063317,0.9063317,1],"metallicFactor":0,"roughnessFactor":0.5,"baseColorTexture":{"index":15,"extensions":{"KHR_texture_transform":{"offset":[0,1],"scale":[1,-1]}}}},"normalTexture":{"index":14,"extensions":{"KHR_texture_transform":{"offset":[0,1],"scale":[1,-1]}}}}],"meshes":[{"name":"RC_Market_Tent_03","primitives":[{"attributes":{"POSITION":0,"NORMAL":1,"TANGENT":2,"TEXCOORD_0":3},"indices":4,"material":0},{"attributes":{"POSITION":0,"NORMAL":1,"TANGENT":2,"TEXCOORD_0":3},"indices":5,"material":1}]},{"name":"RC_Market_Table_03","primitives":[{"attributes":{"POSITION":6,"NORMAL":7,"TANGENT":8,"TEXCOORD_0":9},"indices":10,"material":2},{"attributes":{"POSITION":6,"NORMAL":7,"TANGENT":8,"TEXCOORD_0":9},"indices":11,"material":3},{"attributes":{"POSITION":6,"NORMAL":7,"TANGENT":8,"TEXCOORD_0":9},"indices":12,"material":4}]},{"name":"RC_Market_Barrel_01","primitives":[{"attributes":{"POSITION":13,"NORMAL":14,"TANGENT":15,"TEXCOORD_0":17,"COLOR_0":16},"indices":18,"material":5},{"attributes":{"POSITION":13,"NORMAL":14,"TANGENT":15,"TEXCOORD_0":17,"COLOR_0":16},"indices":19,"material":6}]},{"name":"RC_Market_Crate_01","primitives":[{"attributes":{"POSITION":20,"NORMAL":21,"TANGENT":22,"TEXCOORD_0":23},"indices":24,"material":7}]},{"name":"RC_Basket_07","primitives":[{"attributes":{"POSITION":25,"NORMAL":26,"TANGENT":27,"TEXCOORD_0":28},"indices":29,"material":8}]},{"name":"RC_Pumpkin_01","primitives":[{"attributes":{"POSITION":30,"NORMAL":31,"TANGENT":32,"TEXCOORD_0":33},"indices":34,"material":9},{"attributes":{"POSITION":30,"NORMAL":31,"TANGENT":32,"TEXCOORD_0":33},"indices":35,"material":10}]},{"name":"RC_Watermelon_01","primitives":[{"attributes":{"POSITION":36,"NORMAL":37,"TANGENT":38,"TEXCOORD_0":39},"indices":40,"material":11}]},{"name":"RC_Bread_01","primitives":[{"attributes":{"POSITION":41,"NORMAL":42,"TANGENT":43,"TEXCOORD_0":44},"indices":45,"material":12}]}],"scene":0,"scenes":[{"name":"RC_Market_Shop_02(Clone)","nodes":[21]}],"textures":[{"source":0},{"source":1},{"source":2},{"source":3},{"source":4},{"source":5},{"source":6},{"source":7},{"source":8},{"source":9},{"source":10},{"source":11},{"source":12},{"source":13},{"source":14},{"source":15}]}