{"asset":{"version":"2.0","generator":"Unity 2021.3.22f1 glTFast 4.8.3","lastModified":"17-05-2023 08:35:46","assetVersion":"1.0","expiryToken":1},"nodes":[{"name":"Cactus_v2(Clone)","mesh":0}],"extensionsRequired":["KHR_texture_transform"],"extensionsUsed":["KHR_texture_transform"],"buffers":[{"uri":"Cactus_v2.bin","byteLength":28924}],"bufferViews":[{"buffer":0,"byteLength":3516},{"buffer":0,"byteLength":25408,"byteOffset":3516,"byteStride":64}],"accessors":[{"bufferView":1,"componentType":5126,"count":397,"type":"VEC3","max":[0.587067068,3.13809276,0.6374628],"min":[-0.580146849,0,-0.382069767]},{"bufferView":1,"componentType":5126,"count":397,"type":"VEC3","byteOffset":12},{"bufferView":1,"componentType":5126,"count":397,"type":"VEC4","byteOffset":24},{"bufferView":1,"componentType":5126,"count":397,"type":"VEC4","byteOffset":40},{"bufferView":1,"componentType":5126,"count":397,"type":"VEC2","byteOffset":56},{"bufferView":0,"componentType":5123,"count":1758,"type":"SCALAR"}],"images":[{"name":"WildWest_Vegetation_N.png","uri":"WildWest_Vegetation_N.png","mimeType":"image/png"},{"name":"WildWest_Vegetation.png","uri":"WildWest_Vegetation.png","mimeType":"image/png"}],"materials":[{"name":"WildWest_Vegetation_Prefabs","pbrMetallicRoughness":{"metallicFactor":0.029,"roughnessFactor":0.5,"baseColorTexture":{"index":1,"extensions":{"KHR_texture_transform":{"offset":[0,1],"scale":[1,-1]}}}},"normalTexture":{"index":0,"extensions":{"KHR_texture_transform":{"offset":[0,1],"scale":[1,-1]}}},"alphaMode":"MASK","doubleSided":true}],"meshes":[{"name":"Cactus_v2","primitives":[{"attributes":{"POSITION":0,"NORMAL":1,"TANGENT":2,"TEXCOORD_0":4,"COLOR_0":3},"indices":5,"material":0}]}],"samplers":[{"wrapS":33071,"wrapT":33071}],"scene":0,"scenes":[{"name":"Cactus_v2(Clone)","nodes":[0]}],"textures":[{"source":0,"sampler":0},{"source":1,"sampler":0}]}