{"asset":{"version":"2.0","generator":"Unity 2021.3.22f1 glTFast 4.8.3","lastModified":"06-07-2023 06:26:37","assetVersion":"1.0","expiryToken":1},"nodes":[{"name":"RC_Market_Barrel_01(Clone)","mesh":0}],"extensionsRequired":["KHR_texture_transform"],"extensionsUsed":["KHR_texture_transform"],"buffers":[{"uri":"RC_Market_Barrel_01.bin","byteLength":26388}],"bufferViews":[{"buffer":0,"byteLength":2988},{"buffer":0,"byteLength":23400,"byteOffset":2988,"byteStride":52}],"accessors":[{"bufferView":1,"componentType":5126,"count":450,"type":"VEC3","max":[0.6032914,1.680995,0.603291869],"min":[-0.6032914,0,-0.603291869]},{"bufferView":1,"componentType":5126,"count":450,"type":"VEC3","byteOffset":12},{"bufferView":1,"componentType":5126,"count":450,"type":"VEC4","byteOffset":24},{"bufferView":1,"componentType":5121,"count":450,"type":"VEC4","byteOffset":40},{"bufferView":1,"componentType":5126,"count":450,"type":"VEC2","byteOffset":44},{"bufferView":0,"componentType":5123,"count":918,"type":"SCALAR"},{"bufferView":0,"componentType":5123,"count":576,"type":"SCALAR","byteOffset":1836}],"images":[{"name":"RC_Wood_08_Normal.png","uri":"RC_Wood_08_Normal.png","mimeType":"image/png"},{"name":"RC_Wood_08_Base.jpg","uri":"RC_Wood_08_Base.jpg","mimeType":"image/jpeg"},{"name":"RC_Metal_01_Normal.png","uri":"RC_Metal_01_Normal.png","mimeType":"image/png"},{"name":"RC_Metal_01_Base.jpg","uri":"RC_Metal_01_Base.jpg","mimeType":"image/jpeg"}],"materials":[{"name":"RC_Market_Barrel_01_mat1","pbrMetallicRoughness":{"baseColorFactor":[1,0.861789346,0.6367924,1],"metallicFactor":0,"roughnessFactor":0.81,"baseColorTexture":{"index":1,"extensions":{"KHR_texture_transform":{"offset":[0,1],"scale":[4,-4]}}}},"normalTexture":{"index":0,"extensions":{"KHR_texture_transform":{"offset":[0,1],"scale":[1,-1]}},"scale":3}},{"name":"RC_Market_Barrel_01_mat2","pbrMetallicRoughness":{"baseColorFactor":[0.7075471,0.7075471,0.7075471,1],"metallicFactor":0.851,"roughnessFactor":0.702,"baseColorTexture":{"index":3,"extensions":{"KHR_texture_transform":{"offset":[0,1],"scale":[5,-5]}}}},"normalTexture":{"index":2,"extensions":{"KHR_texture_transform":{"offset":[0,1],"scale":[1,-1]}}}}],"meshes":[{"name":"RC_Market_Barrel_01","primitives":[{"attributes":{"POSITION":0,"NORMAL":1,"TANGENT":2,"TEXCOORD_0":4,"COLOR_0":3},"indices":5,"material":0},{"attributes":{"POSITION":0,"NORMAL":1,"TANGENT":2,"TEXCOORD_0":4,"COLOR_0":3},"indices":6,"material":1}]}],"scene":0,"scenes":[{"name":"RC_Market_Barrel_01(Clone)","nodes":[0]}],"textures":[{"source":0},{"source":1},{"source":2},{"source":3}]}