{"asset":{"version":"2.0","generator":"Unity 2021.3.22f1 glTFast 4.8.3","lastModified":"13-05-2023 09:31:42","assetVersion":"1.0","expiryToken":1},"nodes":[{"name":"Mountains_v1_p1_2(Clone)","mesh":0}],"extensionsRequired":["KHR_texture_transform"],"extensionsUsed":["KHR_texture_transform"],"buffers":[{"uri":"Mountains_v1_p1_2.bin","byteLength":41616}],"bufferViews":[{"buffer":0,"byteLength":4320},{"buffer":0,"byteLength":37296,"byteOffset":4320,"byteStride":56}],"accessors":[{"bufferView":1,"componentType":5126,"count":666,"type":"VEC3","max":[16.3883133,33.1517258,10.9997463],"min":[-16.38832,-0.8551216,-10.9997444]},{"bufferView":1,"componentType":5126,"count":666,"type":"VEC3","byteOffset":12},{"bufferView":1,"componentType":5126,"count":666,"type":"VEC4","byteOffset":24},{"bufferView":1,"componentType":5126,"count":666,"type":"VEC2","byteOffset":40},{"bufferView":1,"componentType":5126,"count":666,"type":"VEC2","byteOffset":48},{"bufferView":0,"componentType":5123,"count":2160,"type":"SCALAR"}],"images":[{"name":"Mountains_v1_p1_NM.png","uri":"Mountains_v1_p1_NM.png","mimeType":"image/png"},{"name":"Mountains_v1_p1_s2.jpg","uri":"Mountains_v1_p1_s2.jpg","mimeType":"image/jpeg"}],"materials":[{"name":"Mountains_v1_p1","pbrMetallicRoughness":{"metallicFactor":0,"baseColorTexture":{"index":1,"extensions":{"KHR_texture_transform":{"offset":[0,1],"scale":[1,-1]}}}},"normalTexture":{"index":0,"extensions":{"KHR_texture_transform":{"offset":[0,1],"scale":[1,-1]}}}}],"meshes":[{"name":"Mountains_v1_p1_2","primitives":[{"attributes":{"POSITION":0,"NORMAL":1,"TANGENT":2,"TEXCOORD_0":3,"TEXCOORD_1":4},"indices":5,"material":0}]}],"scene":0,"scenes":[{"name":"Mountains_v1_p1_2(Clone)","nodes":[0]}],"textures":[{"source":0},{"source":1}]}