{"asset":{"version":"2.0","generator":"Unity 2021.3.22f1 glTFast 4.8.3","lastModified":"06-07-2023 06:13:35","assetVersion":"1.0","expiryToken":1},"nodes":[{"name":"polySurface87","mesh":0,"translation":[0.143833488,2.35763049,0]},{"name":"polySurface94","mesh":1,"translation":[-1.92476082,1.31637514,-2.766455]},{"name":"polySurface103","mesh":2,"translation":[0.819268167,1.345417,5.29049349]},{"name":"RC_Small_Building_08_Side_Building(Clone)","children":[0,1,2]}],"extensionsRequired":["KHR_texture_transform"],"extensionsUsed":["KHR_texture_transform"],"buffers":[{"uri":"RC_Small_Building_08_Side_Building.bin","byteLength":237552}],"bufferViews":[{"buffer":0,"byteLength":8880},{"buffer":0,"byteLength":59280,"byteOffset":8880,"byteStride":48},{"buffer":0,"byteLength":13560,"byteOffset":68160},{"buffer":0,"byteLength":71136,"byteOffset":81720,"byteStride":48},{"buffer":0,"byteLength":13560,"byteOffset":152856},{"buffer":0,"byteLength":71136,"byteOffset":166416,"byteStride":48}],"accessors":[{"bufferView":1,"componentType":5126,"count":1235,"type":"VEC3","max":[2.119307,2.35792851,6.13905954],"min":[-2.119307,-2.35792851,-6.13905859]},{"bufferView":1,"componentType":5126,"count":1235,"type":"VEC3","byteOffset":12},{"bufferView":1,"componentType":5126,"count":1235,"type":"VEC4","byteOffset":24},{"bufferView":1,"componentType":5126,"count":1235,"type":"VEC2","byteOffset":40},{"bufferView":0,"componentType":5123,"count":1512,"type":"SCALAR"},{"bufferView":0,"componentType":5123,"count":432,"type":"SCALAR","byteOffset":3024},{"bufferView":0,"componentType":5123,"count":852,"type":"SCALAR","byteOffset":3888},{"bufferView":0,"componentType":5123,"count":132,"type":"SCALAR","byteOffset":5592},{"bufferView":0,"componentType":5123,"count":108,"type":"SCALAR","byteOffset":5856},{"bufferView":0,"componentType":5123,"count":108,"type":"SCALAR","byteOffset":6072},{"bufferView":0,"componentType":5123,"count":1296,"type":"SCALAR","byteOffset":6288},{"bufferView":3,"componentType":5126,"count":1482,"type":"VEC3","max":[0.0166163445,1.27383387,0.08586812],"min":[-1.04593241,-1.280599,-1.13252723]},{"bufferView":3,"componentType":5126,"count":1482,"type":"VEC3","byteOffset":12},{"bufferView":3,"componentType":5126,"count":1482,"type":"VEC4","byteOffset":24},{"bufferView":3,"componentType":5126,"count":1482,"type":"VEC2","byteOffset":40},{"bufferView":2,"componentType":5123,"count":1116,"type":"SCALAR"},{"bufferView":2,"componentType":5123,"count":936,"type":"SCALAR","byteOffset":2232},{"bufferView":2,"componentType":5123,"count":648,"type":"SCALAR","byteOffset":4104},{"bufferView":2,"componentType":5123,"count":4080,"type":"SCALAR","byteOffset":5400},{"bufferView":5,"componentType":5126,"count":1482,"type":"VEC3","max":[0.261740118,1.2447921,0.006794572],"min":[-0.118186623,-1.30964077,-1.47312355]},{"bufferView":5,"componentType":5126,"count":1482,"type":"VEC3","byteOffset":12},{"bufferView":5,"componentType":5126,"count":1482,"type":"VEC4","byteOffset":24},{"bufferView":5,"componentType":5126,"count":1482,"type":"VEC2","byteOffset":40},{"bufferView":4,"componentType":5123,"count":1116,"type":"SCALAR"},{"bufferView":4,"componentType":5123,"count":4080,"type":"SCALAR","byteOffset":2232},{"bufferView":4,"componentType":5123,"count":936,"type":"SCALAR","byteOffset":10392},{"bufferView":4,"componentType":5123,"count":648,"type":"SCALAR","byteOffset":12264}],"images":[{"name":"RC_Wall_002_Normal.png","uri":"RC_Wall_002_Normal.png","mimeType":"image/png"},{"name":"RC_Wall.jpg","uri":"RC_Wall.jpg","mimeType":"image/jpeg"},{"name":"RC_Wall_03.jpg","uri":"RC_Wall_03.jpg","mimeType":"image/jpeg"},{"name":"RC_Wood_06_Normal.png","uri":"RC_Wood_06_Normal.png","mimeType":"image/png"},{"name":"RC_Wood_06_Base.jpg","uri":"RC_Wood_06_Base.jpg","mimeType":"image/jpeg"},{"name":"RC_Wood_09_Normal.png","uri":"RC_Wood_09_Normal.png","mimeType":"image/png"},{"name":"RC_Wood_09_Base.jpg","uri":"RC_Wood_09_Base.jpg","mimeType":"image/jpeg"},{"name":"RC_Roof_011_Normal.png","uri":"RC_Roof_011_Normal.png","mimeType":"image/png"},{"name":"RC_Roof_011_Base.jpg","uri":"RC_Roof_011_Base.jpg","mimeType":"image/jpeg"},{"name":"RC_Roof_005_AO.jpg","uri":"RC_Roof_005_AO.jpg","mimeType":"image/jpeg"},{"name":"RC_Wall_010_Normal.png","uri":"RC_Wall_010_Normal.png","mimeType":"image/png"},{"name":"RC_Wall_010_Base.jpg","uri":"RC_Wall_010_Base.jpg","mimeType":"image/jpeg"},{"name":"RC_Wall_010_AO.jpg","uri":"RC_Wall_010_AO.jpg","mimeType":"image/jpeg"},{"name":"RC_Metal_04_Normal.png","uri":"RC_Metal_04_Normal.png","mimeType":"image/png"},{"name":"RC_Metal_04_Base.jpg","uri":"RC_Metal_04_Base.jpg","mimeType":"image/jpeg"}],"materials":[{"name":"RC_Door_01_mat1","pbrMetallicRoughness":{"baseColorFactor":[0.6214469,0.466901,0.355175376,1],"metallicFactor":0,"roughnessFactor":0.5527864}},{"name":"RC_Small_Building_08_Side_Inner_Wall_mat","pbrMetallicRoughness":{"baseColorFactor":[0.7353569,0.7353569,0.7353569,1],"metallicFactor":0,"baseColorTexture":{"index":1,"extensions":{"KHR_texture_transform":{"offset":[0,1.08],"scale":[3,-3]}}}},"normalTexture":{"index":0,"extensions":{"KHR_texture_transform":{"offset":[0,1],"scale":[1,-1]}}}},{"name":"RC_Small_Building_08_Side_Wall_mat","pbrMetallicRoughness":{"baseColorFactor":[0.8384155,0.8384155,0.8384155,1],"metallicFactor":0,"baseColorTexture":{"index":2,"extensions":{"KHR_texture_transform":{"offset":[0,0.51],"scale":[5,-5]}}}},"normalTexture":{"index":0,"extensions":{"KHR_texture_transform":{"offset":[0,1],"scale":[1,-1]}}}},{"name":"RC_Small_Building_08_Wood_Beam_mat","pbrMetallicRoughness":{"baseColorFactor":[0.4811321,0.4811321,0.4811321,1],"metallicFactor":0,"baseColorTexture":{"index":4,"extensions":{"KHR_texture_transform":{"offset":[0,1],"scale":[5,-5]}}}},"normalTexture":{"index":3,"extensions":{"KHR_texture_transform":{"offset":[0,1],"scale":[1,-1]}}}},{"name":"RC_Small_Building_08_Side_Roof_Wood_mat","pbrMetallicRoughness":{"baseColorFactor":[0.6603774,0.6603774,0.6603774,1],"metallicFactor":0,"baseColorTexture":{"index":6,"extensions":{"KHR_texture_transform":{"offset":[0,1],"scale":[5,-5]}}}},"normalTexture":{"index":5,"extensions":{"KHR_texture_transform":{"offset":[0,1],"scale":[1,-1]}}}},{"name":"RC_Small_Building_08_Side_Roof_mat","pbrMetallicRoughness":{"baseColorFactor":[0.9150943,0.9150943,0.9150943,1],"metallicFactor":0,"baseColorTexture":{"index":8,"extensions":{"KHR_texture_transform":{"offset":[0,1],"scale":[5,-5]}}}},"normalTexture":{"index":7,"extensions":{"KHR_texture_transform":{"offset":[0,1],"scale":[1,-1]}},"scale":2},"occlusionTexture":{"index":9,"extensions":{"KHR_texture_transform":{"offset":[0,1],"scale":[5,-5]}}}},{"name":"RC_Small_Building_08_Stone_mat","pbrMetallicRoughness":{"baseColorFactor":[0.7924528,0.7924528,0.7924528,1],"metallicFactor":0,"baseColorTexture":{"index":11,"extensions":{"KHR_texture_transform":{"offset":[0,1],"scale":[0.5,-0.5]}}}},"normalTexture":{"index":10,"extensions":{"KHR_texture_transform":{"offset":[0,1],"scale":[1,-1]}},"scale":0.1},"occlusionTexture":{"index":12,"extensions":{"KHR_texture_transform":{"offset":[0,1],"scale":[0.5,-0.5]}}}},{"name":"RC_Door_01_mat","pbrMetallicRoughness":{"baseColorFactor":[0.7830188,0.780849,0.7793254,1],"metallicFactor":0.094,"roughnessFactor":0.86,"baseColorTexture":{"index":6,"extensions":{"KHR_texture_transform":{"offset":[0,1],"scale":[3,-3]}}}},"normalTexture":{"index":5,"extensions":{"KHR_texture_transform":{"offset":[0,1],"scale":[1,-1]}}}},{"name":"RC_Door_01_mat4","pbrMetallicRoughness":{"baseColorFactor":[0.952830136,0.952830136,0.952830136,1],"metallicFactor":0.271,"roughnessFactor":0.601,"baseColorTexture":{"index":14,"extensions":{"KHR_texture_transform":{"offset":[0,1],"scale":[4,-4]}}}},"normalTexture":{"index":13,"extensions":{"KHR_texture_transform":{"offset":[0,1],"scale":[1,-1]}},"scale":2}},{"name":"RC_Door_01_mat3","pbrMetallicRoughness":{"baseColorFactor":[0.6415094,0.6156721,0.5961196,1],"metallicFactor":0.039,"roughnessFactor":0.95,"baseColorTexture":{"index":4,"extensions":{"KHR_texture_transform":{"offset":[0,1],"scale":[3,-3]}}}},"normalTexture":{"index":3,"extensions":{"KHR_texture_transform":{"offset":[0,1],"scale":[1,-1]}},"scale":2}},{"name":"RC_Door_01_mat2","pbrMetallicRoughness":{"baseColorFactor":[0.952830136,0.952830136,0.952830136,1],"metallicFactor":0.366,"roughnessFactor":0.5527864,"baseColorTexture":{"index":14,"extensions":{"KHR_texture_transform":{"offset":[0,1],"scale":[4,-4]}}}},"normalTexture":{"index":13,"extensions":{"KHR_texture_transform":{"offset":[0,1],"scale":[1,-1]}},"scale":2}}],"meshes":[{"name":"polySurface87","primitives":[{"attributes":{"POSITION":0,"NORMAL":1,"TANGENT":2,"TEXCOORD_0":3},"indices":4,"material":0},{"attributes":{"POSITION":0,"NORMAL":1,"TANGENT":2,"TEXCOORD_0":3},"indices":5,"material":1},{"attributes":{"POSITION":0,"NORMAL":1,"TANGENT":2,"TEXCOORD_0":3},"indices":6,"material":2},{"attributes":{"POSITION":0,"NORMAL":1,"TANGENT":2,"TEXCOORD_0":3},"indices":7,"material":3},{"attributes":{"POSITION":0,"NORMAL":1,"TANGENT":2,"TEXCOORD_0":3},"indices":8,"material":4},{"attributes":{"POSITION":0,"NORMAL":1,"TANGENT":2,"TEXCOORD_0":3},"indices":9,"material":5},{"attributes":{"POSITION":0,"NORMAL":1,"TANGENT":2,"TEXCOORD_0":3},"indices":10,"material":6}]},{"name":"polySurface94","primitives":[{"attributes":{"POSITION":11,"NORMAL":12,"TANGENT":13,"TEXCOORD_0":14},"indices":15,"material":7},{"attributes":{"POSITION":11,"NORMAL":12,"TANGENT":13,"TEXCOORD_0":14},"indices":16,"material":8},{"attributes":{"POSITION":11,"NORMAL":12,"TANGENT":13,"TEXCOORD_0":14},"indices":17,"material":9},{"attributes":{"POSITION":11,"NORMAL":12,"TANGENT":13,"TEXCOORD_0":14},"indices":18,"material":10}]},{"name":"polySurface103","primitives":[{"attributes":{"POSITION":19,"NORMAL":20,"TANGENT":21,"TEXCOORD_0":22},"indices":23,"material":7},{"attributes":{"POSITION":19,"NORMAL":20,"TANGENT":21,"TEXCOORD_0":22},"indices":24,"material":10},{"attributes":{"POSITION":19,"NORMAL":20,"TANGENT":21,"TEXCOORD_0":22},"indices":25,"material":8},{"attributes":{"POSITION":19,"NORMAL":20,"TANGENT":21,"TEXCOORD_0":22},"indices":26,"material":9}]}],"scene":0,"scenes":[{"name":"RC_Small_Building_08_Side_Building(Clone)","nodes":[3]}],"textures":[{"source":0},{"source":1},{"source":2},{"source":3},{"source":4},{"source":5},{"source":6},{"source":7},{"source":8},{"source":9},{"source":10},{"source":11},{"source":12},{"source":13},{"source":14}]}