{"asset":{"version":"2.0","generator":"Unity 2021.3.22f1 glTFast 4.8.3","lastModified":"19-07-2023 05:57:27","assetVersion":"1.0","expiryToken":1},"nodes":[{"name":"TFP_Rock_02B_LOD0","mesh":0},{"name":"TFP_Rock_02B(Clone)","children":[0]}],"extensionsRequired":["KHR_texture_transform"],"extensionsUsed":["KHR_texture_transform"],"buffers":[{"uri":"TFP_Rock_02B.bin","byteLength":15564}],"bufferViews":[{"buffer":0,"byteLength":780},{"buffer":0,"byteLength":14784,"byteOffset":780,"byteStride":56}],"accessors":[{"bufferView":1,"componentType":5126,"count":264,"type":"VEC3","max":[0.123395354,0.139915451,0.149956256],"min":[-0.121541768,-0.0139433593,-0.140787452]},{"bufferView":1,"componentType":5126,"count":264,"type":"VEC3","byteOffset":12},{"bufferView":1,"componentType":5126,"count":264,"type":"VEC4","byteOffset":24},{"bufferView":1,"componentType":5126,"count":264,"type":"VEC2","byteOffset":40},{"bufferView":1,"componentType":5126,"count":264,"type":"VEC2","byteOffset":48},{"bufferView":0,"componentType":5123,"count":390,"type":"SCALAR"}],"images":[{"name":"TFP_Atlas_1A.png","uri":"TFP_Atlas_1A.png","mimeType":"image/png"}],"materials":[{"name":"TFP_Atlas_1A","pbrMetallicRoughness":{"metallicFactor":0,"baseColorTexture":{"index":0,"extensions":{"KHR_texture_transform":{"offset":[0,1],"scale":[1,-1]}}}},"alphaMode":"MASK","doubleSided":true}],"meshes":[{"name":"TFP_Rock_02B_LOD0","primitives":[{"attributes":{"POSITION":0,"NORMAL":1,"TANGENT":2,"TEXCOORD_0":3,"TEXCOORD_1":4},"indices":5,"material":0}]}],"scene":0,"scenes":[{"name":"TFP_Rock_02B(Clone)","nodes":[1]}],"textures":[{"source":0}]}